<svg width="143" height="144" viewBox="0 0 143 144" fill="none" xmlns="http://www.w3.org/2000/svg">
<path d="M141.5 72C141.5 110.946 110.15 142.5 71.5 142.5C32.8499 142.5 1.5 110.946 1.5 72C1.5 33.0541 32.8499 1.5 71.5 1.5C110.15 1.5 141.5 33.0541 141.5 72Z" stroke="#FF3A9E" stroke-width="3"/>
<g clip-path="url(#clip0_496_3)">
<path d="M70.585 97C66.5369 97 63.0841 95.5941 60.2465 92.7624C57.4089 89.9307 56 86.505 56 82.4455V79.9505C59.1154 80.4653 61.953 81.6139 64.5327 83.4356C67.1124 85.2376 69.057 87.4158 70.3865 89.9901V72.8218C66.8147 72.4851 63.7985 70.9604 61.3577 68.2871C58.917 65.6139 57.7065 62.4455 57.7065 58.8218V52.3465C57.7065 51.3564 58.1431 50.6832 59.0361 50.2871C59.929 49.8911 60.7426 50.0297 61.4768 50.6832L65.3066 53.9703L69.9301 47.8713C70.3865 47.2772 71.0017 47 71.7359 47C72.4701 47 73.0654 47.297 73.5218 47.8713L78.1652 53.9703L81.995 50.6832C82.7093 50.0297 83.5229 49.8911 84.4159 50.2871C85.3088 50.6634 85.7652 51.3564 85.7652 52.3465V58.8218C85.7652 62.4455 84.5349 65.5941 82.0942 68.2673C79.6534 70.9406 76.6372 72.4455 73.0852 72.802V89.8713C74.3949 87.3366 76.3396 85.1782 78.8994 83.396C81.479 81.5941 84.2968 80.4455 87.3527 79.9307V82.4257C87.3527 86.4653 85.924 89.9109 83.1062 92.7426C80.2686 95.5743 76.8357 96.9802 72.7876 96.9802H70.585V97ZM71.716 70.1089C74.8712 70.1089 77.55 69.0198 79.7527 66.8416C81.9553 64.6634 83.0467 61.9901 83.0467 58.8416V53.3564L77.808 57.7723L71.716 49.7525L65.6439 57.7723L60.4053 53.3564V58.8416C60.4053 61.9901 61.4966 64.6634 63.6794 66.8416C65.8622 69.0198 68.5411 70.1089 71.6962 70.1089M73.6607 94.3267C75.149 94.2277 76.538 93.8713 77.8278 93.2574C79.1177 92.6436 80.2487 91.8713 81.2409 90.8812C82.2331 89.8911 83.0268 88.7624 83.6221 87.4753C84.2174 86.1881 84.5746 84.7822 84.6937 83.2772C83.3642 83.7525 82.1339 84.3267 81.0226 85.0396C79.8916 85.7327 78.8597 86.5446 77.927 87.4951C76.9746 88.4455 76.1411 89.4951 75.4268 90.6238C74.7124 91.7525 74.1369 92.9802 73.6607 94.3267ZM69.7118 94.3267C69.2356 93 68.6601 91.7525 67.9656 90.6238C67.2711 89.4951 66.4575 88.4653 65.505 87.5149C64.5724 86.5644 63.5405 85.7525 62.4094 85.0594C61.2784 84.3663 60.0679 83.7723 58.7186 83.297C58.8376 84.7822 59.1948 86.1683 59.7901 87.4356C60.3854 88.7228 61.1593 89.8515 62.1515 90.8218C63.1437 91.8119 64.2549 92.604 65.5249 93.198C66.7949 93.8119 68.1839 94.1881 69.692 94.3267" fill="#FF3A9E"/>
</g>
<defs>
<clipPath id="clip0_496_3">
<rect width="31.3725" height="50" fill="white" transform="translate(56 47)"/>
</clipPath>
</defs>
</svg>
