<svg width="143" height="144" viewBox="0 0 143 144" fill="none" xmlns="http://www.w3.org/2000/svg">
<path d="M141.5 72C141.5 110.946 110.15 142.5 71.5 142.5C32.8499 142.5 1.5 110.946 1.5 72C1.5 33.0541 32.8499 1.5 71.5 1.5C110.15 1.5 141.5 33.0541 141.5 72Z" stroke="#FF3A9E" stroke-width="3"/>
<g clip-path="url(#clip0_496_4)">
<path d="M43 63.5481H50.5379V91.4395H62.5427V88.81H53.1436V58.7117L71.9884 43.3338L90.8564 58.7117V66.8584H93.4388V63.5481H101L71.9884 40L43 63.5481Z" fill="#FF3A9E"/>
<path d="M50.5379 91.4395V63.5481H43L71.9884 40L101 63.5481H93.4388V66.8584H90.8564V58.7117L71.9884 43.3338L53.1436 58.7117V88.81H62.5427V91.4395H50.5379Z" fill="#FF3A9E"/>
<path d="M84.4119 92.0968C85.3193 92.0968 86.087 91.7916 86.7152 91.1577C87.3433 90.5238 87.669 89.749 87.669 88.8334C87.669 87.9178 87.3433 87.143 86.7152 86.5091C86.087 85.8752 85.3193 85.5465 84.4119 85.5465C83.5046 85.5465 82.7368 85.8518 82.1087 86.4856C81.4805 87.1195 81.1781 87.8943 81.1781 88.8099C81.1781 89.7256 81.4805 90.5003 82.1087 91.1342C82.7368 91.7681 83.5046 92.0733 84.4119 92.0733M95.0208 91.2986L92.136 88.7395L95.2069 86.0865C95.7653 85.5935 96.1841 85.0066 96.4633 84.3492C96.7424 83.6918 96.882 82.9405 96.882 82.0953C96.882 80.4284 96.3237 79.0198 95.2069 77.8928C94.0902 76.7659 92.6943 76.2025 91.0425 76.2025C90.1817 76.2025 89.4139 76.3433 88.7625 76.625C88.1111 76.9068 87.5527 77.3294 87.0874 77.8928L84.4119 80.9919L81.783 77.8928C81.3177 77.3294 80.7593 76.9068 80.1079 76.625C79.4564 76.3433 78.6887 76.2025 77.8046 76.2025C76.1993 76.2025 74.8267 76.7894 73.6634 77.9633C72.5234 79.1372 71.9418 80.5458 71.9418 82.1892C71.9418 83.011 72.1047 83.7622 72.4071 84.4431C72.7328 85.1239 73.2214 85.7344 73.8728 86.2743L76.7112 88.7395L73.6402 91.369C73.0818 91.8385 72.663 92.4255 72.3606 93.0829C72.0581 93.7637 71.9185 94.515 71.9185 95.3602C71.9185 97.0271 72.5002 98.4358 73.6402 99.6096C74.7802 100.784 76.1528 101.37 77.7581 101.37C78.6189 101.37 79.4099 101.206 80.1079 100.854C80.8058 100.502 81.434 99.9853 81.9923 99.3279L84.4119 96.581L87.0641 99.6801C87.5295 100.22 88.0878 100.643 88.7392 100.924C89.3907 101.23 90.1584 101.37 91.0192 101.37C92.671 101.37 94.067 100.784 95.1837 99.6096C96.3004 98.4358 96.8588 97.0036 96.8588 95.3602C96.8588 94.5385 96.6959 93.7872 96.3935 93.1298C96.091 92.449 95.6257 91.8385 94.9976 91.2751M84.3887 100.502C83.5046 101.535 82.5042 102.38 81.3875 102.99C80.2475 103.624 79.0144 103.93 77.665 103.93C75.4316 103.93 73.4773 103.108 71.8487 101.464C70.2202 99.8209 69.3826 97.8723 69.3826 95.595C69.3826 94.2098 69.6851 92.942 70.3132 91.8151C70.9414 90.6881 71.7557 89.6786 72.7794 88.7865C71.779 87.8239 70.9647 86.7439 70.3132 85.57C69.6618 84.3961 69.3594 83.1284 69.3594 81.7197C69.3594 79.4893 70.1737 77.5642 71.8255 75.9677C73.454 74.3712 75.4083 73.5964 77.6418 73.5964C78.9911 73.5964 80.2242 73.8782 81.3642 74.4651C82.5042 75.052 83.5046 75.8738 84.3654 76.9068C85.2262 75.8738 86.2033 75.052 87.3201 74.4651C88.4368 73.8782 89.6698 73.5964 91.0192 73.5964C93.3225 73.5964 95.3 74.3947 96.9518 75.9912C98.6037 77.5876 99.4179 79.5598 99.4179 81.8606C99.4179 83.2223 99.0922 84.4666 98.4641 85.5935C97.8359 86.7204 96.9751 87.73 95.9049 88.6456C96.9751 89.5612 97.8359 90.5708 98.4641 91.6977C99.0922 92.8246 99.4179 94.0689 99.4179 95.4306C99.4179 97.7549 98.6037 99.7505 96.9751 101.417C95.3465 103.084 93.4155 103.906 91.1588 103.906C89.7862 103.906 88.5299 103.601 87.3666 102.99C86.2266 102.38 85.2262 101.535 84.3654 100.455" fill="#FF3A9E"/>
<path d="M84.412 92.0968C85.3193 92.0968 86.0871 91.7916 86.7152 91.1577C87.3434 90.5238 87.6691 89.7491 87.6691 88.8335C87.6691 87.9178 87.3434 87.1431 86.7152 86.5092C86.0871 85.8753 85.3193 85.5466 84.412 85.5466C83.5046 85.5466 82.7369 85.8518 82.1087 86.4857C81.4806 87.1196 81.1781 87.8944 81.1781 88.81C81.1781 89.7256 81.4806 90.5004 82.1087 91.1343C82.7369 91.7682 83.5046 92.0734 84.412 92.0734V92.0968ZM95.0209 91.3221L92.136 88.763L95.207 86.11C95.7654 85.617 96.1841 85.0301 96.4633 84.3727C96.7425 83.7153 96.8821 82.964 96.8821 82.1189C96.8821 80.4519 96.3237 79.0433 95.207 77.9164C94.0903 76.7894 92.6944 76.226 91.0425 76.226C90.1817 76.226 89.414 76.3668 88.7626 76.6486C88.1111 76.9303 87.5528 77.3529 87.0875 77.9164L84.412 81.0154L81.783 77.9164C81.3177 77.3529 80.7593 76.9303 80.1079 76.6486C79.4565 76.3668 78.6887 76.226 77.8047 76.226C76.1994 76.226 74.8267 76.8129 73.6635 77.9868C72.5235 79.1607 71.9419 80.5693 71.9419 82.2128C71.9419 83.0345 72.1047 83.7858 72.4072 84.4666C72.7329 85.1475 73.2214 85.7579 73.8729 86.2979L76.7112 88.763L73.6402 91.3925C73.0818 91.8621 72.6631 92.449 72.3606 93.1064C72.0582 93.7872 71.9186 94.5385 71.9186 95.3837C71.9186 97.0506 72.5002 98.4593 73.6402 99.6332C74.7802 100.807 76.1528 101.394 77.7581 101.394C78.619 101.394 79.41 101.23 80.1079 100.877C80.8059 100.525 81.434 100.009 81.9924 99.3514L84.412 96.6045L87.0642 99.7036C87.5295 100.244 88.0879 100.666 88.7393 100.948C89.3907 101.253 90.1585 101.394 91.0193 101.394C92.6711 101.394 94.067 100.807 95.1837 99.6332C96.3005 98.4593 96.8588 97.0271 96.8588 95.3837C96.8588 94.562 96.696 93.8107 96.3935 93.1533C96.0911 92.4725 95.6258 91.8621 94.9976 91.2986L95.0209 91.3221ZM84.412 100.549C83.5279 101.582 82.5275 102.427 81.4108 103.037C80.2708 103.671 79.0377 103.977 77.6883 103.977C75.4549 103.977 73.5006 103.155 71.8721 101.511C70.2435 99.8679 69.406 97.9193 69.406 95.642C69.406 94.2568 69.7084 92.989 70.3366 91.8621C70.9647 90.7351 71.779 89.7256 72.8027 88.8335C71.8023 87.8709 70.988 86.7909 70.3366 85.617C69.6851 84.4431 69.3827 83.1753 69.3827 81.7667C69.3827 79.5363 70.197 77.6112 71.8488 76.0147C73.4774 74.4182 75.4316 73.6434 77.6651 73.6434C79.0145 73.6434 80.2475 73.9252 81.3875 74.5121C82.5275 75.099 83.5279 75.9208 84.3887 76.9538C85.2495 75.9208 86.2267 75.099 87.3434 74.5121C88.4601 73.9252 89.6932 73.6434 91.0425 73.6434C93.3458 73.6434 95.3233 74.4417 96.9752 76.0382C98.627 77.6346 99.4413 79.6067 99.4413 81.9076C99.4413 83.2693 99.1155 84.5136 98.4874 85.6405C97.8592 86.7674 96.9984 87.777 95.9282 88.6926C96.9984 89.6082 97.8592 90.6178 98.4874 91.7447C99.1155 92.8716 99.4413 94.1159 99.4413 95.4776C99.4413 97.8019 98.627 99.7975 96.9984 101.464C95.3699 103.131 93.4388 103.953 91.1821 103.953C89.8095 103.953 88.5532 103.648 87.3899 103.037C86.2499 102.427 85.2495 101.582 84.3887 100.502L84.412 100.549Z" fill="#FF3A9E"/>
</g>
<defs>
<clipPath id="clip0_496_4">
<rect width="58" height="64" fill="white" transform="translate(43 40)"/>
</clipPath>
</defs>
</svg>
