<svg width="143" height="144" viewBox="0 0 143 144" fill="none" xmlns="http://www.w3.org/2000/svg">
<path d="M141.5 72C141.5 110.946 110.15 142.5 71.5 142.5C32.8499 142.5 1.5 110.946 1.5 72C1.5 33.0541 32.8499 1.5 71.5 1.5C110.15 1.5 141.5 33.0541 141.5 72Z" stroke="#FF3A9E" stroke-width="3"/>
<g clip-path="url(#clip0_496_5)">
<path d="M83.2443 64.4475H59L71.0896 45L83.2443 64.4475ZM63.8836 61.7344H78.339L71.0896 50.1223L63.8836 61.7344ZM71.0896 100L59 80.5525H83.2443L71.0896 100ZM63.8836 83.2656L71.0896 94.8777L78.339 83.2656H63.8836Z" fill="#FF3A9E"/>
</g>
<defs>
<clipPath id="clip0_496_5">
<rect width="24.2443" height="55" fill="white" transform="translate(59 45)"/>
</clipPath>
</defs>
</svg>
