<svg width="143" height="144" viewBox="0 0 143 144" fill="none" xmlns="http://www.w3.org/2000/svg">
<path d="M141.5 72C141.5 110.946 110.15 142.5 71.5 142.5C32.8499 142.5 1.5 110.946 1.5 72C1.5 33.0541 32.8499 1.5 71.5 1.5C110.15 1.5 141.5 33.0541 141.5 72Z" stroke="#FF3A9E" stroke-width="3"/>
<g clip-path="url(#clip0_496_2)">
<path d="M71.4984 89.3265C72.2998 89.3265 73.007 89.0412 73.5727 88.4707C74.1384 87.9002 74.4213 87.2108 74.4213 86.4025C74.4213 85.5943 74.1384 84.8811 73.5727 84.3106C73.007 83.7401 72.3234 83.4548 71.4984 83.4548C70.6734 83.4548 69.9899 83.7401 69.4241 84.3106C68.8584 84.8811 68.5991 85.5705 68.5991 86.4025C68.5991 87.2345 68.882 87.9239 69.4477 88.4944C70.0134 89.065 70.697 89.3265 71.4984 89.3265ZM81.0448 88.6371L78.452 86.355L81.2098 83.9778C81.7048 83.5261 82.0819 83.0032 82.3412 82.4089C82.6005 81.8146 82.7184 81.1252 82.7184 80.3883C82.7184 78.8906 82.2234 77.6307 81.2098 76.6086C80.1962 75.5864 78.9705 75.0872 77.462 75.0872C76.6841 75.0872 76.0005 75.206 75.4113 75.4675C74.822 75.729 74.327 76.1093 73.9027 76.6086L71.4984 79.3899L69.1177 76.6086C68.6934 76.1093 68.1984 75.729 67.6091 75.4675C67.0199 75.206 66.3363 75.0872 65.5349 75.0872C64.097 75.0872 62.8477 75.6101 61.8106 76.6561C60.7735 77.7021 60.2549 78.962 60.2549 80.4596C60.2549 81.1965 60.3963 81.8621 60.6792 82.4802C60.962 83.0983 61.4099 83.645 61.9992 84.1442L64.5449 86.355L61.787 88.7322C61.292 89.1601 60.8913 89.6593 60.632 90.2773C60.3728 90.8954 60.2313 91.561 60.2313 92.3217C60.2313 93.7956 60.7499 95.0792 61.7635 96.149C62.8006 97.2187 64.0263 97.7417 65.4642 97.7417C66.242 97.7417 66.9492 97.5753 67.562 97.2662C68.1984 96.9572 68.7641 96.5055 69.2591 95.8875L71.4277 93.439L73.8084 96.2203C74.2327 96.6957 74.7277 97.0761 75.317 97.3376C75.9063 97.599 76.5898 97.7417 77.3677 97.7417C78.8527 97.7417 80.102 97.2187 81.1155 96.149C82.1291 95.0792 82.6241 93.8193 82.6241 92.3217C82.6241 91.5848 82.4827 90.9192 82.1998 90.3011C81.9169 89.7068 81.4927 89.1363 80.9505 88.6371M71.4041 96.9334C70.6263 97.8605 69.707 98.5975 68.6934 99.168C67.6799 99.7385 66.572 100.024 65.3463 100.024C63.3192 100.024 61.5749 99.2868 60.1135 97.813C58.6285 96.3391 57.8978 94.58 57.8978 92.5357C57.8978 91.2995 58.1806 90.1585 58.7228 89.1363C59.2885 88.1141 60.0192 87.2108 60.9385 86.4263C60.0428 85.5467 59.312 84.5959 58.7228 83.5499C58.157 82.504 57.8742 81.3391 57.8742 80.103C57.8742 78.0824 58.6049 76.3708 60.0899 74.9445C61.5513 73.5182 63.2956 72.8051 65.3227 72.8051C66.5249 72.8051 67.6563 73.0666 68.6699 73.5895C69.6834 74.1125 70.5791 74.8494 71.357 75.7765C72.1348 74.8494 73.007 74.1125 74.0205 73.5895C75.0105 73.0666 76.1184 72.8051 77.3441 72.8051C79.4184 72.8051 81.1862 73.5182 82.6712 74.9683C84.1562 76.4184 84.8869 78.1775 84.8869 80.2456C84.8869 81.458 84.6041 82.5753 84.0384 83.5975C83.4726 84.6196 82.6948 85.523 81.7284 86.3312C82.6948 87.1395 83.4491 88.0666 84.0384 89.0887C84.6041 90.1109 84.8869 91.2282 84.8869 92.4406C84.8869 94.5325 84.1562 96.3154 82.6948 97.813C81.2334 99.3106 79.4891 100.048 77.462 100.048C76.2363 100.048 75.1048 99.786 74.0677 99.2393C73.0306 98.6925 72.1348 97.9318 71.357 96.981M71.357 89.374C72.1584 89.374 72.8656 89.0887 73.4313 88.5182C73.997 87.9477 74.2798 87.2583 74.2798 86.4501C74.2798 85.6418 73.997 84.9287 73.4313 84.3582C72.8656 83.7876 72.182 83.5024 71.357 83.5024C70.532 83.5024 69.8484 83.7876 69.2827 84.3582C68.717 84.9287 68.4577 85.6181 68.4577 86.4501C68.4577 87.2821 68.7406 87.9715 69.3063 88.542C69.872 89.1125 70.5556 89.374 71.357 89.374ZM80.9034 88.6846L78.3105 86.4025L81.0684 84.0254C81.5634 83.5737 81.9405 83.0507 82.1998 82.4564C82.4591 81.8621 82.5769 81.1727 82.5769 80.4358C82.5769 78.9382 82.0819 77.6783 81.0684 76.6561C80.0548 75.6339 78.8291 75.1347 77.3205 75.1347C76.5427 75.1347 75.8591 75.2536 75.2698 75.5151C74.6805 75.7765 74.1856 76.1569 73.7613 76.6561L71.357 79.4374L68.9763 76.6561C68.552 76.1569 68.057 75.7765 67.4677 75.5151C66.8784 75.2536 66.1949 75.1347 65.3934 75.1347C63.9556 75.1347 62.7063 75.6577 61.6692 76.7036C60.632 77.7496 60.1135 79.0095 60.1135 80.5071C60.1135 81.2441 60.2549 81.9097 60.5378 82.5277C60.8206 83.1458 61.2685 83.6925 61.8577 84.1918L64.4035 86.4025L61.6456 88.7797C61.1506 89.2076 60.7499 89.7068 60.4906 90.3249C60.2313 90.9429 60.0899 91.6086 60.0899 92.3693C60.0899 93.8431 60.6085 95.1268 61.622 96.1965C62.6592 97.2662 63.8849 97.7892 65.3227 97.7892C66.1006 97.7892 66.8077 97.6228 67.4206 97.3138C68.057 97.0048 68.6227 96.5531 69.1177 95.935L71.2863 93.4865L73.667 96.2678C74.0913 96.7433 74.5863 97.1236 75.1755 97.3851C75.7648 97.6466 76.4484 97.7892 77.2262 97.7892C78.7112 97.7892 79.9605 97.2662 80.9741 96.1965C81.9877 95.1268 82.4827 93.8669 82.4827 92.3693C82.4827 91.6323 82.3412 90.9667 82.0584 90.3487C81.7755 89.7544 81.3512 89.1838 80.8091 88.6846H80.9034ZM71.357 96.981C70.5791 97.9081 69.6599 98.645 68.6463 99.2155C67.6327 99.786 66.5249 100.071 65.2992 100.071C63.272 100.071 61.5277 99.3344 60.0663 97.8605C58.5813 96.3867 57.8506 94.6276 57.8506 92.5832C57.8506 91.3471 58.1335 90.206 58.6756 89.1838C59.2413 88.1616 59.972 87.2583 60.8913 86.4738C59.9956 85.5943 59.2649 84.6434 58.6756 83.5975C58.1099 82.5515 57.827 81.3867 57.827 80.1506C57.827 78.1299 58.5578 76.4184 60.0428 74.9921C61.5042 73.5658 63.2485 72.8526 65.2756 72.8526C66.4777 72.8526 67.6091 73.1141 68.6227 73.6371C69.6363 74.1601 70.532 74.897 71.3098 75.8241C72.0877 74.897 72.9598 74.1601 73.9734 73.6371C74.9634 73.1141 76.0713 72.8526 77.297 72.8526C79.3712 72.8526 81.1391 73.5658 82.6241 75.0158C84.1091 76.4659 84.8398 78.225 84.8398 80.2932C84.8398 81.5055 84.5569 82.6228 83.9912 83.645C83.4255 84.6672 82.6477 85.5705 81.6812 86.3788C82.6477 87.187 83.4019 88.1141 83.9912 89.1363C84.5569 90.1585 84.8398 91.2757 84.8398 92.4881C84.8398 94.58 84.1091 96.3629 82.6477 97.8605C81.1862 99.3582 79.442 100.095 77.4148 100.095C76.1891 100.095 75.0577 99.8336 74.0205 99.2868C72.9834 98.7401 72.0877 97.9794 71.3098 97.0285L71.357 96.981ZM104.97 73.0903L71.4984 43.9223L37.9093 73.0428L36 70.7845L71.4984 40L106.997 70.7845L105.088 73.0428L104.97 73.0903Z" fill="#FF3A9E"/>
</g>
<defs>
<clipPath id="clip0_496_2">
<rect width="71.0204" height="60" fill="white" transform="translate(36 40)"/>
</clipPath>
</defs>
</svg>
