<svg width="143" height="144" viewBox="0 0 143 144" fill="none" xmlns="http://www.w3.org/2000/svg">
<path d="M141.5 72C141.5 110.946 110.15 142.5 71.5 142.5C32.8499 142.5 1.5 110.946 1.5 72C1.5 33.0541 32.8499 1.5 71.5 1.5C110.15 1.5 141.5 33.0541 141.5 72Z" stroke="#FF3A9E" stroke-width="3"/>
<g clip-path="url(#clip0_496_7)">
<path d="M64.586 100H54.224V80.3508H50V63.4744C50 61.968 50.55 60.6581 51.65 59.5883C52.728 58.5185 54.07 57.9945 55.61 57.9945H63.2C64.74 57.9945 66.082 58.5403 67.16 59.5883C68.26 60.6581 68.81 61.968 68.81 63.4963V80.3727H64.586V100.022V100ZM56.974 97.2709H61.836V77.6218H66.06V63.4744C66.06 62.6885 65.796 62.0553 65.246 61.5095C64.674 60.9637 64.036 60.7017 63.2 60.7017H55.61C54.796 60.7017 54.136 60.9637 53.564 61.5095C52.992 62.0553 52.75 62.6885 52.75 63.4526V77.6H56.974V97.2491V97.2709ZM59.416 56.1606C57.7 56.1606 56.226 55.5711 55.016 54.3922C53.806 53.2132 53.212 51.7723 53.212 50.0694C53.212 48.3664 53.828 46.9255 55.016 45.7466C56.204 44.5676 57.678 43.9781 59.416 43.9781C61.154 43.9781 62.606 44.5676 63.816 45.7466C65.026 46.9255 65.62 48.3664 65.62 50.0694C65.62 51.7723 65.004 53.2132 63.816 54.3922C62.628 55.5711 61.132 56.1606 59.416 56.1606ZM59.416 46.7072C58.426 46.7072 57.634 47.0347 56.952 47.6896C56.292 48.3446 55.962 49.1306 55.962 50.0694C55.962 51.0082 56.27 51.7941 56.952 52.4491C58.294 53.759 60.538 53.759 61.88 52.4491C62.562 51.7941 62.87 51.03 62.87 50.0694C62.87 49.1087 62.54 48.3446 61.88 47.6896C61.198 47.0347 60.406 46.7072 59.416 46.7072ZM89.754 99.9781H79.392V80.329H75.168V63.4526C75.168 61.9462 75.718 60.6362 76.818 59.5664C77.896 58.4966 79.238 57.9727 80.778 57.9727H88.368C89.908 57.9727 91.25 58.5185 92.328 59.5664C93.428 60.6362 93.978 61.9462 93.978 63.4744V80.3508H89.754V100V99.9781ZM82.142 97.2491H87.004V77.6H91.228V63.4526C91.228 62.6666 90.964 62.0335 90.414 61.4877C89.842 60.9419 89.204 60.6799 88.368 60.6799H80.778C79.964 60.6799 79.304 60.9419 78.732 61.4877C78.16 62.0335 77.918 62.6666 77.918 63.4308V77.5781H82.142V97.2273V97.2491ZM84.584 56.1388C82.868 56.1388 81.394 55.5493 80.184 54.3703C78.974 53.1914 78.38 51.7505 78.38 50.0475C78.38 48.3446 78.996 46.9037 80.184 45.7247C81.372 44.5458 82.846 43.9563 84.584 43.9563C86.322 43.9563 87.774 44.5458 88.984 45.7247C90.194 46.9037 90.788 48.3446 90.788 50.0475C90.788 51.7505 90.172 53.1914 88.984 54.3703C87.796 55.5493 86.3 56.1388 84.584 56.1388ZM84.584 46.6853C83.594 46.6853 82.802 47.0128 82.12 47.6678C81.46 48.3228 81.13 49.1087 81.13 50.0475C81.13 50.9863 81.438 51.7723 82.12 52.4273C83.462 53.759 85.706 53.7372 87.048 52.4273C87.73 51.7723 88.038 51.0082 88.038 50.0475C88.038 49.0869 87.708 48.3228 87.048 47.6678C86.366 47.0128 85.574 46.6853 84.584 46.6853Z" fill="#FF3A9E"/>
</g>
<defs>
<clipPath id="clip0_496_7">
<rect width="44" height="56" fill="white" transform="translate(50 44)"/>
</clipPath>
</defs>
</svg>
