<svg width="120" height="120" viewBox="0 0 120 120" fill="none" xmlns="http://www.w3.org/2000/svg">
<path d="M117.667 60C117.667 92.3185 91.652 118.5 59.5833 118.5C27.5146 118.5 1.5 92.3185 1.5 60C1.5 27.6815 27.5146 1.5 59.5833 1.5C91.652 1.5 117.667 27.6815 117.667 60Z" stroke="#FF3A9E" stroke-width="3"/>
<path d="M44.4116 73.6558H75.9412V61.5977H44.4116V73.6558ZM56.358 68.8325H63.9949V66.4209H56.358V68.8325ZM61.3822 59.1861H75.9412V51.5047H61.3822V59.1861ZM61.3822 49.093H75.9412V43.0194C75.9412 42.5728 75.7849 42.1932 75.4722 41.8806C75.1596 41.5679 74.7801 41.4116 74.3335 41.4116H61.3822V49.093ZM44.4116 59.1861H58.9707V41.4116H46.0193C45.5504 41.4116 45.1709 41.5679 44.8583 41.8806C44.5457 42.1932 44.4116 42.5728 44.4116 43.0194V59.1861ZM42 81.8731V43.0194C42 41.9252 42.3796 40.965 43.1612 40.1835C43.9427 39.4019 44.8805 39 46.0193 39H74.3335C75.4277 39 76.3878 39.4019 77.1693 40.1835C77.9509 40.965 78.3529 41.9252 78.3529 43.0194V81.8731H75.9412V76.045H44.4116V81.8731H42Z" fill="#FF3A9E"/>
</svg>
