<svg width="120" height="120" viewBox="0 0 120 120" fill="none" xmlns="http://www.w3.org/2000/svg">
<path d="M117.667 60C117.667 92.3185 91.652 118.5 59.5833 118.5C27.5146 118.5 1.5 92.3185 1.5 60C1.5 27.6815 27.5146 1.5 59.5833 1.5C91.652 1.5 117.667 27.6815 117.667 60Z" stroke="#FF3A9E" stroke-width="3"/>
<path d="M76.5223 51.1741H82.9956C83.5759 51.1741 84.0893 50.9955 84.4911 50.6161C84.8929 50.2366 85.0937 49.7902 85.0937 49.2321V41.5089C85.0937 40.9732 84.8929 40.5045 84.4911 40.125C84.0893 39.7455 83.5759 39.567 82.9956 39.567H76.5223V51.1518V51.1741ZM48.308 72.1116H67.2143C69.0446 72.1116 70.6295 71.4643 71.9688 70.192C73.308 68.9196 73.9554 67.4018 73.9554 65.6384V39.567H41.567V65.6607C41.567 67.4241 42.2366 68.9196 43.5759 70.192C44.9152 71.4643 46.5 72.0893 48.308 72.0893M48.308 74.6562C45.6964 74.6562 43.4866 73.7857 41.7009 72.0446C39.8929 70.3036 39 68.1607 39 65.6607V37H82.9956C84.2902 37 85.3839 37.4464 86.2991 38.317C87.2143 39.1875 87.683 40.2589 87.683 41.5089V49.2321C87.683 50.4821 87.2143 51.5536 86.2991 52.4241C85.3839 53.2946 84.2902 53.7411 82.9956 53.7411H76.5223V65.683C76.5223 68.2054 75.6295 70.3259 73.8214 72.067C72.0134 73.808 69.8259 74.6786 67.2143 74.6786H48.308V74.6562ZM39 83.0714H81.5893V85.6384H39V83.0714Z" fill="#FF3A9E"/>
</svg>
