<svg width="120" height="120" viewBox="0 0 120 120" fill="none" xmlns="http://www.w3.org/2000/svg">
<path d="M117.667 60C117.667 92.3185 91.652 118.5 59.5833 118.5C27.5146 118.5 1.5 92.3185 1.5 60C1.5 27.6815 27.5146 1.5 59.5833 1.5C91.652 1.5 117.667 27.6815 117.667 60Z" stroke="#FF3A9E" stroke-width="3"/>
<g clip-path="url(#clip0_298_3403)">
<path d="M53.822 83.3334H45.187V66.9592H41.667V52.8955C41.667 51.6401 42.1253 50.5485 43.042 49.657C43.9403 48.7655 45.0587 48.3289 46.342 48.3289H52.667C53.9503 48.3289 55.0687 48.7837 55.967 49.657C56.8837 50.5485 57.342 51.6401 57.342 52.9137V66.9774H53.822V83.3516V83.3334ZM47.4787 81.0592H51.5303V64.685H55.0503V52.8955C55.0503 52.2405 54.8303 51.7129 54.372 51.2581C53.8953 50.8032 53.3637 50.5849 52.667 50.5849H46.342C45.6637 50.5849 45.1137 50.8032 44.637 51.2581C44.1603 51.7129 43.9587 52.2405 43.9587 52.8773V64.6668H47.4787V81.041V81.0592ZM49.5137 46.8006C48.0837 46.8006 46.8553 46.3094 45.847 45.3269C44.8387 44.3445 44.3437 43.1437 44.3437 41.7246C44.3437 40.3055 44.857 39.1047 45.847 38.1222C46.837 37.1398 48.0653 36.6486 49.5137 36.6486C50.962 36.6486 52.172 37.1398 53.1803 38.1222C54.1887 39.1047 54.6837 40.3055 54.6837 41.7246C54.6837 43.1437 54.1703 44.3445 53.1803 45.3269C52.1903 46.3094 50.9437 46.8006 49.5137 46.8006ZM49.5137 38.9228C48.6887 38.9228 48.0287 39.1957 47.4603 39.7415C46.9103 40.2873 46.6353 40.9423 46.6353 41.7246C46.6353 42.5069 46.892 43.1619 47.4603 43.7077C48.5787 44.7993 50.4487 44.7993 51.567 43.7077C52.1353 43.1619 52.392 42.5251 52.392 41.7246C52.392 40.9241 52.117 40.2873 51.567 39.7415C50.9987 39.1957 50.3387 38.9228 49.5137 38.9228ZM74.7953 83.3152H66.1603V66.941H62.6403V52.8773C62.6403 51.6219 63.0987 50.5303 64.0153 49.6388C64.9137 48.7473 66.032 48.3107 67.3153 48.3107H73.6403C74.9237 48.3107 76.042 48.7655 76.9403 49.6388C77.857 50.5303 78.3153 51.6219 78.3153 52.8955V66.9592H74.7953V83.3334V83.3152ZM68.452 81.041H72.5037V64.6668H76.0237V52.8773C76.0237 52.2223 75.8037 51.6947 75.3453 51.2399C74.8687 50.785 74.337 50.5667 73.6403 50.5667H67.3153C66.637 50.5667 66.087 50.785 65.6103 51.2399C65.1337 51.6947 64.932 52.2223 64.932 52.8591V64.6486H68.452V81.0228V81.041ZM70.487 46.7824C69.057 46.7824 67.8287 46.2912 66.8203 45.3087C65.812 44.3263 65.317 43.1255 65.317 41.7064C65.317 40.2873 65.8303 39.0865 66.8203 38.1041C67.8103 37.1216 69.0387 36.6304 70.487 36.6304C71.9353 36.6304 73.1453 37.1216 74.1537 38.1041C75.162 39.0865 75.657 40.2873 75.657 41.7064C75.657 43.1255 75.1437 44.3263 74.1537 45.3087C73.1637 46.2912 71.917 46.7824 70.487 46.7824ZM70.487 38.9046C69.662 38.9046 69.002 39.1775 68.4337 39.7233C67.8837 40.2691 67.6087 40.9241 67.6087 41.7064C67.6087 42.4887 67.8653 43.1437 68.4337 43.6895C69.552 44.7993 71.422 44.7811 72.5403 43.6895C73.1087 43.1437 73.3653 42.5069 73.3653 41.7064C73.3653 40.9059 73.0903 40.2691 72.5403 39.7233C71.972 39.1775 71.312 38.9046 70.487 38.9046Z" fill="#FF3A9E"/>
</g>
<defs>
<clipPath id="clip0_298_3403">
<rect width="36.6667" height="46.6667" fill="white" transform="translate(41.667 36.6667)"/>
</clipPath>
</defs>
</svg>
