<svg width="120" height="120" viewBox="0 0 120 120" fill="none" xmlns="http://www.w3.org/2000/svg">
<path d="M117.667 60C117.667 92.3185 91.652 118.5 59.5833 118.5C27.5146 118.5 1.5 92.3185 1.5 60C1.5 27.6815 27.5146 1.5 59.5833 1.5C91.652 1.5 117.667 27.6815 117.667 60Z" stroke="#FF3A9E" stroke-width="3"/>
<g clip-path="url(#clip0_303_25)">
<path d="M35.833 84.1667V81.7275H45.1109V69.7926H57.024V57.8577H68.9589V45.9446H80.872V36.6667H83.333V48.3839H71.3981V60.3187H59.485V72.2319H47.5501V84.1667H35.833Z" fill="#FF3A9E"/>
<path d="M35.833 84.1667V81.7275H45.1109V69.7926H57.024V57.8577H68.9589V45.9446H80.872V36.6667H83.333V48.3839H71.3981V60.3187H59.485V72.2319H47.5501V84.1667H35.833Z" fill="#FF3A9E"/>
</g>
<defs>
<clipPath id="clip0_303_25">
<rect width="47.5" height="47.5" fill="white" transform="translate(35.833 36.6667)"/>
</clipPath>
</defs>
</svg>
