<svg width="120" height="120" viewBox="0 0 120 120" fill="none" xmlns="http://www.w3.org/2000/svg">
<path d="M117.667 60C117.667 92.3185 91.652 118.5 59.5833 118.5C27.5146 118.5 1.5 92.3185 1.5 60C1.5 27.6815 27.5146 1.5 59.5833 1.5C91.652 1.5 117.667 27.6815 117.667 60Z" stroke="#FF3A9E" stroke-width="3"/>
<path d="M79.991 75.3795C82.8705 75.3795 85.3259 74.375 87.3125 72.3661C89.2991 70.3571 90.2813 67.9241 90.2813 65.0446C90.2813 62.1652 89.2768 59.6875 87.2902 57.7009C85.3036 55.7143 82.8706 54.7321 79.9688 54.7321C79.5223 54.7321 79.0982 54.7321 78.6518 54.7545C78.2277 54.7545 77.8036 54.8438 77.4241 54.9554L80.3705 63.0134L78.1384 63.8616L75.192 55.8259C73.4062 56.7411 72.0446 58.058 71.0848 59.7991C70.1473 61.5179 69.6563 63.2812 69.6563 65.067C69.6563 67.9464 70.6607 70.3795 72.6473 72.3884C74.634 74.3973 77.067 75.4018 79.9688 75.4018M60.6384 63.817H67.2679C67.4241 62.5 67.9375 60.8929 68.7857 58.9955C69.6339 57.0982 70.884 55.6473 72.5134 54.6429H57.2902L60.6384 63.817ZM39.7009 75.4018C42.1786 75.4018 44.3884 74.5759 46.308 72.9464C48.2277 71.317 49.4553 69.0625 49.991 66.2277H41.3973V63.817H49.991C49.4553 60.9821 48.2277 58.75 46.308 57.1652C44.3884 55.558 42.2009 54.7768 39.7455 54.7768C36.8214 54.7768 34.3661 55.7589 32.3795 57.7679C30.3929 59.7545 29.3884 62.2098 29.3884 65.0893C29.3884 67.9687 30.3929 70.4018 32.3795 72.4107C34.3661 74.4196 36.7991 75.4241 39.7009 75.4241M39.7009 77.8348C36.1071 77.8348 33.0938 76.6071 30.6607 74.1741C28.2054 71.7187 27 68.7054 27 65.0893C27 61.4732 28.25 58.5268 30.7277 56.0268C33.2277 53.5045 36.2187 52.2545 39.7455 52.2545C42.9152 52.2545 45.7277 53.3482 48.183 55.5357C50.6384 57.7232 52.0224 60.4911 52.3572 63.8393H57.9598L51.5982 45.9821H46.9777V43.5714H58.1161V45.9821H54.1652L56.442 52.2545H73.9866L68.8973 38.3929C68.7857 38.058 68.6071 37.8125 68.3393 37.6563C68.0937 37.5 67.7813 37.4107 67.4688 37.4107H61.4197V35H67.3348C68.2054 35 68.9866 35.2232 69.7009 35.7143C70.4152 36.183 70.9062 36.8304 71.2187 37.6786L76.5759 52.2991H79.991C83.4955 52.2991 86.5089 53.5268 88.9866 56.0045C91.4643 58.4821 92.7143 61.4732 92.7143 64.9554C92.7143 68.4375 91.4866 71.4955 89.0313 73.9955C86.5759 76.4955 83.5625 77.7455 80.0134 77.7455C76.7321 77.7455 73.8973 76.6518 71.5089 74.442C69.1205 72.2321 67.7143 69.5089 67.3125 66.2723H52.4018C52.067 69.5982 50.683 72.3661 48.2054 74.5759C45.75 76.7857 42.9152 77.8795 39.7232 77.8795" fill="#FF3A9E"/>
</svg>
