<svg width="130" height="119" viewBox="0 0 130 119" fill="none" xmlns="http://www.w3.org/2000/svg">
<path d="M0 98.9325V97.3904L4.49619 93.3812C4.85329 93.0728 5.09677 92.7806 5.22662 92.5047C5.35647 92.2287 5.43763 91.9528 5.43763 91.6931C5.43763 91.336 5.35647 91.0276 5.21039 90.7517C5.0643 90.4757 4.85329 90.2647 4.59358 90.1024C4.33387 89.9401 4.02547 89.8589 3.6846 89.8589C3.31127 89.8589 3.00287 89.9401 2.7107 90.1186C2.41853 90.2972 2.20752 90.5082 2.06143 90.7841C1.91535 91.0601 1.83419 91.3685 1.85042 91.6769H0C0 90.9789 0.162317 90.3621 0.47072 89.8427C0.779123 89.3233 1.21738 88.9175 1.76926 88.6253C2.32114 88.3331 2.95418 88.187 3.6846 88.187C4.35011 88.187 4.96691 88.3331 5.50256 88.6415C6.03821 88.9337 6.46023 89.3557 6.76864 89.8751C7.07704 90.3946 7.22312 91.0114 7.22312 91.6931C7.22312 92.1963 7.1582 92.6183 7.01211 92.9592C6.86603 93.3 6.67125 93.6084 6.39531 93.9006C6.11937 94.1928 5.79473 94.5012 5.38894 94.8583L2.19128 97.6826L2.02897 97.2443H7.20689V98.9H0V98.9325Z" fill="#003B43"/>
<path d="M13.6676 99.1597C12.921 99.1597 12.2717 98.9974 11.7036 98.689C11.1355 98.3643 10.6972 97.9261 10.3726 97.358C10.0479 96.7899 9.90186 96.1244 9.90186 95.3939V92.0015C9.90186 91.2548 10.0642 90.6056 10.3726 90.0375C10.6972 89.4693 11.1355 89.0311 11.7036 88.7065C12.2717 88.3818 12.9372 88.2357 13.6676 88.2357C14.398 88.2357 15.0635 88.3981 15.6317 88.7065C16.1998 89.0149 16.638 89.4693 16.9627 90.0375C17.2873 90.6056 17.4496 91.2711 17.4496 92.0015V95.3939C17.4496 96.1406 17.2873 96.7899 16.9627 97.358C16.638 97.9261 16.1998 98.3643 15.6317 98.689C15.0635 99.0136 14.4143 99.1597 13.6676 99.1597ZM13.6676 97.4878C14.0409 97.4878 14.3818 97.4067 14.674 97.2281C14.9662 97.0496 15.2096 96.8061 15.3882 96.5139C15.5667 96.2218 15.6479 95.8809 15.6479 95.5076V91.8554C15.6479 91.4821 15.5667 91.1412 15.3882 90.849C15.2096 90.5569 14.9824 90.3134 14.674 90.1348C14.3656 89.9563 14.0409 89.8752 13.6676 89.8752C13.2943 89.8752 12.9534 89.9563 12.6613 90.1348C12.3528 90.3134 12.1256 90.5569 11.9471 90.849C11.7685 91.1412 11.6873 91.4821 11.6873 91.8554V95.5076C11.6873 95.8809 11.7685 96.2055 11.9471 96.5139C12.1256 96.8223 12.3528 97.0496 12.6613 97.2281C12.9697 97.4067 13.2943 97.4878 13.6676 97.4878Z" fill="#003B43"/>
<path d="M23.2767 99.1435C22.7573 99.1435 22.2541 99.0461 21.7834 98.835C21.3127 98.624 20.9069 98.3481 20.566 97.9585C20.2251 97.5852 19.9817 97.1469 19.8193 96.6275L21.5237 96.173C21.6373 96.5951 21.8645 96.9197 22.1892 97.147C22.5138 97.3742 22.8709 97.4878 23.2605 97.4878C23.6013 97.4878 23.9097 97.4067 24.1857 97.2443C24.4616 97.082 24.6726 96.871 24.8349 96.5951C24.9973 96.3191 25.0622 96.0107 25.0622 95.6699C25.0622 95.1504 24.8999 94.7122 24.559 94.3713C24.2181 94.0142 23.7961 93.8519 23.2605 93.8519C23.0981 93.8519 22.9358 93.8681 22.7897 93.9168C22.6437 93.9655 22.4813 94.0142 22.3515 94.0954L21.5399 92.7157L25.0784 89.6966L25.2245 90.1186H20.2251V88.463H26.6691V90.1348L23.8286 92.8618V92.3424C24.4454 92.391 24.9973 92.5696 25.4517 92.878C25.9062 93.1864 26.2471 93.5922 26.4906 94.0792C26.7341 94.5661 26.8477 95.1018 26.8477 95.6861C26.8477 96.3516 26.6854 96.9359 26.3607 97.4716C26.0361 97.991 25.5978 98.413 25.0622 98.7214C24.5265 99.0298 23.926 99.1759 23.2605 99.1759L23.2767 99.1435Z" fill="#003B43"/>
<path d="M33.3561 99.1597C32.6094 99.1597 31.9602 98.9974 31.3921 98.689C30.8239 98.3643 30.3857 97.9261 30.0611 97.358C29.7364 96.7899 29.5903 96.1244 29.5903 95.3939V92.0015C29.5903 91.2548 29.7527 90.6056 30.0611 90.0375C30.3857 89.4693 30.8239 89.0311 31.3921 88.7065C31.9602 88.3818 32.6257 88.2357 33.3561 88.2357C34.0865 88.2357 34.752 88.3981 35.3201 88.7065C35.8882 89.0149 36.3265 89.4693 36.6511 90.0375C36.9758 90.6056 37.1381 91.2711 37.1381 92.0015V95.3939C37.1381 96.1406 36.9758 96.7899 36.6511 97.358C36.3265 97.9261 35.8882 98.3643 35.3201 98.689C34.752 99.0136 34.1028 99.1597 33.3561 99.1597ZM33.3561 97.4878C33.7294 97.4878 34.0703 97.4067 34.3625 97.2281C34.6546 97.0496 34.8981 96.8061 35.0767 96.5139C35.2552 96.2218 35.3364 95.8809 35.3364 95.5076V91.8554C35.3364 91.4821 35.2552 91.1412 35.0767 90.849C34.8981 90.5569 34.6709 90.3134 34.3625 90.1348C34.0541 89.9563 33.7294 89.8752 33.3561 89.8752C32.9828 89.8752 32.6419 89.9563 32.3497 90.1348C32.0413 90.3134 31.8141 90.5569 31.6355 90.849C31.457 91.1412 31.3758 91.4821 31.3758 91.8554V95.5076C31.3758 95.8809 31.457 96.2055 31.6355 96.5139C31.8141 96.8223 32.0413 97.0496 32.3497 97.2281C32.6581 97.4067 32.9828 97.4878 33.3561 97.4878Z" fill="#003B43"/>
<path d="M42.2676 88.4143H44.0368L41.2287 98.9325H39.4595L42.2676 88.4143Z" fill="#003B43"/>
<path d="M46.1636 98.9325V97.3904L50.6598 93.3812C51.0169 93.0728 51.2603 92.7806 51.3902 92.5047C51.52 92.2287 51.6012 91.9528 51.6012 91.6931C51.6012 91.336 51.52 91.0276 51.374 90.7516C51.2279 90.4757 51.0169 90.2647 50.7572 90.1024C50.4974 89.9401 50.189 89.8589 49.8482 89.8589C49.4748 89.8589 49.1664 89.9401 48.8743 90.1186C48.5821 90.2972 48.3711 90.5082 48.225 90.7841C48.0789 91.0601 47.9978 91.3685 48.014 91.6769H46.196C46.196 90.9789 46.3584 90.3621 46.6668 89.8427C46.9752 89.3233 47.4134 88.9175 47.9653 88.6253C48.5172 88.3331 49.1502 88.187 49.8806 88.187C50.5461 88.187 51.1629 88.3331 51.6986 88.6415C52.2342 88.9337 52.6563 89.3557 52.9647 89.8751C53.2731 90.3946 53.4192 91.0114 53.4192 91.6931C53.4192 92.1963 53.3542 92.6183 53.2081 92.9592C53.0621 93.3 52.8673 93.6084 52.5913 93.9006C52.3154 94.1928 51.9908 94.5012 51.585 94.8583L48.3873 97.6826L48.225 97.2443H53.4029V98.9H46.1636V98.9325Z" fill="#003B43"/>
<path d="M59.8307 99.1597C59.084 99.1597 58.4348 98.9974 57.8667 98.689C57.2986 98.3643 56.8603 97.9261 56.5357 97.358C56.211 96.7899 56.0649 96.1244 56.0649 95.3939V92.0015C56.0649 91.2548 56.2273 90.6056 56.5357 90.0375C56.8603 89.4693 57.2986 89.0311 57.8667 88.7065C58.4348 88.3818 59.1003 88.2357 59.8307 88.2357C60.5611 88.2357 61.2266 88.3981 61.7947 88.7065C62.3629 89.0149 62.8011 89.4693 63.1257 90.0375C63.4504 90.6056 63.6127 91.2711 63.6127 92.0015V95.3939C63.6127 96.1406 63.4504 96.7899 63.1257 97.358C62.8011 97.9261 62.3629 98.3643 61.7947 98.689C61.2266 99.0136 60.5774 99.1597 59.8307 99.1597ZM59.8307 97.4878C60.204 97.4878 60.5449 97.4067 60.8371 97.2281C61.1292 97.0496 61.3727 96.8061 61.5513 96.5139C61.7298 96.2218 61.811 95.8809 61.811 95.5076V91.8554C61.811 91.4821 61.7298 91.1412 61.5513 90.849C61.3727 90.5569 61.1455 90.3134 60.8371 90.1348C60.5287 89.9563 60.204 89.8752 59.8307 89.8752C59.4574 89.8752 59.1165 89.9563 58.8243 90.1348C58.5159 90.3134 58.2887 90.5569 58.1101 90.849C57.9316 91.1412 57.8504 91.4821 57.8504 91.8554V95.5076C57.8504 95.8809 57.9316 96.2055 58.1101 96.5139C58.2887 96.8223 58.5159 97.0496 58.8243 97.2281C59.1327 97.4067 59.4574 97.4878 59.8307 97.4878Z" fill="#003B43"/>
<path d="M70.803 98.9487V97.2119H66.1445V95.5725L69.5045 88.4305H71.5172L68.1573 95.5725H70.803V92.8293H72.5885V95.5725H73.5787V97.2119H72.5885V98.9487H70.803Z" fill="#003B43"/>
<path d="M79.8766 99.1597C79.1299 99.1597 78.4807 98.9974 77.9126 98.689C77.3445 98.3643 76.9062 97.9261 76.5816 97.358C76.2569 96.7899 76.1108 96.1244 76.1108 95.3939V92.0015C76.1108 91.2548 76.2732 90.6056 76.5816 90.0375C76.9062 89.4693 77.3445 89.0311 77.9126 88.7065C78.4807 88.3818 79.1462 88.2357 79.8766 88.2357C80.607 88.2357 81.2725 88.3981 81.8406 88.7065C82.4088 89.0149 82.847 89.4693 83.1717 90.0375C83.4963 90.6056 83.6586 91.2711 83.6586 92.0015V95.3939C83.6586 96.1406 83.4963 96.7899 83.1717 97.358C82.847 97.9261 82.4088 98.3643 81.8406 98.689C81.2725 99.0136 80.6233 99.1597 79.8766 99.1597ZM79.8766 97.4878C80.2499 97.4878 80.5908 97.4067 80.883 97.2281C81.1751 97.0496 81.4186 96.8061 81.5972 96.5139C81.7757 96.2218 81.8569 95.8809 81.8569 95.5076V91.8554C81.8569 91.4821 81.7757 91.1412 81.5972 90.849C81.4186 90.5569 81.1914 90.3134 80.883 90.1348C80.5746 89.9563 80.2499 89.8752 79.8766 89.8752C79.5033 89.8752 79.1624 89.9563 78.8702 90.1348C78.5618 90.3134 78.3346 90.5569 78.156 90.849C77.9775 91.1412 77.8963 91.4821 77.8963 91.8554V95.5076C77.8963 95.8809 77.9775 96.2055 78.156 96.5139C78.3346 96.8223 78.5618 97.0496 78.8702 97.2281C79.1786 97.4067 79.5033 97.4878 79.8766 97.4878Z" fill="#003B43"/>
<path d="M88.7881 88.4143H90.5573L87.7492 98.9325H85.98L88.7881 88.4143Z" fill="#003B43"/>
<path d="M92.6841 98.9325V97.3904L97.1803 93.3812C97.5374 93.0728 97.7809 92.7806 97.9107 92.5047C98.0406 92.2287 98.1217 91.9528 98.1217 91.6931C98.1217 91.336 98.0406 91.0276 97.8945 90.7516C97.7484 90.4757 97.5374 90.2647 97.2777 90.1024C97.018 89.9401 96.7096 89.8589 96.3687 89.8589C95.9954 89.8589 95.687 89.9401 95.3948 90.1186C95.1026 90.2972 94.8916 90.5082 94.7455 90.7841C94.5994 91.0601 94.5183 91.3685 94.5345 91.6769H92.7165C92.7165 90.9789 92.8789 90.3621 93.1873 89.8427C93.4957 89.3233 93.9339 88.9175 94.4858 88.6253C95.0377 88.3331 95.6707 88.187 96.4012 88.187C97.0667 88.187 97.6835 88.3331 98.2191 88.6415C98.7548 88.9337 99.1768 89.3557 99.4852 89.8751C99.7936 90.3946 99.9397 91.0114 99.9397 91.6931C99.9397 92.1963 99.8747 92.6183 99.7287 92.9592C99.5826 93.3 99.3878 93.6084 99.1119 93.9006C98.8359 94.1928 98.5113 94.5012 98.1055 94.8583L94.9078 97.6826L94.7455 97.2443H99.9234V98.9H92.6841V98.9325Z" fill="#003B43"/>
<path d="M106.351 99.1597C105.605 99.1597 104.955 98.9974 104.387 98.689C103.819 98.3643 103.381 97.9261 103.056 97.358C102.732 96.7899 102.585 96.1244 102.585 95.3939V92.0015C102.585 91.2548 102.748 90.6056 103.056 90.0375C103.381 89.4693 103.819 89.0311 104.387 88.7065C104.955 88.3818 105.621 88.2357 106.351 88.2357C107.082 88.2357 107.747 88.3981 108.315 88.7065C108.883 89.0149 109.322 89.4693 109.646 90.0375C109.971 90.6056 110.133 91.2711 110.133 92.0015V95.3939C110.133 96.1406 109.971 96.7899 109.646 97.358C109.322 97.9261 108.883 98.3643 108.315 98.689C107.747 99.0136 107.098 99.1597 106.351 99.1597ZM106.351 97.4878C106.725 97.4878 107.065 97.4067 107.358 97.2281C107.65 97.0496 107.893 96.8061 108.072 96.5139C108.25 96.2218 108.331 95.8809 108.331 95.5076V91.8554C108.331 91.4821 108.25 91.1412 108.072 90.849C107.893 90.5569 107.666 90.3134 107.358 90.1348C107.049 89.9563 106.725 89.8752 106.351 89.8752C105.978 89.8752 105.637 89.9563 105.345 90.1348C105.036 90.3134 104.809 90.5569 104.631 90.849C104.452 91.1412 104.371 91.4821 104.371 91.8554V95.5076C104.371 95.8809 104.452 96.2055 104.631 96.5139C104.809 96.8223 105.036 97.0496 105.345 97.2281C105.653 97.4067 105.978 97.4878 106.351 97.4878Z" fill="#003B43"/>
<path d="M116.139 99.1597C115.603 99.1597 115.1 99.0461 114.645 98.8351C114.175 98.6078 113.785 98.2994 113.444 97.9099C113.103 97.5203 112.876 97.0658 112.73 96.5464L114.418 96.0919C114.483 96.3678 114.613 96.6113 114.791 96.8223C114.97 97.0333 115.181 97.1794 115.441 97.293C115.684 97.4067 115.944 97.4554 116.204 97.4554C116.544 97.4554 116.853 97.3742 117.145 97.2119C117.421 97.0496 117.648 96.8223 117.811 96.5464C117.973 96.2705 118.054 95.962 118.054 95.6212C118.054 95.2803 117.973 94.9719 117.794 94.696C117.632 94.42 117.405 94.1928 117.113 94.0305C116.837 93.8682 116.528 93.787 116.187 93.787C115.782 93.787 115.441 93.8519 115.181 93.998C114.921 94.1441 114.71 94.3064 114.564 94.4687L113.055 93.9818L113.379 88.4143H119.093V90.0699H114.321L114.97 89.4531L114.743 93.3163L114.418 92.9267C114.694 92.6832 115.002 92.4884 115.36 92.3748C115.717 92.2612 116.074 92.1963 116.398 92.1963C117.048 92.1963 117.632 92.3424 118.151 92.6508C118.671 92.9592 119.06 93.365 119.353 93.8681C119.645 94.3876 119.791 94.9719 119.791 95.6212C119.791 96.2704 119.612 96.871 119.271 97.4067C118.931 97.9423 118.476 98.3643 117.924 98.689C117.372 98.9974 116.755 99.1597 116.09 99.1597H116.139Z" fill="#003B43"/>
<path d="M126.138 99.1597C125.391 99.1597 124.742 98.9974 124.174 98.689C123.606 98.3643 123.167 97.9261 122.843 97.358C122.518 96.7899 122.372 96.1244 122.372 95.3939V92.0015C122.372 91.2548 122.534 90.6056 122.843 90.0375C123.167 89.4693 123.606 89.0311 124.174 88.7065C124.742 88.3818 125.407 88.2357 126.138 88.2357C126.868 88.2357 127.534 88.3981 128.102 88.7065C128.67 89.0149 129.108 89.4693 129.433 90.0375C129.758 90.6056 129.92 91.2711 129.92 92.0015V95.3939C129.92 96.1406 129.758 96.7899 129.433 97.358C129.108 97.9261 128.67 98.3643 128.102 98.689C127.534 99.0136 126.884 99.1597 126.138 99.1597ZM126.138 97.4878C126.511 97.4878 126.852 97.4067 127.144 97.2281C127.436 97.0496 127.68 96.8061 127.858 96.5139C128.037 96.2218 128.118 95.8809 128.118 95.5076V91.8554C128.118 91.4821 128.037 91.1412 127.858 90.849C127.68 90.5569 127.453 90.3134 127.144 90.1348C126.836 89.9563 126.511 89.8752 126.138 89.8752C125.765 89.8752 125.424 89.9563 125.131 90.1348C124.823 90.3134 124.596 90.5569 124.417 90.849C124.239 91.1412 124.158 91.4821 124.158 91.8554V95.5076C124.158 95.8809 124.239 96.2055 124.417 96.5139C124.596 96.8223 124.823 97.0496 125.131 97.2281C125.44 97.4067 125.765 97.4878 126.138 97.4878Z" fill="#003B43"/>
<path d="M32.999 118.427V109.565H29.5903V107.909H38.1607V109.565H34.752V118.427H32.999Z" fill="#003B43"/>
<path d="M38.7125 118.427L42.0238 107.909H44.6046L47.9159 118.427H46.098L43.0951 108.996H43.4847L40.5142 118.427H38.6963H38.7125ZM40.5629 116.154V114.515H46.0817V116.154H40.5629Z" fill="#003B43"/>
<path d="M50.2056 118.427V107.909H54.5557C54.6531 107.909 54.7829 107.909 54.9452 107.909C55.1075 107.909 55.2536 107.925 55.3835 107.957C56.0003 108.055 56.4872 108.249 56.893 108.558C57.2826 108.866 57.591 109.256 57.7696 109.743C57.9643 110.214 58.0617 110.749 58.0617 111.317C58.0617 112.178 57.8507 112.908 57.4125 113.525C56.9742 114.142 56.3087 114.515 55.416 114.661L54.6693 114.726H51.9586V118.394H50.2056V118.427ZM51.9586 113.103H54.4745C54.5719 113.103 54.6855 113.103 54.7991 113.103C54.929 113.103 55.0264 113.07 55.14 113.038C55.4322 112.973 55.6594 112.843 55.838 112.648C56.0165 112.453 56.1301 112.259 56.1951 112.015C56.26 111.788 56.2925 111.545 56.2925 111.334C56.2925 111.122 56.26 110.879 56.1951 110.636C56.1301 110.392 56.0003 110.181 55.838 110.002C55.6757 109.824 55.4322 109.694 55.14 109.613C55.0426 109.58 54.929 109.564 54.7991 109.564C54.6855 109.564 54.5719 109.564 54.4745 109.564H51.9586V113.119V113.103ZM56.2438 118.427L54.1661 114.142L55.9516 113.752L58.224 118.427H56.2275H56.2438Z" fill="#003B43"/>
<path d="M65.2039 118.638C64.5221 118.638 63.8891 118.524 63.2885 118.281C62.6879 118.037 62.1685 117.68 61.714 117.226C61.2596 116.771 60.9187 116.187 60.659 115.505C60.3993 114.823 60.2856 114.044 60.2856 113.168C60.2856 112.015 60.4967 111.041 60.9349 110.214C61.3569 109.402 61.9575 108.769 62.6879 108.331C63.4184 107.892 64.2787 107.681 65.2039 107.681C66.5024 107.681 67.525 107.99 68.2879 108.59C69.0508 109.191 69.554 110.035 69.8299 111.122L68.0282 111.415C67.8334 110.798 67.5088 110.295 67.0543 109.921C66.5998 109.548 66.0317 109.369 65.3175 109.369C64.6033 109.369 64.0189 109.516 63.5645 109.824C63.0937 110.149 62.7529 110.587 62.5094 111.155C62.2659 111.723 62.1523 112.405 62.1523 113.168C62.1523 113.931 62.2659 114.612 62.5094 115.18C62.7529 115.749 63.0937 116.187 63.5645 116.511C64.0352 116.836 64.6195 116.998 65.3337 116.998C65.8694 116.998 66.3239 116.901 66.7296 116.706C67.1354 116.511 67.4601 116.203 67.7035 115.813C67.9633 115.408 68.1256 114.904 68.2067 114.304H66.3563V112.924H70.0734C70.0734 112.924 70.0896 113.119 70.0896 113.265C70.0896 113.411 70.0896 113.509 70.0896 113.541C70.0896 114.531 69.8948 115.424 69.5053 116.187C69.1157 116.966 68.5476 117.567 67.8172 118.005C67.0867 118.443 66.2102 118.654 65.1876 118.654L65.2039 118.638Z" fill="#003B43"/>
<path d="M72.6372 118.427V107.909H79.4383V109.564H74.4065V112.161H78.5618V113.817H74.4065V116.787H79.4383V118.443H72.6372V118.427Z" fill="#003B43"/>
<path d="M84.893 118.427V109.564H81.4844V107.909H90.0547V109.564H86.6461V118.427H84.893Z" fill="#003B43"/>
<path d="M96.1242 118.638C95.3613 118.638 94.6633 118.508 94.0465 118.232C93.4297 117.956 92.9265 117.583 92.5207 117.08C92.1311 116.576 91.8714 115.992 91.7578 115.294L93.5758 115.018C93.7381 115.635 94.0465 116.122 94.5334 116.463C95.0204 116.804 95.5723 116.982 96.2053 116.982C96.5786 116.982 96.9357 116.917 97.2604 116.804C97.585 116.69 97.8609 116.511 98.072 116.3C98.283 116.073 98.3804 115.797 98.3804 115.473C98.3804 115.326 98.3479 115.197 98.3154 115.067C98.2667 114.937 98.2018 114.84 98.1044 114.742C98.007 114.645 97.8934 114.547 97.7311 114.466C97.585 114.385 97.4065 114.32 97.2117 114.255L94.501 113.444C94.2737 113.379 94.014 113.281 93.7381 113.168C93.4621 113.054 93.2187 112.892 92.9752 112.697C92.7317 112.502 92.5369 112.242 92.3908 111.918C92.2448 111.609 92.1636 111.22 92.1636 110.749C92.1636 110.067 92.3422 109.499 92.683 109.045C93.0239 108.59 93.4946 108.233 94.0627 108.006C94.6471 107.779 95.2963 107.665 95.9943 107.665C96.7085 107.665 97.3578 107.795 97.9259 108.038C98.494 108.282 98.9647 108.623 99.338 109.094C99.7114 109.548 99.9873 110.1 100.15 110.749L98.2505 111.074C98.1693 110.7 98.0233 110.392 97.796 110.132C97.5688 109.873 97.3091 109.678 96.9844 109.532C96.6598 109.402 96.3189 109.321 95.9618 109.321C95.6047 109.321 95.2801 109.369 94.9879 109.483C94.6958 109.597 94.4523 109.759 94.2575 109.954C94.0627 110.149 93.9816 110.392 93.9816 110.668C93.9816 110.928 94.0627 111.139 94.2088 111.301C94.3711 111.463 94.5659 111.593 94.7932 111.691C95.0204 111.788 95.2639 111.869 95.4911 111.934L97.374 112.453C97.6337 112.518 97.9259 112.616 98.2505 112.729C98.5751 112.843 98.8835 113.005 99.1757 113.216C99.4679 113.427 99.7114 113.703 99.9061 114.044C100.101 114.385 100.198 114.823 100.198 115.343C100.198 115.862 100.085 116.365 99.8575 116.771C99.6302 117.177 99.3218 117.518 98.9485 117.794C98.5589 118.07 98.1207 118.264 97.6337 118.411C97.1468 118.54 96.6273 118.622 96.0755 118.622L96.1242 118.638Z" fill="#003B43"/>
<path d="M76.2571 51.8117C73.7412 50.4807 70.5597 51.5358 70.089 54.847C69.9267 56.032 69.9592 57.2818 70.089 58.4829C70.2838 60.1386 71.1928 61.356 72.8484 61.8429C74.4878 62.3299 75.9649 62.0052 77.1498 60.6905C77.653 60.1223 77.929 59.4569 77.7666 58.6128H76.5817C76.5168 58.8887 76.4681 59.1322 76.3869 59.3757C76.2246 59.9113 75.9324 60.3496 75.413 60.6418C74.147 61.3397 72.6049 60.9502 71.9394 59.6679C71.6635 59.1485 71.5012 58.5316 71.4525 57.9311C71.3713 57.1033 71.42 56.2592 71.4525 55.4314C71.4525 54.6685 71.7122 53.9868 72.1505 53.37C72.7835 52.461 73.7087 52.2824 74.7151 52.4772C75.6565 52.6558 76.2571 53.2239 76.4356 54.1815C76.4681 54.3601 76.5655 54.5224 76.6304 54.7172H77.8316C77.929 53.3375 77.3608 52.3798 76.2571 51.7955M98.6082 61.8105H104.89V60.8853C103.234 60.7554 101.595 60.934 100.004 60.7879V57.0221H104.176V55.9184H100.037V52.6233C101.692 52.5584 103.283 52.6558 104.955 52.5584C104.922 52.1201 104.906 51.8117 104.89 51.5033H98.5433C98.5433 54.9769 98.527 58.3693 98.6082 61.8267M81.2078 56.3241C82.2466 56.2592 83.2205 56.2754 84.1457 56.1131C85.0872 55.9508 85.5092 55.2528 85.428 54.2789C85.3631 53.3862 84.8112 52.7207 83.9509 52.6558C83.0582 52.5908 82.1654 52.6558 81.2078 52.6558V56.3404V56.3241ZM85.3793 56.7949C86.548 57.4117 86.8726 58.3369 86.8564 59.4893C86.8564 60.2522 86.9538 60.9989 87.0187 61.8267C86.9051 61.8267 86.6941 61.8916 86.4831 61.8916C85.7851 61.8916 85.5741 61.6968 85.4929 60.9989C85.4442 60.5931 85.4929 60.1711 85.4442 59.749C85.4118 59.3595 85.3793 58.9861 85.2819 58.6128C85.1521 58.0285 84.7463 57.6389 84.1782 57.5091C83.2043 57.3143 82.2141 57.3954 81.1104 57.4279V61.7942H79.7469C79.6982 58.3856 79.6982 54.9769 79.6982 51.5358C80.0066 51.4871 80.1852 51.4384 80.3637 51.4384C81.5486 51.4384 82.7498 51.3897 83.9185 51.4708C85.8825 51.6007 86.9863 52.8505 86.8402 54.6685C86.759 55.6424 86.1422 56.2105 85.3469 56.7949M90.5735 56.2754C91.6772 56.2267 92.6836 56.4215 93.69 56.0969C94.4853 55.8534 94.7613 55.3827 94.745 54.3926C94.745 53.4674 94.3879 52.8668 93.625 52.7207C92.6349 52.5259 91.6123 52.5908 90.5735 52.6882V56.2754ZM90.5085 57.4279V61.8105H89.2912C89.0639 61.1287 88.9665 52.9155 89.1938 51.5358C89.421 51.5033 89.6645 51.4546 89.908 51.4546C90.8656 51.4546 91.8396 51.4384 92.7972 51.4546C93.2679 51.4546 93.7549 51.5358 94.2256 51.6494C95.3131 51.9416 95.9949 52.6395 96.2059 53.7757C96.4169 54.8957 96.0923 55.8047 95.1671 56.4864C95.0697 56.5514 94.9723 56.6325 94.7775 56.7786C96.141 57.4766 96.2546 58.694 96.2546 59.9763C96.2546 60.5769 96.3682 61.1774 96.4331 61.8105C96.4494 61.7942 96.4169 61.8429 96.352 61.8591C95.1021 61.9403 94.956 61.8429 94.81 60.6255C94.745 60.1548 94.7775 59.6679 94.7613 59.1809C94.6963 58.0609 94.1607 57.4928 93.0245 57.4279C92.2291 57.3792 91.45 57.4279 90.5248 57.4279M106.87 61.8105H108.071V54.2302C108.071 54.2302 108.185 54.214 108.25 54.1978C109.289 56.7299 110.344 59.2783 111.383 61.8105H112.389C113.412 59.3595 114.402 56.9409 115.392 54.5386L115.587 54.5873C115.587 55.8047 115.587 57.0221 115.587 58.2233C115.587 59.4244 115.538 60.6418 115.798 61.8267C116.025 61.8429 116.187 61.8754 116.333 61.8754C116.512 61.8754 116.69 61.8267 116.853 61.7942C117.129 60.6418 117.112 52.25 116.853 51.5033H115.213C114.126 54.2627 113.054 56.9896 111.983 59.7166C111.918 59.7166 111.853 59.7166 111.772 59.7166C111.236 58.3693 110.701 57.0059 110.165 55.6424C109.613 54.2465 109.061 52.8505 108.526 51.4871H106.74C106.497 52.9479 106.594 61.1287 106.838 61.7942M59.9442 14.5923H58.6943V19.2021H59.9442V14.5923ZM42.0406 22.7082C42.0406 21.085 42.0406 19.6079 42.0406 18.0984H40.6122C40.596 19.6729 40.5797 21.1824 40.6122 22.7082H42.0568H42.0406ZM58.6456 2.22374C58.6456 3.06779 58.6294 3.79823 58.6456 4.52866C58.6619 5.27532 58.5158 6.03819 58.7593 6.76862H61.1129V2.22374H58.6456ZM48.2573 18.8613H45.7414C45.709 20.4358 45.7252 21.9453 45.7414 23.4711H48.2573V18.8613ZM42.9333 11.2486C42.0406 11.2161 41.229 11.135 40.3525 11.3298C40.3525 12.1089 40.3525 12.8393 40.3525 13.5697C40.3525 14.3164 40.3687 15.0793 40.3849 15.8097H42.9333V11.2486ZM61.2914 8.32688H58.808V12.888H61.2914V8.32688ZM32.0905 22.7082C32.0905 21.1175 32.123 19.6079 32.0905 18.0659H29.4285V22.7082H32.1068H32.0905ZM29.3798 11.6544C29.3798 13.2126 29.3474 14.706 29.3961 16.2155H33.2267V11.6544H29.3636H29.3798ZM45.6603 13.2126V17.725C46.8289 17.9036 48.8417 17.8711 49.5396 17.6439V13.2126H45.6603ZM62.736 0.0486932C62.7847 0.519414 62.8659 1.00636 62.8659 1.47708C62.8659 6.10313 62.8334 10.713 62.8172 15.339C62.8172 15.7123 62.8172 16.0856 62.8172 16.5888H68.6931V36.5539C69.5858 36.7487 70.3974 36.911 71.3064 37.1057V36.3591C71.3064 35.2716 71.1441 34.1678 71.3226 33.0965C71.696 30.9214 73.0432 29.4119 75.0072 28.4542C77.1336 27.4316 79.406 27.0745 81.7272 26.9772C85.7202 26.8148 89.6807 27.2044 93.5926 27.9835C93.901 28.0484 94.2094 28.1458 94.5503 28.2432C94.5178 28.438 94.534 28.6166 94.4529 28.7464C91.5474 33.8269 87.8628 38.1446 82.6037 40.9202C81.2565 41.6344 79.8281 42.1214 78.3185 42.2837C76.2246 42.5109 74.358 41.9915 72.9296 40.3521C72.6861 40.0599 72.4913 39.7191 72.2965 39.3944C72.0531 39.0049 71.7771 38.664 71.1603 38.7939C72.2154 40.1411 73.2867 41.4234 74.2768 42.7544C75.2832 44.1179 76.1597 45.5787 76.8739 47.2831C76.0623 47.3967 75.3481 47.5103 74.6339 47.5752C72.2641 47.7863 69.8942 47.8512 67.5244 47.5752C65.5117 47.3642 63.5152 46.9746 61.681 46.0819C58.0775 44.3613 56.7952 41.537 57.201 37.755C57.2173 37.5602 57.2659 37.3817 57.3146 37.0733C56.9251 37.0408 56.5842 36.9921 56.2596 36.9759C53.2729 36.8947 50.2863 36.7811 47.2997 36.7486C43.68 36.7162 40.0441 36.7 36.4244 36.8298C33.7299 36.9272 31.0517 37.2681 28.3735 37.544C27.708 37.6089 27.0425 37.8037 26.4094 37.9985C26.0361 38.1121 25.7114 38.3718 25.257 38.6153C25.5329 39.0211 25.6952 39.3295 25.9225 39.573C27.7404 41.537 29.8505 43.1764 32.0418 44.686C32.1068 44.7347 32.2204 44.7347 32.3502 44.7509C32.3827 44.6211 32.4476 44.5074 32.4639 44.3776C32.6424 41.9915 34.0383 40.5144 36.1322 39.6379C37.9664 38.8588 39.9142 38.6315 41.8945 38.7776C44.313 38.9399 46.6504 39.4756 48.9066 40.3683C49.1339 40.4657 49.3611 40.5794 49.7182 40.7254C48.517 42.4785 47.0562 43.8906 45.5304 45.2379C43.9884 46.6013 42.2678 47.7051 40.2713 48.5004C41.3913 49.2309 42.5113 49.799 43.4365 50.5943C44.378 51.3897 45.1084 52.4123 46.0011 53.4186C46.1147 53.2239 46.2771 52.9966 46.3907 52.7531C47.7379 50.1236 49.9779 48.9387 52.8347 48.7115C55.4155 48.5167 57.8828 49.0523 60.2526 50.0587C62.6387 51.0488 64.8462 52.3636 66.8751 53.9381C67.0212 54.0517 67.1998 54.1491 67.4595 54.3276C64.0833 56.6325 60.6259 58.3206 56.8926 59.4082C57.9314 60.8366 58.954 62.1351 59.8468 63.5148C60.7233 64.8783 61.3077 66.3878 61.7784 68.011C58.8242 67.9623 56.0323 67.7188 53.3379 66.7611C52.4938 66.469 51.666 66.0794 50.9031 65.6087C48.7605 64.2777 47.8191 62.3299 48.2249 59.7977C47.3321 58.7102 46.4556 57.6227 45.4979 56.454C45.5953 58.0285 45.7901 59.5056 45.7252 60.9664C45.6603 62.4922 45.4168 64.018 45.1084 65.5275C44.8162 66.9884 44.3293 68.4168 43.68 69.8452C43.404 69.6991 43.193 69.6179 43.0307 69.4881C40.0603 66.9559 37.3821 64.1641 35.4018 60.7554C34.6389 59.4406 34.1195 58.0122 33.9085 56.5189C33.5514 54.0842 34.3954 52.0389 36.1809 50.3671C36.4082 50.1561 36.6354 49.9451 36.9113 49.6691C34.9311 48.5491 33.0157 47.4778 30.9543 46.3254C31.0192 49.4094 29.9804 51.9578 28.1462 54.3276C27.0911 52.9479 26.2309 51.5682 25.5978 50.0587C25.1109 48.9062 24.7375 47.7213 24.7538 46.439C24.7538 45.3515 25.0459 44.4263 25.7926 43.6309C25.9062 43.5173 25.9874 43.3874 26.0848 43.2576C26.101 43.2414 26.0848 43.1926 26.1172 43.0953C25.9874 42.9816 25.8413 42.8193 25.6628 42.6895C24.1207 41.5857 22.5787 40.4982 21.0529 39.362C20.6147 39.0373 20.2414 39.0211 19.7219 39.1834C18.5857 39.5567 17.4333 39.8165 16.297 40.1573C15.6965 40.3359 15.2582 40.1898 14.8524 39.7191C14.3817 39.1509 13.846 38.6478 13.1968 37.9823C13.8298 37.9173 14.3168 37.8686 14.7875 37.8037C17.3196 37.4304 19.868 37.0733 22.4002 36.6513C23.5851 36.4565 23.5851 36.3753 23.5851 35.2066C23.5851 28.6977 23.5689 22.1726 23.5526 15.6636C23.5526 14.2677 23.5526 14.2677 24.9486 14.2677C25.5329 14.2677 26.101 14.2677 26.6854 14.2677C27.5619 14.2677 28.0001 13.8132 28.0001 12.9042C28.0001 12.1089 28.0001 11.2973 28.0001 10.5019C28.0001 10.1935 28.0488 9.88513 28.0813 9.49557C28.4221 9.44687 28.6981 9.38193 28.974 9.38193C31.3763 9.38193 33.7949 9.38193 36.1972 9.38193C37.1386 9.38193 37.2522 9.49555 37.2684 10.4208C37.2684 12.6607 37.2684 14.917 37.2684 17.1569C37.2684 17.4978 37.3009 17.8549 37.3171 18.2282C37.5606 18.2769 37.7392 18.3581 37.934 18.3581C38.8592 18.3906 39.0052 18.2607 39.0052 17.3355C39.0052 13.9918 39.0052 10.6643 39.0052 7.32052C39.0052 6.73618 39.0052 6.16805 39.0052 5.58371C39.0215 4.82082 39.1676 4.6585 39.8818 4.64227C41.3913 4.62603 42.9009 4.62603 44.4104 4.64227C45.1084 4.64227 45.2545 4.8046 45.2707 5.51879C45.2869 6.76864 45.2707 8.01848 45.2707 9.26832C45.2707 9.64165 45.3519 10.015 45.4005 10.4532C45.8226 10.4857 46.1634 10.5344 46.5043 10.5344C48.4683 10.5344 50.4162 10.5344 52.3802 10.5344C53.3866 10.5344 53.4677 10.6155 53.4677 11.6381C53.4677 13.8457 53.4677 16.0694 53.4677 18.2769V19.3807C54.7825 19.7378 55.9999 19.5755 57.2984 19.4943C57.3309 18.9749 57.3633 18.5691 57.3633 18.1633C57.3633 12.5147 57.3633 6.86603 57.3633 1.21738C57.3633 0.811587 57.4607 0.405793 57.5257 0H62.736V0.0486932Z" fill="#003B43"/>
</svg>
