<svg width="112" height="123" viewBox="0 0 112 123" fill="none" xmlns="http://www.w3.org/2000/svg">
<path d="M23.6597 123C22.6696 123 21.8318 122.787 21.1158 122.36C20.4151 121.934 19.8667 121.324 19.5012 120.548C19.1203 119.771 18.9375 118.872 18.9375 117.867C18.9375 116.861 19.1203 115.947 19.5012 115.186C19.882 114.424 20.4151 113.815 21.1158 113.373C21.8165 112.946 22.6696 112.718 23.6597 112.718C24.8022 112.718 25.7466 113.007 26.5082 113.571C27.2699 114.134 27.8031 114.911 28.1077 115.871L26.4473 116.328C26.2493 115.688 25.9294 115.186 25.4724 114.82C25.0154 114.454 24.4061 114.272 23.6749 114.272C23.0047 114.272 22.4563 114.424 22.0146 114.713C21.5728 115.003 21.2377 115.429 21.0244 115.962C20.8112 116.496 20.6893 117.135 20.6893 117.851C20.6893 118.567 20.7959 119.207 21.0244 119.74C21.2529 120.273 21.5728 120.7 22.0146 120.989C22.4563 121.279 23.0047 121.431 23.6749 121.431C24.4061 121.431 25.0154 121.248 25.4724 120.883C25.9294 120.517 26.2645 120.014 26.4473 119.375L28.1077 119.832C27.8031 120.791 27.2699 121.568 26.5082 122.132C25.7466 122.695 24.8022 122.985 23.6597 122.985V123Z" fill="#003B43"/>
<path d="M30.4839 122.802V112.931H36.8665V114.485H32.1443V116.922H36.0439V118.476H32.1443V121.263H36.8665V122.817H30.4839V122.802Z" fill="#003B43"/>
<path d="M39.395 122.802V112.931H43.4774C43.5688 112.931 43.6907 112.931 43.843 112.931C43.9953 112.931 44.1324 112.946 44.2543 112.977C44.8332 113.068 45.2901 113.251 45.671 113.54C46.0365 113.83 46.3259 114.195 46.4935 114.652C46.6763 115.094 46.7677 115.597 46.7677 116.13C46.7677 116.937 46.5697 117.623 46.1584 118.202C45.7471 118.78 45.1226 119.131 44.2848 119.268L43.5841 119.329H41.0401V122.772H39.395V122.802ZM41.0401 117.806H43.4012C43.4926 117.806 43.5993 117.806 43.7059 117.806C43.8278 117.806 43.9191 117.775 44.0258 117.745C44.3 117.684 44.5133 117.562 44.6808 117.379C44.8484 117.196 44.955 117.013 45.0159 116.785C45.0769 116.572 45.1073 116.343 45.1073 116.145C45.1073 115.947 45.0769 115.719 45.0159 115.49C44.955 115.262 44.8332 115.064 44.6808 114.896C44.5285 114.729 44.3 114.607 44.0258 114.531C43.9344 114.5 43.8278 114.485 43.7059 114.485C43.5993 114.485 43.4926 114.485 43.4012 114.485H41.0401V117.821V117.806ZM45.0616 122.802L43.1118 118.78L44.7874 118.415L46.9201 122.802H45.0464H45.0616Z" fill="#003B43"/>
<path d="M51.8098 122.802V114.485H48.6108V112.931H56.6538V114.485H53.4549V122.802H51.8098Z" fill="#003B43"/>
<path d="M58.8018 122.802V112.931H60.4469V122.802H58.8018Z" fill="#003B43"/>
<path d="M63.4482 122.802V112.931H69.3891V114.576H65.0934V117.044H68.5665V118.689H65.0934V122.802H63.4482Z" fill="#003B43"/>
<path d="M71.6128 122.802V112.931H73.2579V122.802H71.6128Z" fill="#003B43"/>
<path d="M76.2441 122.802V112.931H82.6267V114.485H77.9045V116.922H81.8041V118.476H77.9045V121.263H82.6267V122.817H76.2441V122.802Z" fill="#003B43"/>
<path d="M85.1548 122.802V112.931H88.308C88.3842 112.931 88.5517 112.931 88.7955 112.931C89.0392 112.931 89.2829 112.946 89.5114 112.977C90.2883 113.083 90.9585 113.358 91.4917 113.815C92.04 114.272 92.4361 114.85 92.7255 115.551C92.9997 116.252 93.1368 117.029 93.1368 117.867C93.1368 118.704 92.9997 119.466 92.7255 120.182C92.4513 120.883 92.04 121.461 91.4917 121.918C90.9433 122.375 90.2883 122.65 89.5114 122.756C89.2829 122.787 89.0544 122.802 88.8107 122.802C88.567 122.802 88.3994 122.802 88.3232 122.802H85.17H85.1548ZM86.8304 121.248H88.2928C88.4298 121.248 88.6127 121.248 88.8107 121.248C89.024 121.248 89.2068 121.218 89.3743 121.187C89.8465 121.096 90.2121 120.898 90.5168 120.563C90.8062 120.228 91.0194 119.832 91.1565 119.359C91.2936 118.887 91.3698 118.4 91.3698 117.882C91.3698 117.364 91.2936 116.846 91.1565 116.374C91.0194 115.901 90.791 115.505 90.5015 115.186C90.2121 114.866 89.8313 114.668 89.3743 114.576C89.2068 114.546 89.024 114.515 88.8107 114.515C88.5974 114.515 88.4298 114.515 88.2928 114.515H86.8304V121.279V121.248Z" fill="#003B43"/>
<path d="M57.7663 10.749H54.6588L51.0486 22.2651L49.3577 16.8269H45.976L49.373 27.6575V27.688L45.8846 38.7927L40.7359 22.3717H37.3542L44.1786 44.2004L40.6902 55.3509L32.3274 28.5258H28.9609L39.1669 61.246C39.3802 61.9162 40.0048 62.3732 40.7055 62.3732C41.4062 62.3732 42.0307 61.9162 42.244 61.246L45.8846 49.6538L49.4948 61.246C49.7081 61.9162 50.3326 62.3732 51.0333 62.3732C51.7341 62.3732 52.3586 61.9162 52.5719 61.246L56.2125 49.6538L59.8227 61.246C60.0359 61.9162 60.6605 62.3732 61.3612 62.3732C62.0619 62.3732 62.6865 61.9162 62.8998 61.246L66.5099 49.6538L70.1506 61.246C70.3639 61.9162 70.9884 62.3732 71.6891 62.3732C72.3898 62.3732 73.0144 61.9162 73.2276 61.246L83.4336 28.5258H81.758H80.0824L71.6891 55.3509L68.2008 44.2156L75.0251 22.3869H71.6434L66.4947 38.7927L63.0216 27.688V27.6575L66.4185 16.8269H63.0368L61.346 22.2498L57.751 10.7338L57.7663 10.749ZM57.5073 11.0994L61.0413 22.3717L61.3765 23.4228L61.7116 22.3717L63.3263 17.1925H65.9768L62.717 27.5813V27.627L62.7017 27.688V27.8098L66.2053 38.9146L66.5404 39.9657L66.8755 38.9146L71.9481 22.7525H74.5986L67.9114 44.1395L67.8809 44.2461L67.9114 44.3527L71.3845 55.488L71.7196 56.539L72.0547 55.488L80.3719 28.9066H82.9919L72.923 61.1698C72.7554 61.703 72.268 62.0533 71.7196 62.0533C71.1712 62.0533 70.6838 61.703 70.5162 61.1698L66.8755 49.5776L66.5404 48.5265L66.2053 49.5776L62.5951 61.1698C62.4275 61.703 61.9401 62.0533 61.3917 62.0533C60.8433 62.0533 60.3559 61.703 60.1883 61.1698L56.5781 49.5776L56.243 48.5265L55.9079 49.5776L52.2672 61.1698C52.0996 61.703 51.6122 62.0533 51.0638 62.0533C50.5154 62.0533 50.028 61.703 49.8604 61.1698L46.2502 49.5776L45.9151 48.5265L45.58 49.5776L41.9393 61.1698C41.7718 61.703 41.2843 62.0533 40.7359 62.0533C40.1875 62.0533 39.7001 61.703 39.5325 61.1698L29.4636 28.8914H32.1142L40.416 55.4727L40.7512 56.539L41.0863 55.4727L44.5746 44.3375L44.6051 44.2309L44.5746 44.1242L37.8874 22.7525H40.5379L45.6104 38.9146L45.9456 39.9657L46.2807 38.8994L49.769 27.7946V27.7489L49.7842 27.688V27.5509L46.5092 17.1621H49.1597L50.7744 22.3412L51.1095 23.4075L51.4446 22.3412L54.9786 11.0689H57.5987" fill="#003B43"/>
<path d="M71.6884 60.7737V62.3884C70.9877 62.3884 70.3632 61.9314 70.15 61.2612L66.5093 49.669V44.2613L71.6884 60.7737Z" fill="#003B43"/>
<path d="M61.3611 60.7737V62.3884C60.6604 62.3884 60.0358 61.9314 59.8226 61.2612L56.2124 49.669V44.2309L61.3611 60.7737Z" fill="#003B43"/>
<path d="M51.0183 60.7737V62.3884C50.3176 62.3884 49.6931 61.9314 49.4798 61.2612L45.8696 49.669V44.2613L51.0183 60.7737Z" fill="#003B43"/>
<path d="M40.6747 60.7737V62.3884C39.974 62.3884 39.3495 61.9314 39.1362 61.2612L28.9302 28.541H30.6058L40.6747 60.7737Z" fill="#003B43"/>
<path d="M81.7731 28.5258L71.689 60.7737V55.3661L80.0975 28.5258H81.7731Z" fill="#003B43"/>
<path d="M49.3427 27.6727V27.7032L45.8696 38.808V38.8689V44.2156L50.1805 30.3537L51.0183 27.6727H49.3427Z" fill="#003B43"/>
<path d="M44.1636 44.2156L40.6753 55.3661V60.7738L45.0014 46.9423L45.8697 44.2461V44.2156H44.1636Z" fill="#003B43"/>
<path d="M56.182 11.1451L51.0181 27.6727V22.2955V22.2651L54.6435 10.749H56.182V11.1451Z" fill="#003B43"/>
<path d="M59.6851 27.7032V27.6118L56.1968 16.5528V11.2365L60.4924 24.9765L61.3607 27.7032H59.6851Z" fill="#003B43"/>
<path d="M73.3488 22.3869L66.5093 44.2461V38.8689V38.808L71.6732 22.3869H73.3488Z" fill="#003B43"/>
<path d="M65.6723 41.5347L64.8344 44.2156L61.3613 55.3661V60.7738L66.51 44.2461V44.2156L65.6723 41.5347Z" fill="#003B43"/>
<path d="M51.0183 27.6727H49.3427L45.9458 16.8422H47.6366L50.1805 24.9765L51.0183 27.6727Z" fill="#003B43"/>
<path d="M61.3613 27.7032L56.1821 44.2156L56.1974 38.808V38.7775L59.6857 27.7032H61.3613Z" fill="#003B43"/>
<path d="M54.5064 44.2156L51.0181 55.3661V60.7738L55.3442 46.9423L56.1668 44.2156H54.5064Z" fill="#003B43"/>
<path d="M64.7583 16.8422L61.3613 27.7032V22.2803V22.2651L63.0522 16.8422H64.7583Z" fill="#003B43"/>
<path d="M45.8698 44.2156H44.1636L37.3394 22.3869H39.0302L45.0015 41.5042V41.5346L45.8698 44.2156Z" fill="#003B43"/>
<path d="M54.5064 44.2156V44.1852L51.0181 33.1109V27.6727L55.3442 41.5346L56.1668 44.2156H54.5064Z" fill="#003B43"/>
<path d="M65.6723 41.5346L64.8344 44.2156L61.3613 33.0804V27.7032L65.6723 41.5346Z" fill="#003B43"/>
<path d="M51.033 31.9532L50.6979 33.0042L47.2095 44.109V44.1547L47.1943 44.2156V44.3375L50.6979 55.4422L51.033 56.4933L51.3681 55.4422L54.8565 44.307V44.2613L54.8717 44.2156V44.0785L51.3681 33.0042L51.033 31.9532ZM61.3761 31.9227L61.041 32.9738L57.5679 44.109L57.5374 44.2156L57.5679 44.3223L61.041 55.4575L61.3761 56.5085L61.7113 55.4575L65.1996 44.3223L65.23 44.2156L65.1996 44.109L61.7113 32.9738L61.3761 31.9227ZM56.2274 15.4103L55.8923 16.4613L52.4039 27.5661V27.6118L52.3887 27.6727V27.7946L55.8923 38.8689L56.2274 39.92L56.5625 38.8689L60.0509 27.7946V27.7489L60.0661 27.7032V27.5204L56.5625 16.4766L56.2274 15.4255V15.4103ZM51.0482 33.1109L54.5213 44.1852V44.2156L51.0482 55.3508L47.5599 44.2461V44.2156L51.0482 33.1109ZM61.3761 33.0804L64.8645 44.2156L61.3761 55.3508L57.8878 44.2156L61.3761 33.0804ZM56.2274 16.5527L59.7005 27.5966V27.6727L56.2274 38.747L52.7391 27.6727V27.6423L56.2274 16.5375V16.5527Z" fill="#003B43"/>
<path d="M56.1976 75.2145C76.6858 75.2145 93.3048 58.5955 93.3048 38.1073C93.3048 17.6191 76.6858 1 56.1976 1C35.7094 1 19.0903 17.6191 19.0903 38.1073C19.0903 58.5955 35.7094 75.2145 56.1976 75.2145Z" stroke="#003B43" stroke-width="0.75" stroke-miterlimit="10"/>
<path d="M0.642578 96.4034H3.04935C3.91762 98.6427 5.51709 99.5566 8.30471 98.8711C9.38624 98.6122 9.99555 97.8201 10.0108 96.8756C10.0108 95.855 9.35575 95.3371 8.56364 95.0477C7.48211 94.6516 6.33965 94.3775 5.24289 93.9814C4.52694 93.7377 3.81102 93.4635 3.17124 93.0674C1.1148 91.8183 0.657811 89.2135 2.16586 87.2942C3.71962 85.3291 5.83698 85.0245 8.06097 85.3901C10.1479 85.7404 11.5645 87.0504 12.2348 89.183C12.2652 89.2897 12.2653 89.3963 12.311 89.5943H9.98033C8.82263 87.675 7.20794 87.02 5.25813 87.7055C4.42033 87.9949 3.84146 88.5737 3.7653 89.5182C3.68913 90.4474 4.25274 91.011 4.99915 91.3156C5.92836 91.6965 6.88805 91.9707 7.83249 92.321C8.59413 92.5952 9.37101 92.8542 10.1174 93.1893C13.4686 94.7126 12.8441 98.597 10.681 100.181C7.10131 102.816 2.13536 101.126 0.79487 96.769C0.764404 96.6929 0.703478 96.6319 0.657779 96.571V96.4034H0.642578Z" fill="#003B43"/>
<path d="M13.7429 100.775V89.8837H15.7536C15.7993 90.3103 15.845 90.7368 15.8907 91.1938C18.3889 88.9088 20.6281 89.0459 22.517 91.6051C22.6693 91.4375 22.7912 91.2699 22.9283 91.1024C24.1622 89.6705 25.7007 89.3049 27.422 89.7771C29.0214 90.2189 29.7831 91.4527 29.9963 93.1131C30.042 93.4482 30.103 93.7834 30.103 94.1185C30.103 96.2968 30.103 98.4903 30.103 100.745H27.9856C27.9704 100.471 27.9399 100.166 27.9399 99.8765C27.9399 98.0638 27.9399 96.2359 27.9399 94.4231C27.9399 92.6104 27.224 91.6812 25.8073 91.5898C24.4211 91.5137 23.0806 92.7323 22.9892 94.3165C22.8978 96.0988 22.9435 97.8962 22.9283 99.6785C22.9283 100.014 22.9283 100.349 22.9283 100.76H20.7957C20.7957 99.8003 20.7957 98.8559 20.7957 97.9267C20.7957 96.769 20.7957 95.5961 20.7957 94.4384C20.7804 92.5952 20.0798 91.6812 18.6783 91.5898C17.2921 91.5137 15.9516 92.7323 15.8602 94.3013C15.7688 96.0531 15.8145 97.8201 15.7993 99.5871C15.7993 99.9527 15.7993 100.318 15.7993 100.76H13.7124L13.7429 100.775Z" fill="#003B43"/>
<path d="M58.7106 96.4034H61.0716C61.1326 96.4948 61.224 96.5862 61.2544 96.6776C61.9551 98.3532 63.1433 99.1758 64.8799 99.0844C65.5349 99.0539 66.2204 98.9016 66.8449 98.6579C67.5913 98.3837 67.9721 97.7439 68.0178 96.8909C68.0635 96.0531 67.6218 95.5199 66.9667 95.2305C66.1594 94.8649 65.2911 94.6364 64.4533 94.3165C63.4175 93.9357 62.3207 93.6615 61.3611 93.1284C58.9847 91.8031 58.6801 88.8479 60.569 86.8372C62.9148 84.339 69.2365 84.4456 70.3332 89.5943H68.0178C66.784 87.6293 65.1541 86.9895 63.2347 87.7359C62.3969 88.0558 61.8485 88.6499 61.7876 89.5943C61.7419 90.4778 62.3055 91.0415 63.0062 91.3156C64.1182 91.7574 65.2607 92.0925 66.3727 92.4886C66.982 92.7018 67.6066 92.9151 68.1854 93.2045C71.4757 94.7735 70.8207 98.5512 68.7795 100.12C65.672 102.497 60.706 101.354 59.1675 97.8353C58.9847 97.4088 58.8629 96.9366 58.6953 96.4034" fill="#003B43"/>
<path d="M39.7153 91.1938C39.761 90.6759 39.7762 90.295 39.8219 89.8837H41.8936V100.79H39.8219C39.7914 100.379 39.7762 99.9679 39.7457 99.4652C39.5934 99.5718 39.4868 99.6328 39.3954 99.7242C37.9787 101.171 36.3336 101.476 34.5361 100.745C32.7082 99.9984 31.7028 98.4599 31.5352 96.4491C31.4438 95.2762 31.52 93.9814 31.8856 92.8694C32.9823 89.5639 36.7296 88.589 39.304 90.813C39.4106 90.9043 39.5173 90.9957 39.7305 91.1785M39.761 95.3676C39.761 95.1086 39.7762 94.8497 39.761 94.6059C39.5934 92.976 38.649 91.8793 37.2019 91.6355C35.8004 91.407 34.5056 92.1382 33.9877 93.4939C33.5307 94.6973 33.5307 95.9464 33.9573 97.1498C34.4447 98.4903 35.7242 99.2367 37.08 99.0539C38.847 98.8254 39.7914 97.5306 39.7762 95.3676" fill="#003B43"/>
<path d="M103.281 96.0378C103.357 98.0181 105.292 99.6176 107.577 98.9016C107.927 98.795 108.369 98.6731 108.582 98.3837C109.374 97.3326 110.425 97.5459 111.461 97.6068C111.354 99.1453 108.932 101.43 105.931 101.08C102.748 100.714 100.722 97.9419 101.087 94.545C101.407 91.5594 103.997 89.3354 106.891 89.6248C110.151 89.9447 112.101 93.0217 111.674 96.0378H103.281ZM109.45 94.2099C109.1 92.4886 107.744 91.468 106.16 91.6203C104.698 91.7574 103.494 92.8846 103.418 94.2099H109.45Z" fill="#003B43"/>
<path d="M88.2171 89.6096C91.3246 89.6096 93.7314 92.123 93.7162 95.3676C93.7162 98.5665 91.3094 101.08 88.2476 101.095C85.1705 101.095 82.7485 98.5665 82.7485 95.3219C82.7485 92.1382 85.1706 89.6096 88.2171 89.6096ZM91.4922 95.3219C91.477 93.1436 90.0755 91.5746 88.2019 91.6051C86.3587 91.6355 84.9878 93.2198 84.9878 95.3371C84.9878 97.5154 86.3435 99.0844 88.2476 99.0996C90.1212 99.0996 91.5227 97.485 91.5074 95.3371" fill="#003B43"/>
<path d="M81.7124 93.5549H79.595C79.1228 92.6561 78.4982 91.8793 77.4472 91.7269C76.9597 91.6508 76.4113 91.6508 75.9391 91.7879C74.2178 92.2905 73.3038 94.3927 73.8217 96.5253C74.2787 98.3989 75.7563 99.3738 77.5691 98.993C78.5744 98.7797 79.2294 98.1095 79.6712 97.1498H81.621C81.621 99.0235 79.397 100.958 77.0663 101.11C74.2787 101.293 71.8719 99.2215 71.5521 96.373C71.156 92.8694 72.8316 90.2646 75.863 89.6857C78.4983 89.183 81.0878 90.8434 81.7124 93.5549Z" fill="#003B43"/>
<path d="M54.4754 91.9554C54.4754 93.9509 54.445 95.8398 54.4754 97.7439C54.4754 98.4142 54.9172 98.8254 55.5874 98.8407C56.2576 98.8407 56.9279 98.8407 57.6591 98.8407V100.79C56.608 100.79 55.5722 100.897 54.5821 100.76C53.3634 100.592 52.4952 99.5566 52.3885 98.1552C52.2667 96.4948 52.2971 94.8192 52.2666 93.1436C52.2666 92.778 52.2666 92.4276 52.2666 91.9859H50.6367C50.7738 91.2395 50.8957 90.5997 51.0328 89.899C51.4441 89.8533 51.7944 89.8076 52.2666 89.7619V87.4465H54.4449V89.8076H57.5829V91.9554H54.4754Z" fill="#003B43"/>
<path d="M43.8438 100.79V89.899H45.9306C45.9611 90.3864 46.0068 90.8434 46.0525 91.4832C47.1341 90.0056 48.4593 89.6248 50.1349 89.899C50.0131 90.5692 49.9064 91.2242 49.7846 91.9402H46.0068V100.79H43.8438Z" fill="#003B43"/>
<path d="M97.0366 100.821H94.9497V89.8837H96.9452C96.9757 90.3712 97.0061 90.8434 97.0366 91.6051C98.1181 89.9904 99.5043 89.64 101.21 89.899C101.073 90.5845 100.951 91.2242 100.799 91.9402H97.0214V100.806L97.0366 100.821Z" fill="#003B43"/>
</svg>
