<svg width="64" height="117" viewBox="0 0 64 117" fill="none" xmlns="http://www.w3.org/2000/svg">
<path d="M26.9025 5.50255H21.1889C21.1889 5.50255 21.1077 5.50255 21.059 5.50255C18.8515 5.58371 17.488 7.80747 18.608 9.75528C19.1599 10.6967 20.0689 11.1674 21.2213 11.1674C24.8248 11.1674 28.4282 11.1674 32.0317 11.1674C33.0867 11.1674 33.8658 11.6544 34.3366 12.4984C34.8073 13.3587 34.7911 14.2677 34.1905 15.1117C33.6386 15.8909 32.8433 16.1993 31.8856 16.2642C31.561 16.2804 31.2363 16.2804 30.9117 16.3941C29.2398 17.0109 28.3471 18.9911 29.5807 20.7117C30.0514 21.361 30.6844 21.7505 31.4798 21.8155C32.9082 21.9453 34.2879 21.7505 35.5864 21.1337C38.151 19.9163 39.8067 18.0172 40.4722 15.339C40.7481 14.2352 40.6994 13.1315 40.4722 12.0602C40.2449 10.9402 39.758 9.8689 39.0275 8.94369C37.2745 6.75241 34.9696 5.53501 32.0317 5.50255C30.3111 5.50255 28.5743 5.50255 26.8537 5.50255M28.6879 39.1347C28.5743 38.9237 28.4769 38.7127 28.3633 38.5179C26.3668 34.6872 24.3541 30.8728 22.3576 27.0421C20.3448 23.1789 18.3158 19.3158 16.3031 15.4526C14.8747 12.7094 13.3976 9.98253 12.0017 7.22313C11.4498 6.15184 10.0864 5.17792 8.4632 5.61618C7.45683 5.89212 6.74264 6.44398 6.43423 7.40166C6.1583 8.22948 6.25568 9.04107 6.6777 9.8202C8.20348 12.7094 9.69679 15.5987 11.2063 18.5042C13.2028 22.3349 15.1994 26.1656 17.1959 29.9963C19.1599 33.762 21.1402 37.544 23.1205 41.3098C24.9546 44.8158 26.8051 48.3219 28.6392 51.8279C28.8989 52.3311 29.1262 52.8505 29.4346 53.3375C30.1975 54.5386 32.0479 55.2366 33.6386 54.214C34.4664 53.6946 34.9534 52.9642 34.9859 51.974C35.0021 51.341 34.7911 50.7891 34.5151 50.2535C33.6224 48.5491 32.7296 46.861 31.8369 45.1567C31.7395 44.9782 31.5934 44.8158 31.5934 44.5724C33.1517 44.475 34.6125 44.7996 35.9435 45.5787C38.362 47.0071 39.6444 49.0848 39.7417 51.7793C39.7742 52.5908 39.6119 53.4024 39.3522 54.1653C38.9464 55.3665 38.216 56.3728 37.2583 57.2331C36.2844 58.1096 35.1157 58.7102 33.8009 58.9699C32.3888 59.2458 30.9766 59.2621 29.5645 58.7914C28.3471 58.3856 27.2758 57.785 26.4155 56.9085C24.9709 55.4638 24.2242 53.7108 24.2242 51.6981C24.2242 51.4708 24.2404 51.2436 24.1593 51.0164C23.6399 49.7827 22.601 48.89 21.0103 49.0361C19.3547 49.1822 18.2996 50.4158 18.2672 51.7468C18.2185 53.516 18.608 55.2204 19.3385 56.8436C20.0689 58.4667 21.1077 59.9113 22.455 61.145C25.052 63.531 28.201 64.6997 31.7882 64.8458C33.3464 64.9107 34.8398 64.5861 36.3168 64.1478C38.9302 63.3687 41.0241 61.8916 42.7446 59.9276C44.6275 57.7525 45.5527 55.2042 45.7475 52.4123C45.8611 50.7891 45.6014 49.1984 45.0495 47.6889C44.1405 45.2054 42.5985 43.1277 40.3748 41.537C39.1736 40.6768 37.8751 39.995 36.4305 39.5568C35.489 39.2646 34.5476 39.0373 33.5412 38.9724C32.5349 38.9075 31.5285 38.875 30.5059 38.9724C29.9215 39.0373 29.3372 39.2159 28.7366 39.151M31.8044 76.1918C32.7459 76.1918 33.7035 76.1593 34.645 76.0944C35.9435 75.9808 37.2096 75.7048 38.4594 75.4451C39.4009 75.2504 40.3099 74.9257 41.2188 74.6011C44.0594 73.5785 46.6565 72.1176 48.9289 70.2023C52.435 67.2643 54.9671 63.7258 56.4604 59.5056C57.1422 57.5902 57.5155 55.6424 57.6778 53.6459C57.7914 52.2175 57.7428 50.7729 57.6129 49.3282C57.4668 47.7213 57.1422 46.1631 56.6228 44.6373C56.0871 43.0303 55.3892 41.4883 54.5126 40.0112C52.8408 37.1869 50.6657 34.7846 47.9875 32.7719C45.1469 30.6293 41.9655 29.1197 38.4432 28.2757C37.7777 28.1134 37.1284 27.9673 36.4467 27.8699C35.9273 27.7887 35.3916 27.7563 34.8722 27.6751C33.8334 27.4966 32.8108 27.4641 31.772 27.4966C30.5708 27.529 29.2398 28.4705 29.0288 29.8989C28.7366 31.9116 30.5384 33.2101 31.9992 33.1614C33.7685 33.0803 35.5053 33.3887 37.2096 33.827C38.9139 34.2652 40.5209 34.9145 42.0466 35.7748C45.3092 37.6252 47.8251 40.1249 49.5782 43.3225C50.2437 44.5237 50.7144 45.7897 51.104 47.0883C51.4448 48.1758 51.6234 49.2796 51.6883 50.3995C51.7532 51.5358 51.737 52.6882 51.6234 53.8407C51.4448 55.5125 51.0553 57.1195 50.406 58.6615C49.2536 61.4047 47.5492 63.7583 45.2119 65.7223C42.8583 67.7026 40.18 69.131 37.1122 69.8776C35.6027 70.2347 34.0606 70.4945 32.4862 70.5269C31.8207 70.5432 31.1714 70.4457 30.5059 70.4295C29.3534 70.397 28.2334 70.186 27.1135 69.9588C25.6364 69.6504 24.2242 69.0823 22.877 68.4168C20.9454 67.4591 19.2411 66.2255 17.7315 64.7322C15.7512 62.7844 14.2904 60.5282 13.3327 57.9798C12.6348 56.0807 12.2614 54.1329 12.2614 52.1039C12.2614 51.5682 12.2127 51.0164 11.9043 50.5294C11.2551 49.523 10.3623 49.0036 9.06377 49.0036C7.68407 49.0036 6.19075 50.3671 6.27191 51.6656C6.33683 52.7045 6.30437 53.7433 6.40176 54.7821C6.54785 56.1618 6.90494 57.4766 7.31074 58.7914C7.94378 60.8528 8.88523 62.8006 10.0864 64.6348C11.6609 67.0209 13.6087 69.066 15.9136 70.8353C17.6341 72.1501 19.517 73.2214 21.546 74.0816C23.3477 74.8445 25.2468 75.3802 27.1784 75.7698C28.6879 76.0782 30.23 76.208 31.772 76.1593M63.6349 7.61268V52.6882C63.6349 52.6882 63.5213 52.7856 63.5213 52.8343C63.5213 54.3763 63.3427 55.9021 63.0018 57.4279C62.807 58.3206 62.596 59.2134 62.3201 60.0899C61.963 61.2586 61.541 62.4273 61.0216 63.5473C59.2361 67.4429 56.7202 70.8515 53.4251 73.7408C51.7532 75.2017 49.9353 76.484 47.9875 77.5877C45.5365 78.9674 42.9394 80.0225 40.18 80.7042C39.2061 80.9477 38.216 81.1262 37.2258 81.3048C35.9273 81.532 34.6125 81.6781 33.2977 81.7106C32.1128 81.7106 30.9117 81.6781 29.7268 81.6456C27.9088 81.597 26.1558 81.2399 24.3865 80.8828C23.3639 80.6717 22.3738 80.3309 21.3837 80.0062C19.5008 79.3894 17.7153 78.5941 16.011 77.6364C12.8945 75.8834 10.1675 73.7083 7.83016 71.0788C6.36931 69.4394 5.10322 67.6864 4.06439 65.8035C3.04179 63.9368 2.21396 62.0053 1.59716 59.9763C1.25629 58.8563 0.996584 57.7201 0.785572 56.5838C0.509632 55.1717 0.444719 53.7271 0.444719 52.2824C0.444719 37.6252 0.444719 22.9517 0.444719 8.27818C0.444719 8.19703 0.444719 8.11588 0.444719 8.03472C0.412256 5.95706 1.28878 4.20402 2.7334 2.72693C4.48643 0.92521 6.67769 0 9.30723 0C24.4352 0 39.5632 0 54.6912 0C55.7138 0 56.7526 0.113615 57.7265 0.486945C61.1027 1.73679 63.0343 4.05793 63.5213 7.4666C63.5213 7.54776 63.5537 7.62891 63.6511 7.66137" fill="#003B43"/>
<path d="M63.6504 116.349C63.4069 116.544 63.1472 116.625 62.8226 116.625C60.0632 116.625 57.3038 116.625 54.5444 116.625C53.8789 116.625 53.814 116.56 53.814 115.96C53.814 111.366 53.814 106.772 53.814 102.163C53.814 101.594 53.8789 101.53 54.5119 101.513C57.2876 101.513 60.0794 101.513 62.8713 101.513C63.1635 101.513 63.3907 101.627 63.6666 101.676V104.305C63.3582 104.467 63.0498 104.549 62.6927 104.532C61.0533 104.516 59.4302 104.532 57.7908 104.532H57.0928C56.9792 105.36 56.9954 107.048 57.1415 107.487C58.9919 107.487 60.8423 107.487 62.6927 107.487C63.0498 107.487 63.3582 107.551 63.6666 107.714V110.343C63.3095 110.538 62.92 110.506 62.5466 110.506C60.891 110.506 59.2354 110.506 57.5797 110.506C57.4174 110.506 57.2226 110.441 57.0603 110.571V113.606H57.7421C59.4302 113.606 61.102 113.606 62.7901 113.606C63.131 113.606 63.4232 113.671 63.6829 113.849V116.365L63.6504 116.349Z" fill="#003B43"/>
<path d="M44.0095 107.535C45.1295 107.535 46.1846 107.535 47.2397 107.535C47.4182 107.535 47.5967 107.487 47.7591 107.454C48.5869 107.292 48.9602 106.805 48.944 105.961C48.9277 105.165 48.4733 104.597 47.6455 104.565C46.4443 104.516 45.2269 104.565 44.0095 104.565V107.552V107.535ZM49.1225 110.295C49.8367 111.447 50.5509 112.583 51.2651 113.736C51.7034 114.434 52.1416 115.132 52.5799 115.846C52.8721 116.333 52.7097 116.609 52.1254 116.609C51.395 116.609 50.6645 116.609 49.9341 116.609C49.5445 116.609 49.3335 116.479 49.1388 116.171C48.2947 114.775 47.4182 113.395 46.5579 112.015C46.282 111.577 46.006 111.155 45.7463 110.717C45.6489 110.554 45.5516 110.457 45.3405 110.457C44.9023 110.457 44.464 110.457 44.0582 110.457C43.9284 110.7 43.9771 110.911 43.9771 111.122C43.9771 112.697 43.9771 114.255 43.9771 115.83C43.9771 116.511 43.8959 116.593 43.1817 116.593C42.5811 116.593 41.9806 116.593 41.3962 116.593C40.8768 116.593 40.7956 116.511 40.7632 116.008C40.7632 115.813 40.7632 115.635 40.7632 115.44C40.7632 111.252 40.7632 107.065 40.7632 102.893C40.7632 102.585 40.7632 102.26 40.7794 101.952C40.7794 101.659 40.958 101.481 41.2826 101.497C41.4125 101.497 41.5423 101.497 41.6884 101.497C43.4414 101.497 45.1782 101.497 46.9312 101.497C47.4994 101.497 48.0837 101.497 48.6518 101.627C50.8269 102.098 52.1254 103.542 52.2553 105.636C52.2877 106.269 52.2228 106.886 52.028 107.503C51.6547 108.704 50.8431 109.532 49.6582 110.051C49.4959 110.116 49.3173 110.149 49.155 110.295" fill="#003B43"/>
<path d="M30.3432 109.045C30.3432 109.791 30.3432 110.554 30.3432 111.301C30.3432 112.697 31.1548 113.573 32.5994 113.784C34.2388 114.028 35.6023 112.973 35.6347 111.415C35.6672 109.856 35.6347 108.282 35.6347 106.724C35.6347 106.107 35.44 105.539 34.9692 105.068C34.2388 104.338 32.9727 104.094 31.9014 104.5C30.8951 104.873 30.3432 105.652 30.327 106.74C30.327 107.519 30.327 108.282 30.327 109.061M27.1293 109.012C27.1293 108.185 27.1293 107.341 27.1293 106.513C27.1456 104.208 28.6551 101.659 32.3235 101.335C33.5084 101.237 34.6609 101.367 35.7484 101.87C37.6637 102.747 38.6863 104.256 38.7999 106.237C38.8973 108.136 38.8973 110.051 38.7999 111.95C38.6538 114.677 36.6411 116.447 34.044 116.787C32.6157 116.982 31.2522 116.852 29.9861 116.219C28.1682 115.31 27.2592 113.833 27.1456 111.918C27.0806 110.96 27.1456 110.002 27.1456 109.029" fill="#003B43"/>
<path d="M1.85643 111.334C2.21353 111.334 2.57062 111.334 2.91149 111.334C3.18743 111.334 3.36599 111.447 3.43091 111.723C3.43091 111.788 3.46337 111.837 3.49583 111.902C3.96655 113.801 6.06045 114.077 7.40769 113.606C7.91087 113.427 8.26798 113.103 8.33291 112.567C8.39783 111.983 8.20306 111.512 7.65118 111.187C7.24538 110.96 6.80712 110.847 6.35263 110.733C5.6222 110.554 4.908 110.376 4.16134 110.246C1.82397 109.824 0.395585 108.087 0.44428 105.62C0.492975 103.331 2.19731 101.773 4.40483 101.432C5.62221 101.237 6.82334 101.27 7.99203 101.659C9.9723 102.309 10.9787 103.705 11.352 105.587C11.4332 105.977 11.2384 106.188 10.8164 106.204C10.1022 106.221 9.4042 106.204 8.69001 106.204C8.3816 106.204 8.20304 106.074 8.08942 105.815C7.48884 104.467 5.86567 103.916 4.46974 104.565C3.96656 104.808 3.72309 105.198 3.69063 105.717C3.6744 106.285 3.88541 106.74 4.40483 107.032C4.68077 107.178 4.97293 107.259 5.28133 107.324C6.07669 107.503 6.87204 107.665 7.6674 107.86C8.23551 108.006 8.80363 108.185 9.32304 108.46C10.654 109.175 11.3682 110.262 11.5468 111.674C11.6279 112.34 11.6442 113.005 11.4494 113.671C11.0761 114.969 10.2158 115.878 8.901 116.365C7.00189 117.08 5.08656 117.063 3.23614 116.252C1.40195 115.44 0.476735 113.979 0.233259 112.113C0.152101 111.463 0.265736 111.366 0.931237 111.366C1.23964 111.366 1.54803 111.366 1.85643 111.366" fill="#003B43"/>
<path d="M13.9011 109.061C13.9011 108.201 13.8687 107.341 13.9011 106.48C13.9823 104.695 14.6965 103.185 16.3197 102.179C18.2837 100.945 21.3515 100.961 23.2993 102.228C24.744 103.169 25.4581 104.5 25.588 106.139C25.6205 106.643 25.4906 106.772 24.955 106.772C24.3382 106.772 23.7213 106.772 23.1045 106.772C22.5851 106.772 22.504 106.691 22.4066 106.221C22.1956 105.182 21.5138 104.565 20.4263 104.37C19.355 104.159 18.4136 104.403 17.6669 105.198C17.2611 105.652 17.1475 106.204 17.1313 106.772C17.1313 108.282 17.1313 109.791 17.1313 111.285C17.1313 112.242 17.4884 113.054 18.4623 113.492C19.4686 113.947 20.475 113.898 21.4165 113.33C21.9521 113.005 22.228 112.518 22.3741 111.95C22.5364 111.334 22.5364 111.317 23.2019 111.317C23.8025 111.317 24.4031 111.317 24.9874 111.317C25.4906 111.317 25.6205 111.447 25.588 111.918C25.4094 113.947 24.4031 115.489 22.3903 116.317C20.8483 116.95 19.2576 116.982 17.6669 116.495C15.3945 115.797 13.9986 113.963 13.9174 111.609C13.8849 110.749 13.9174 109.889 13.9174 109.029" fill="#003B43"/>
<path d="M50.4057 92.5209V91.336C50.4057 89.7128 50.4057 88.0734 50.4057 86.4502C50.4057 85.8821 50.4544 85.8334 51.0387 85.8334C51.5094 85.8334 51.9639 85.8334 52.4346 85.8334C52.743 85.8334 52.8729 85.9633 52.8891 86.2555C52.8891 86.3853 52.8891 86.4989 52.8891 86.6288V96.5951C52.8891 96.6925 52.8891 96.8061 52.8891 96.9035C52.8567 97.2606 52.7755 97.358 52.4184 97.3742C51.9152 97.3742 51.3958 97.3742 50.8926 97.3742C50.5355 97.3742 50.4219 97.1145 50.2758 96.8872C49.3019 95.2803 48.328 93.6734 47.3541 92.0502C47.0782 91.5795 46.786 91.125 46.4289 90.5244C46.4127 90.8166 46.3964 90.9951 46.3964 91.1574C46.3964 92.9592 46.3964 94.7609 46.3964 96.5464C46.3964 96.6925 46.3964 96.8385 46.3964 96.9846C46.3802 97.1956 46.2503 97.3417 46.0069 97.3417C45.455 97.3417 44.9031 97.3417 44.3512 97.3417C44.0915 97.3417 43.9454 97.1957 43.9292 96.9522C43.9292 96.8061 43.9292 96.66 43.9292 96.5139V86.5963C43.9292 86.4665 43.9292 86.3529 43.9292 86.223C43.9617 85.8659 44.0266 85.801 44.4324 85.7847C44.8706 85.7847 45.3251 85.801 45.7634 85.7847C46.153 85.7523 46.364 85.9146 46.5425 86.223C47.695 88.1384 48.8637 90.0699 50.0323 91.9853C50.1297 92.1476 50.1784 92.3261 50.4544 92.4885" fill="#003B43"/>
<path d="M63.5373 89.1609C63.5373 89.2908 63.5373 89.4369 63.5373 89.5667C63.4562 89.794 63.2451 89.8102 63.0504 89.8102C62.5796 89.8102 62.1251 89.794 61.6544 89.8102C61.3298 89.8102 61.1675 89.7128 61.0701 89.3719C60.7292 88.2033 59.5118 87.6839 58.2945 88.1221C57.5965 88.3818 57.142 88.8525 57.1258 89.5667C57.0933 90.914 57.0771 92.2774 57.1258 93.6409C57.1582 94.5823 57.9861 95.2154 59.0574 95.2478C60.1124 95.2803 60.9889 94.6148 61.1025 93.6571C61.1188 93.4624 61.1025 93.2513 61.1025 92.9916C60.502 92.9916 59.9339 92.9916 59.3658 92.9916C58.8301 92.9916 58.749 92.9267 58.749 92.4073C58.749 92.0177 58.749 91.6119 58.749 91.2224C58.749 90.8166 58.8301 90.7354 59.2521 90.7354C60.5344 90.7354 61.8167 90.7354 63.099 90.7354C63.2776 90.7354 63.4561 90.7354 63.5535 90.914C63.5535 91.8554 63.5535 92.7806 63.5698 93.7221C63.5211 94.1116 63.4724 94.5174 63.3263 94.8907C62.7095 96.4977 61.4434 97.3093 59.7066 97.5041C59.0087 97.5852 58.2945 97.5365 57.6127 97.3255C55.8597 96.8223 54.7235 95.4913 54.6585 93.7221C54.6099 92.2937 54.5936 90.8815 54.6585 89.4531C54.7559 87.3592 56.3791 85.8334 58.6029 85.6874C59.3333 85.6387 60.0637 85.6549 60.7617 85.8821C62.4011 86.4178 63.3101 87.5378 63.5535 89.1447" fill="#003B43"/>
<path d="M23.2502 91.6444V93.3325C23.2502 94.0954 23.5586 94.6797 24.3052 95.0043C25.0844 95.3452 25.8635 95.2803 26.5777 94.8258C26.9835 94.5661 27.1945 94.1603 27.2594 93.722C27.3081 93.4299 27.4704 93.3325 27.7464 93.3487C28.2171 93.3487 28.6716 93.3487 29.1423 93.3487C29.6942 93.3487 29.7266 93.3974 29.6779 93.9493C29.5643 95.5238 28.4119 96.8548 26.7562 97.3093C25.7498 97.5852 24.7435 97.6014 23.7534 97.3093C21.9841 96.8061 20.8479 95.4589 20.7992 93.7058C20.7505 92.2774 20.7342 90.8653 20.7992 89.4369C20.8803 87.3754 22.5035 85.8334 24.6786 85.6873C25.62 85.6224 26.529 85.6873 27.4055 86.0769C28.8339 86.7262 29.5481 87.8299 29.6942 89.2908C29.7429 89.7615 29.6617 89.8427 29.1585 89.8427C28.7203 89.8427 28.2658 89.8427 27.8275 89.8427C27.4704 89.8427 27.3406 89.7128 27.2432 89.3882C26.9185 88.2195 25.7986 87.6838 24.5649 88.0572C23.7858 88.3006 23.3313 88.7876 23.2826 89.5667C23.2339 90.2485 23.2826 90.9464 23.2826 91.6282H23.2664L23.2502 91.6444Z" fill="#003B43"/>
<path d="M0.460717 91.5795C0.460717 90.8977 0.428254 90.1998 0.460717 89.518C0.574339 87.3268 2.14882 85.8334 4.46996 85.7036C5.24908 85.6549 6.01198 85.7036 6.75864 85.9795C8.36558 86.5801 9.16092 87.7488 9.3557 89.3232C9.42063 89.7615 9.29078 89.8589 8.80383 89.8751C8.36557 89.8751 7.92733 89.8751 7.47284 89.8751C7.11574 89.8751 6.92094 89.7615 6.87225 89.4369C6.67747 88.1546 5.16792 87.7812 4.21025 88.0896C3.39866 88.3494 2.91171 88.9012 2.89548 89.7128C2.86301 90.9789 2.86301 92.2612 2.89548 93.5435C2.92794 94.5174 3.69085 95.1829 4.76214 95.2478C5.88213 95.2965 6.67747 94.7447 6.87225 93.9006C7.0021 93.3812 7.00212 93.3812 7.57023 93.3812C8.00848 93.3812 8.44673 93.3812 8.90122 93.3812C9.32324 93.3812 9.42065 93.4948 9.37195 93.8844C9.16094 95.4751 8.36558 96.6762 6.72617 97.2606C5.50879 97.6988 4.24271 97.6988 3.04156 97.2281C1.51577 96.6438 0.655496 95.5238 0.509411 93.9818C0.428252 93.2026 0.509411 92.3911 0.509411 91.5957H0.493188" fill="#003B43"/>
<path d="M15.1659 90.3783C15.3607 90.2485 15.4256 90.0537 15.5393 89.8752C16.2372 88.7065 16.9514 87.5702 17.6169 86.3853C17.8604 85.9471 18.1526 85.7847 18.6557 85.8334C19.0778 85.8659 19.4998 85.8334 19.9218 85.8334C20.4412 85.8334 20.5711 86.0282 20.3276 86.4665C19.9867 87.0508 19.6296 87.6352 19.2888 88.2033C18.4285 89.6154 17.5844 91.0276 16.7242 92.4398C16.5131 92.7969 16.3995 93.1539 16.3995 93.5597C16.4158 94.631 16.3995 95.7023 16.3995 96.7574C16.3995 97.3093 16.3346 97.3742 15.7665 97.3904C15.3607 97.3904 14.9711 97.3904 14.5653 97.3904C14.0135 97.3904 13.9323 97.3093 13.9323 96.7574C13.9323 95.7348 13.9161 94.7122 13.9323 93.6896C13.9323 93.2026 13.8349 92.7968 13.5752 92.3911C12.4227 90.4919 11.2865 88.5766 10.1341 86.6775C9.71205 85.9795 9.79319 85.8497 10.621 85.8497C11.0268 85.8497 11.4164 85.8821 11.8222 85.8497C12.2767 85.801 12.4877 86.012 12.6987 86.3529C13.4129 87.5703 14.1433 88.7876 14.8737 90.005C14.9549 90.1349 15.0036 90.3134 15.1822 90.3946" fill="#003B43"/>
<path d="M33.7354 95.0531H36.3487C36.9493 95.0531 37.5499 95.0531 38.1342 95.0531C38.5887 95.0531 38.6698 95.1667 38.6861 95.5725C38.6861 95.962 38.6861 96.3678 38.6861 96.7574C38.6861 97.293 38.6049 97.358 38.0368 97.3742C35.9916 97.3742 33.9302 97.3742 31.8687 97.3742C31.82 97.3742 31.7876 97.3742 31.7389 97.3742C31.3169 97.358 31.2357 97.2931 31.2032 96.9035C31.187 96.6762 31.187 96.449 31.187 96.2217V86.6288C31.187 86.5476 31.187 86.4665 31.187 86.3853C31.2032 85.8984 31.2682 85.8334 31.7551 85.8334C32.2421 85.8334 32.729 85.8334 33.216 85.8334C33.5244 85.8334 33.6542 85.9795 33.6542 86.2555C33.6542 86.4015 33.6542 86.5476 33.6542 86.6937C33.6542 89.2583 33.6542 91.8392 33.6542 94.4038C33.6542 94.5986 33.6055 94.8258 33.7354 95.0531Z" fill="#003B43"/>
<path d="M42.1597 91.5957C42.1597 93.3163 42.1597 95.0206 42.1597 96.7249C42.1597 97.3255 42.111 97.3742 41.4942 97.3742C41.0722 97.3742 40.6502 97.3742 40.2444 97.3742C39.8224 97.3742 39.7574 97.293 39.7412 96.8872C39.7412 96.7899 39.7412 96.6762 39.7412 96.5788V86.6126C39.7412 86.4827 39.7412 86.3691 39.7412 86.2392C39.7412 85.9633 39.8711 85.8172 40.1795 85.8172C40.6827 85.8172 41.1858 85.8172 41.7053 85.8172C42.1111 85.8172 42.1597 85.8821 42.176 86.2555C42.176 86.6937 42.176 87.132 42.176 87.5702V91.5795L42.1597 91.5957Z" fill="#003B43"/>
</svg>
