<svg width="142" height="60" viewBox="0 0 142 60" fill="none" xmlns="http://www.w3.org/2000/svg">
<g clip-path="url(#clip0_298_2991)">
<path d="M59.5705 3.71795C60.659 3.71795 61.2951 3.1339 61.2951 1.96581C61.2951 0.797717 60.659 0.170937 59.5705 0.170937H46.975C45.6886 0.170937 45.1655 0.712247 45.1655 1.96581V30.812C45.1655 32.0798 45.7027 32.6068 46.975 32.6068H59.5705C60.659 32.6068 61.2951 31.9658 61.2951 30.812C61.2951 29.6581 60.659 29.0598 59.5705 29.0598H48.742V18.1197H56.4181C57.5066 18.1197 58.0862 17.5356 58.0862 16.3675C58.0862 15.1994 57.4925 14.5726 56.4181 14.5726H48.742V3.71795H59.5705Z" fill="#003B43"/>
<path d="M95.7881 1.86609C95.3923 0.641023 94.9965 0.156693 93.8232 0.156693C92.6498 0.156693 92.254 0.641023 91.8582 1.86609L82.613 30.3276C82.4151 30.9544 82.1748 32.0228 83.7722 32.5356C85.1717 32.9915 85.8644 32.0798 86.0623 31.4957L88.1262 25.0712H99.5343L101.612 31.4957C101.81 32.0798 102.446 33.0769 103.987 32.5783C105.415 32.1083 105.245 30.9117 105.09 30.3846L95.8022 1.88034L95.7881 1.86609ZM89.3985 21.5242L93.8232 8.1339L98.2478 21.5242H89.3985Z" fill="#003B43"/>
<path d="M128.556 0.156693C127.326 0.156693 127.185 0.740738 126.436 1.96581L119.057 14.4729L111.677 1.96581C110.942 0.740738 110.801 0.156693 109.557 0.156693C108.313 0.156693 107.733 0.698003 107.733 1.96581V30.812C107.733 32.0798 108.285 32.6068 109.557 32.6068C110.829 32.6068 111.338 32.0798 111.338 30.812V8.61823L117.092 18.2051C117.53 18.9316 117.982 19.7151 119.057 19.7151C120.131 19.7151 120.583 18.9316 121.022 18.2051L126.789 8.61823V30.7977C126.789 32.0655 127.284 32.5926 128.556 32.5926C129.829 32.5926 130.38 32.0655 130.38 30.7977V1.96581C130.38 0.698003 129.843 0.156693 128.556 0.156693Z" fill="#003B43"/>
<path d="M78.6266 3.71795C79.7151 3.71795 80.3513 3.1339 80.3513 1.96581C80.3513 0.797717 79.7151 0.170937 78.6266 0.170937H66.0311C64.7447 0.170937 64.2075 0.712247 64.2075 1.96581V30.812C64.2075 32.0798 64.7447 32.6068 66.0311 32.6068H78.6266C79.7151 32.6068 80.3513 31.9658 80.3513 30.812C80.3513 29.6581 79.7151 29.0598 78.6266 29.0598H67.7982V18.1197H75.4742C76.5486 18.1197 77.1423 17.5356 77.1423 16.3675C77.1423 15.1994 76.5486 14.5726 75.4742 14.5726H67.7982V3.71795H78.6266Z" fill="#003B43"/>
<path d="M35.5245 17.9915C37.2492 17.6496 38.7335 16.7806 39.9068 15.4416C42.3383 12.6638 41.9848 8.90314 41.9848 8.90314C41.9848 3.7037 38.5638 0.213676 33.4747 0.213676C33.4747 0.213676 24.6678 0.227921 24.5547 0.256411C23.5369 0.356127 23.0986 0.897437 23.0986 2.03704V30.8974C23.0986 32.1652 23.6358 32.6923 24.9222 32.6923C26.2086 32.6923 26.6893 32.1652 26.6893 30.8974V18.1339H31.5098L39.0162 31.6809C39.6382 32.792 40.3733 33.0057 41.4901 32.3932C42.6068 31.7806 42.7765 31.0826 42.1686 29.9715L35.5245 18.0199V17.9915ZM26.7175 14.5442V3.76068H33.4889C36.613 3.76068 38.4083 5.64103 38.4083 8.90314C38.4083 8.90314 38.7759 11.2536 37.1926 13.1339C36.3444 14.1453 35.2277 14.5442 33.7999 14.5442H26.7317H26.7175Z" fill="#003B43"/>
<path d="M18.038 17.2792C17.515 16.7094 16.483 15.9687 16.3134 15.8689C16.4689 15.7122 16.6385 15.5556 16.794 15.3846C19.1972 12.7493 18.8721 8.84615 18.8721 8.84615C18.8579 3.64672 15.4511 0.156693 10.362 0.156693H1.79532C0.805774 0.156693 0 0.954413 0 1.92307V30.7265C0 31.7094 0.805774 32.4929 1.79532 32.4929H11.606C16.6951 32.4929 20.1019 29.0028 20.1019 23.8034C20.1019 23.8034 20.4554 19.943 18.0239 17.265M3.59064 3.7037H10.362C13.4861 3.7037 15.2673 5.58404 15.2673 8.84615C15.2673 8.84615 15.55 11.4103 14.0516 13.0769C13.1751 14.0456 12.0866 14.5584 10.6588 14.5584H3.59064V3.7037ZM16.5254 23.8177C16.5254 27.094 14.7301 28.9601 11.606 28.9601H3.59064V18.1054H11.917C13.3447 18.1054 14.4474 18.5897 15.3097 19.5869C16.5396 21.0114 16.5254 23.8177 16.5254 23.8177Z" fill="#003B43"/>
<path d="M133.32 4.31624C133.32 2.02279 135.172 0 137.816 0C139.993 0 142.014 1.82336 142.014 4.20228C142.014 6.72365 139.795 8.56125 137.717 8.56125C135.059 8.56125 133.32 6.63818 133.32 4.31624ZM137.83 8.0057C139.597 8.0057 141.406 6.49573 141.406 4.15954C141.406 2.49288 139.922 0.569801 137.59 0.569801C135.653 0.569801 133.9 2.06553 133.9 4.33048C133.9 6.1396 135.328 8.0057 137.83 8.0057ZM138.07 1.53846C139.046 1.53846 139.639 2.16524 139.639 3.16239C139.639 4.15954 139.159 4.74359 138.494 4.80057L139.456 6.52422C139.456 6.52422 139.526 6.62393 139.526 6.73789C139.526 6.98006 139.13 7.16524 138.947 6.85185L137.802 4.81482H136.854V6.7094C136.854 6.92308 136.77 7.02279 136.558 7.02279C136.346 7.02279 136.261 6.92308 136.261 6.7094V1.85185C136.261 1.63818 136.346 1.53846 136.558 1.53846H138.084H138.07ZM136.84 2.151V4.23077H138.254C138.763 4.23077 139.031 3.84615 139.031 3.17664C139.031 2.45014 138.579 2.151 138.226 2.151H136.826H136.84Z" fill="#003B43"/>
<path d="M26.1098 60C25.191 60 24.4135 59.8006 23.749 59.4017C23.0988 59.0029 22.5899 58.433 22.2506 57.7066C21.8972 56.9801 21.7275 56.1396 21.7275 55.1994C21.7275 54.2593 21.8972 53.4046 22.2506 52.6923C22.604 51.9801 23.0988 51.4103 23.749 50.9972C24.3993 50.5983 25.191 50.3846 26.1098 50.3846C27.0287 50.3846 27.8062 50.584 28.4706 50.9972C29.1209 51.396 29.6298 51.9658 29.9832 52.6923C30.3366 53.4188 30.5062 54.245 30.5062 55.1994C30.5062 56.1538 30.3366 56.9943 29.9832 57.7066C29.6298 58.433 29.135 58.9886 28.4706 59.4017C27.8203 59.8006 27.0287 60 26.1098 60ZM26.1098 58.547C26.7318 58.547 27.2407 58.4188 27.6507 58.1339C28.0606 57.8633 28.3716 57.4644 28.5695 56.9658C28.7816 56.4672 28.8806 55.8689 28.8806 55.1994C28.8806 54.5299 28.7816 53.9316 28.5695 53.433C28.3575 52.9345 28.0606 52.5499 27.6507 52.265C27.2407 51.9801 26.7318 51.8376 26.1098 51.8376C25.4878 51.8376 24.9789 51.9658 24.5831 52.2507C24.1731 52.5356 23.8763 52.9202 23.6642 53.4188C23.4522 53.9174 23.3532 54.5157 23.3532 55.1852C23.3532 55.8547 23.4522 56.453 23.6642 56.9516C23.8763 57.4501 24.1731 57.8348 24.5831 58.1197C24.993 58.4046 25.502 58.547 26.124 58.547H26.1098Z" fill="#003B43"/>
<path d="M36.3869 60C35.6518 60 35.0156 59.8576 34.4643 59.5584C33.913 59.2593 33.4748 58.8319 33.1638 58.2906C32.8528 57.7493 32.6973 57.1083 32.6973 56.3818V50.5983H34.2523V56.3533C34.2523 56.6952 34.3088 57.0085 34.4219 57.2792C34.535 57.5499 34.6905 57.792 34.9025 57.9772C35.1005 58.1624 35.3266 58.3191 35.5952 58.4046C35.8497 58.5043 36.1183 58.547 36.401 58.547C36.6837 58.547 36.9523 58.49 37.2068 58.3903C37.4612 58.2906 37.6874 58.1482 37.8853 57.9487C38.0832 57.7635 38.2387 57.5214 38.3518 57.2507C38.4649 56.9801 38.5215 56.6667 38.5215 56.3248V50.5556H40.0765V56.3533C40.0765 57.0798 39.921 57.7208 39.61 58.2621C39.299 58.8034 38.8607 59.2308 38.3094 59.5299C37.7581 59.8291 37.1078 59.9715 36.3869 59.9715V60Z" fill="#003B43"/>
<path d="M44.9818 59.8006V52.0228H42.0132V50.5698H49.4772V52.0228H46.5086V59.8006H44.9818Z" fill="#003B43"/>
<path d="M54.7641 60C54.0997 60 53.4918 59.886 52.9547 59.6439C52.4175 59.4017 51.9792 59.0741 51.6258 58.6325C51.2866 58.1909 51.0604 57.6781 50.9614 57.0655L52.5447 56.8234C52.6861 57.3647 52.9547 57.792 53.3787 58.0912C53.8028 58.3903 54.2835 58.547 54.8348 58.547C55.1599 58.547 55.4709 58.49 55.7537 58.3903C56.0364 58.2906 56.2767 58.1339 56.4605 57.9487C56.6443 57.7493 56.7291 57.5071 56.7291 57.2222C56.7291 57.094 56.7008 56.9801 56.6725 56.8661C56.6301 56.7521 56.5736 56.6667 56.4888 56.5812C56.4039 56.4957 56.305 56.4103 56.1636 56.339C56.0364 56.2678 55.8809 56.2108 55.7113 56.1538L53.3505 55.4416C53.1526 55.3846 52.9264 55.2991 52.6861 55.1994C52.4457 55.0997 52.2337 54.9573 52.0217 54.7863C51.8096 54.6154 51.64 54.3875 51.5127 54.1026C51.3855 53.8319 51.3148 53.49 51.3148 53.0769C51.3148 52.4786 51.4703 51.9801 51.7672 51.5812C52.0641 51.1823 52.474 50.8689 52.9688 50.6695C53.4777 50.4701 54.0432 50.3704 54.651 50.3704C55.273 50.3704 55.8385 50.4843 56.3333 50.698C56.828 50.9117 57.238 51.2108 57.5631 51.6239C57.8883 52.0228 58.1286 52.5071 58.2699 53.0769L56.616 53.3618C56.5453 53.0342 56.4181 52.7635 56.2202 52.5356C56.0223 52.3077 55.7961 52.1368 55.5133 52.0085C55.2306 51.8946 54.9338 51.8234 54.6228 51.8234C54.3117 51.8234 54.029 51.8661 53.7746 51.9658C53.5201 52.0655 53.3081 52.208 53.1384 52.3789C52.9688 52.5499 52.8981 52.7635 52.8981 53.0057C52.8981 53.2336 52.9688 53.4188 53.096 53.5613C53.2374 53.7037 53.407 53.8177 53.6049 53.9031C53.8028 53.9886 54.0149 54.0598 54.2128 54.1168L55.8526 54.5727C56.0788 54.6296 56.3333 54.7151 56.616 54.8148C56.8987 54.9145 57.1673 55.057 57.4218 55.2422C57.6762 55.4274 57.8883 55.6695 58.0579 55.9687C58.2275 56.2678 58.3123 56.6524 58.3123 57.1083C58.3123 57.5641 58.2134 58.0057 58.0155 58.3618C57.8176 58.718 57.549 59.0171 57.2238 59.2593C56.8846 59.5014 56.5029 59.6724 56.0788 59.8006C55.6547 59.9145 55.2023 59.9858 54.7217 59.9858L54.7641 60Z" fill="#003B43"/>
<path d="M62.8646 59.8006V52.0228H59.896V50.5698H67.36V52.0228H64.3914V59.8006H62.8646Z" fill="#003B43"/>
<path d="M67.8403 59.8006L70.7241 50.5698H72.9718L75.8556 59.8006H74.2724L71.6571 51.5242H71.9964L69.4094 59.8006H67.8262H67.8403ZM69.4519 57.8063V56.3675H74.2582V57.8063H69.4519Z" fill="#003B43"/>
<path d="M77.8633 59.8006V50.5698H79.4183L83.6733 57.0798V50.5698H85.2283V59.8006H83.6733L79.4183 53.2906V59.8006H77.8633Z" fill="#003B43"/>
<path d="M87.9141 59.8006V50.5698H90.8403C90.911 50.5698 91.0665 50.5698 91.2927 50.5698C91.5188 50.5698 91.745 50.584 91.9571 50.6125C92.678 50.7122 93.3 50.9687 93.7948 51.396C94.3037 51.8234 94.6713 52.3647 94.9399 53.0199C95.1943 53.6752 95.3215 54.4017 95.3215 55.1852C95.3215 55.9687 95.1943 56.6809 94.9399 57.3504C94.6854 58.0057 94.3037 58.547 93.7948 58.9744C93.2859 59.4017 92.678 59.6581 91.9571 59.7578C91.745 59.7863 91.533 59.8006 91.3068 59.8006C91.0806 59.8006 90.9251 59.8006 90.8544 59.8006H87.9282H87.9141ZM89.4691 58.3476H90.8262C90.9534 58.3476 91.123 58.3476 91.3068 58.3476C91.5047 58.3476 91.6743 58.3191 91.8298 58.2906C92.2681 58.2051 92.6073 58.0199 92.8901 57.7066C93.1587 57.3932 93.3566 57.0228 93.4838 56.5812C93.611 56.1396 93.6817 55.6838 93.6817 55.1994C93.6817 54.7151 93.611 54.2308 93.4838 53.7892C93.3566 53.3476 93.1445 52.9772 92.8759 52.6781C92.6073 52.3789 92.2539 52.1937 91.8298 52.1083C91.6743 52.0798 91.5047 52.0513 91.3068 52.0513C91.1089 52.0513 90.9534 52.0513 90.8262 52.0513H89.4691V58.3761V58.3476Z" fill="#003B43"/>
<path d="M97.7671 59.8006V50.5698H99.2938V59.8006H97.7671Z" fill="#003B43"/>
<path d="M102.079 59.8006V50.5698H103.634L107.889 57.0798V50.5698H109.444V59.8006H107.889L103.634 53.2906V59.8006H102.079Z" fill="#003B43"/>
<path d="M115.961 60C115.367 60 114.816 59.9003 114.292 59.6866C113.769 59.4729 113.317 59.1595 112.921 58.7607C112.525 58.3618 112.229 57.849 112.002 57.2507C111.776 56.6524 111.677 55.9687 111.677 55.1994C111.677 54.188 111.861 53.3333 112.243 52.6068C112.61 51.8946 113.133 51.339 113.769 50.9544C114.406 50.5698 115.155 50.3846 115.961 50.3846C117.091 50.3846 117.982 50.6553 118.646 51.1823C119.311 51.7094 119.749 52.4501 119.989 53.4046L118.42 53.661C118.251 53.1197 117.968 52.6781 117.572 52.3504C117.176 52.0228 116.682 51.8661 116.06 51.8661C115.438 51.8661 114.929 51.9943 114.533 52.265C114.123 52.5499 113.826 52.9345 113.614 53.433C113.402 53.9316 113.303 54.5299 113.303 55.1994C113.303 55.8689 113.402 56.4672 113.614 56.9658C113.826 57.4644 114.123 57.849 114.533 58.1339C114.943 58.4188 115.452 58.5613 116.074 58.5613C116.54 58.5613 116.936 58.4758 117.289 58.3048C117.643 58.1339 117.926 57.8633 118.138 57.5214C118.364 57.1652 118.505 56.7237 118.576 56.1966H116.964V54.9858H120.201C120.201 54.9858 120.216 55.1567 120.216 55.2849C120.216 55.4131 120.216 55.4986 120.216 55.5271C120.216 56.396 120.046 57.1795 119.707 57.849C119.367 58.5328 118.873 59.0598 118.237 59.4444C117.6 59.8291 116.837 60.0142 115.946 60.0142L115.961 60Z" fill="#003B43"/>
</g>
<defs>
<clipPath id="clip0_298_2991">
<rect width="142" height="60" fill="white"/>
</clipPath>
</defs>
</svg>
