<svg width="118" height="125" viewBox="0 0 118 125" fill="none" xmlns="http://www.w3.org/2000/svg">
<g clip-path="url(#clip0_298_2880)">
<path d="M60.3774 10.8736L64.0714 22.3686L64.4216 23.4404L64.7719 22.3686L66.4597 17.0871H69.2302L65.8228 27.6811V27.7277L65.8069 27.7899V27.9141L69.469 39.2382L69.8193 40.3101L70.1696 39.2382L75.4717 22.7569H78.2422L71.2523 44.5663L71.2205 44.675L71.2523 44.7838L74.8985 56.1389L75.2488 57.2108L75.5991 56.1389L84.2927 29.0326H87.0313L76.5067 61.933C76.3315 62.4767 75.822 62.834 75.2488 62.834C74.6756 62.834 74.1661 62.4767 73.9909 61.933L70.1855 50.1118L69.8352 49.0245L69.4849 50.1118L65.7114 61.933C65.5362 62.4767 65.0267 62.834 64.4535 62.834C63.8803 62.834 63.3708 62.4767 63.1956 61.933L59.4221 50.1118L59.0718 49.0245L58.7215 50.1118L54.9161 61.933C54.7409 62.4767 54.2314 62.834 53.6582 62.834C53.085 62.834 52.5755 62.4767 52.4003 61.933L48.6268 50.1118L48.2765 49.0245L47.9262 50.1118L44.1207 61.933C43.9456 62.4767 43.4361 62.834 42.8629 62.834C42.2897 62.834 41.7802 62.4767 41.605 61.933L31.0804 29.017H33.8509L42.5285 56.1234L42.8788 57.2108L43.2291 56.1234L46.8753 44.7682L46.9071 44.6595L46.8753 44.5508L39.8854 22.7569H42.6559L47.958 39.2382L48.3083 40.3101L48.6586 39.2382L52.3048 27.9141V27.8675L52.3207 27.8054V27.6811L48.8974 17.0871H51.6679L53.3557 22.3686L53.706 23.4559L54.0562 22.3686L57.7502 10.8736H60.4729M60.7436 10.5319H57.4955L53.7219 22.2754L51.9545 16.7298H48.4198L51.9704 27.7743V27.8054L48.3242 39.1295L42.9425 22.3997H39.4078L46.5409 44.6595L42.8947 56.0302L34.1375 28.6753H30.6187L41.2866 62.0418C41.5095 62.7252 42.1623 63.1913 42.8947 63.1913C43.6272 63.1913 44.28 62.7252 44.5029 62.0418L48.3083 50.2206L52.0819 62.0418C52.3048 62.7252 52.9576 63.1913 53.69 63.1913C54.4225 63.1913 55.0753 62.7252 55.2982 62.0418L59.1036 50.2206L62.8772 62.0418C63.1001 62.7252 63.7529 63.1913 64.4853 63.1913C65.2178 63.1913 65.8706 62.7252 66.0935 62.0418L69.8671 50.2206L73.6725 62.0418C73.8954 62.7252 74.5482 63.1913 75.2806 63.1913C76.0131 63.1913 76.6659 62.7252 76.8888 62.0418L87.5567 28.6753H85.8053H84.0538L75.2806 56.0302L71.6344 44.675L78.7676 22.4152H75.2329L69.8511 39.145L66.2049 27.8209V27.7899L69.7556 16.7454H66.2209L64.4535 22.2754L60.6958 10.5319H60.7436Z" fill="#003B43"/>
<path d="M75.2007 61.5291V63.1757C74.4683 63.1757 73.8154 62.7097 73.5925 62.0262L69.7871 50.205V44.6906L75.2007 61.5291Z" fill="#003B43"/>
<path d="M64.4057 61.5291V63.1757C63.6732 63.1757 63.0204 62.7097 62.7975 62.0262L59.0239 50.205V44.6595L64.4057 61.5291Z" fill="#003B43"/>
<path d="M53.5946 61.5291V63.1757C52.8622 63.1757 52.2094 62.7097 51.9865 62.0262L48.2129 50.205V44.6906L53.5946 61.5291Z" fill="#003B43"/>
<path d="M42.7834 61.5291V63.1757C42.051 63.1757 41.3982 62.7097 41.1753 62.0262L30.5073 28.6597H32.2588L42.7834 61.5291Z" fill="#003B43"/>
<path d="M85.7412 28.6597L75.2007 61.5447V56.0302L83.9898 28.6597H85.7412Z" fill="#003B43"/>
<path d="M51.8432 27.7899V27.8209L48.2129 39.145V39.1916V44.6595L52.7189 30.5238L53.5946 27.7899H51.8432Z" fill="#003B43"/>
<path d="M46.4294 44.6595L42.7832 56.0147V61.5291L47.3051 47.4245L48.2127 44.6906V44.6595H46.4294Z" fill="#003B43"/>
<path d="M58.9919 10.9358L53.5942 27.7899V22.2909V22.2754L57.3837 10.5319H58.9919V10.9358Z" fill="#003B43"/>
<path d="M62.654 27.8209V27.7277L59.0078 16.4502V11.0134L63.4979 25.0404L64.4055 27.8209H62.654Z" fill="#003B43"/>
<path d="M76.9362 22.3997L69.7871 44.6906V39.2072V39.145L75.1848 22.3997H76.9362Z" fill="#003B43"/>
<path d="M68.9118 41.9256L68.036 44.6595L64.4058 56.0302V61.5447L69.7875 44.6906V44.6595L68.9118 41.9256Z" fill="#003B43"/>
<path d="M53.5946 27.7899H51.8432L48.2925 16.7454H50.0599L52.7189 25.0404L53.5946 27.7899Z" fill="#003B43"/>
<path d="M64.4058 27.8209L58.9922 44.6595L59.0081 39.145V39.114L62.6543 27.8209H64.4058Z" fill="#003B43"/>
<path d="M57.2404 44.6595L53.5942 56.0147V61.5291L58.1162 47.4245L58.976 44.6595H57.2404Z" fill="#003B43"/>
<path d="M67.9564 16.7298L64.4058 27.8209V22.2909V22.2754L66.1731 16.7298H67.9564Z" fill="#003B43"/>
<path d="M48.2129 44.6595H46.4296L39.2964 22.3997H41.0638L47.3053 41.8945V41.91L48.2129 44.6595Z" fill="#003B43"/>
<path d="M57.2404 44.6595V44.6284L53.5942 33.3199V27.7899L58.1162 41.91L58.976 44.6595H57.2404Z" fill="#003B43"/>
<path d="M68.9118 41.9256L68.036 44.6595L64.4058 33.3043V27.8209L68.9118 41.9256Z" fill="#003B43"/>
<path d="M59.0238 16.4658L62.67 27.7277V27.8054L59.0238 39.0984L55.3776 27.8054V27.7743L59.0238 16.4502V16.4658ZM64.4215 33.3199L68.0677 44.675L64.4215 56.0302L60.7753 44.675L64.4215 33.3199ZM53.6262 33.3509L57.2565 44.644V44.675L53.6262 56.0302L49.98 44.7061V44.675L53.6262 33.3509ZM59.0398 15.3007L58.6895 16.3726L55.0433 27.6967V27.7433L55.0273 27.8054V27.9297L58.6895 39.2227L59.0398 40.2945L59.39 39.2227L63.0363 27.9297V27.8831L63.0522 27.8209V27.6345L59.39 16.3726L59.0398 15.3007ZM64.4374 32.1393L64.0871 33.2111L60.4568 44.5663L60.425 44.675L60.4568 44.7838L64.0871 56.1389L64.4374 57.2108L64.7877 56.1389L68.4339 44.7838L68.4657 44.675L68.4339 44.5663L64.7877 33.2111L64.4374 32.1393ZM53.6262 32.1704L53.2759 33.2422L49.6297 44.5663V44.6129L49.6138 44.675V44.7993L53.2759 56.1234L53.6262 57.1952L53.9765 56.1234L57.6227 44.7682V44.7216L57.6386 44.675V44.5352L53.9765 33.2422L53.6262 32.1704Z" fill="#003B43"/>
<path d="M10.3972 89.8938C9.93544 92.1461 9.48961 94.1811 9.07563 96.2315C8.6935 98.1266 8.31137 100.037 7.92923 101.932C7.81777 102.492 7.57894 102.833 6.89428 102.787C5.97079 102.725 5.03138 102.74 4.10788 102.787C3.5506 102.802 3.264 102.631 3.13662 102.072C2.10168 97.3189 1.05081 92.5656 0.0158586 87.8122C-0.0319082 87.6258 0.0158586 87.4084 0.0158586 87.1287C0.79605 87.1287 1.52847 87.0821 2.2609 87.1598C2.48381 87.1753 2.81818 87.5171 2.86595 87.7501C3.72575 91.7267 4.53778 95.7034 5.36574 99.68C5.41351 99.8975 5.4772 100.115 5.54089 100.332C5.6205 100.332 5.70011 100.332 5.77972 100.332C6.00263 99.2451 6.24147 98.1577 6.46438 97.0703C7.10127 93.9325 7.70632 90.7947 8.35913 87.6724C8.4069 87.455 8.78903 87.1753 9.02787 87.1598C10.015 87.0977 11.0022 87.1598 11.9894 87.1287C12.7378 87.0977 12.6581 87.6724 12.7378 88.0452C13.4065 91.1054 14.0115 94.1811 14.6644 97.2567C14.8873 98.2975 15.1261 99.3227 15.349 100.363C15.4286 100.363 15.5082 100.363 15.5878 100.363C15.8108 99.2761 16.0655 98.1888 16.2725 97.1014C16.8935 93.9947 17.5304 90.8879 18.1195 87.7656C18.215 87.253 18.422 87.1132 18.9156 87.1443C19.5525 87.1753 20.1894 87.1443 20.9855 87.1443C20.6989 88.5423 20.4441 89.8161 20.1735 91.0899C19.3933 94.7403 18.5812 98.3907 17.8488 102.057C17.7214 102.647 17.4826 102.802 16.9412 102.787C16.0496 102.771 15.142 102.74 14.2504 102.802C13.5339 102.849 13.2791 102.523 13.1517 101.901C12.3556 98.0334 11.5277 94.1811 10.7156 90.3287C10.7156 90.251 10.6201 90.1889 10.4131 89.9093" fill="#003B43"/>
<path d="M59.5018 97.9558C60.4093 97.9558 61.1895 97.9092 61.9379 97.9868C62.1449 98.0024 62.4155 98.313 62.5111 98.5305C63.5779 101.14 67.2718 101.296 69.087 100.037C70.0582 99.3693 70.0105 97.7694 68.9596 97.2101C68.052 96.7286 67.033 96.48 66.0458 96.1383C64.8676 95.7189 63.6256 95.4238 62.5111 94.8801C60.0909 93.715 59.454 90.9811 61.0781 88.8841C62.6862 86.8025 65.0109 86.5074 67.4151 86.7715C69.7079 87.02 71.4435 88.185 72.2237 90.4219C72.3192 90.6704 72.367 90.9345 72.4625 91.2762C71.6505 91.2762 70.918 91.3228 70.1856 91.2607C69.9149 91.2452 69.5328 91.0122 69.4532 90.7947C68.8641 89.1326 65.4408 88.4491 63.7212 89.8937C62.7021 90.7326 62.7658 92.0529 63.96 92.6432C65.1223 93.218 66.428 93.5286 67.654 93.9791C68.5775 94.3053 69.5169 94.6005 70.3926 95.0043C73.2268 96.3092 73.1472 99.8043 71.2046 101.575C70.2175 102.476 69.0233 102.942 67.7336 103.097C64.2625 103.532 61.2373 102.678 59.8202 99.1829C59.6928 98.8567 59.6291 98.4994 59.4858 97.9713" fill="#003B43"/>
<path d="M55.6804 92.6432C55.6804 91.0588 55.7281 89.6141 55.6644 88.154C55.6326 87.3928 55.8396 87.0821 56.6835 87.1132C58.3872 87.1753 58.2279 86.9423 58.2279 88.62C58.2279 92.985 58.212 97.3499 58.2598 101.715C58.2598 102.616 57.9573 102.911 57.0975 102.787C57.0656 102.787 57.0338 102.787 57.0019 102.787C56.1421 102.864 55.3778 102.818 55.8077 101.358C54.5021 102.523 53.2443 103.066 51.7476 103.004C49.0089 102.911 46.6843 100.643 46.5569 97.9868C46.4614 95.983 46.6524 94.0879 48.2447 92.5966C50.2031 90.7481 53.1487 90.6704 55.2664 92.3947C55.3619 92.4723 55.4575 92.5189 55.6804 92.6588M55.6485 97.148C55.6485 96.8529 55.6645 96.5422 55.6485 96.247C55.5212 94.8645 54.5499 93.6995 53.308 93.451C51.6839 93.1092 50.2031 93.6684 49.5503 95.0354C48.8975 96.4334 48.8816 97.8936 49.6618 99.2761C49.9165 99.7111 50.3464 100.13 50.8082 100.379C52.9099 101.544 55.76 100.301 55.6485 97.148Z" fill="#003B43"/>
<path d="M45.4102 99.1829C45.1555 101.264 42.2258 103.33 39.0413 102.958C35.6499 102.569 33.2775 99.5713 33.771 96.2315C34.2965 92.6743 37.2421 90.919 40.0444 91.1209C44.3275 91.4316 46.1586 95.1442 45.5217 97.8781H36.4141C36.4619 99.913 38.6273 100.907 40.0285 100.767C41.0794 100.659 42.0347 100.301 42.7831 99.4781C42.99 99.2451 43.4836 99.214 43.8658 99.1829C44.3753 99.1363 44.9007 99.1829 45.4261 99.1829M42.9741 95.8898C42.6716 94.2587 41.4933 93.3888 39.6623 93.3888C37.9745 93.3888 36.7485 94.3519 36.4619 95.8898H42.9741Z" fill="#003B43"/>
<path d="M117.937 97.8936H108.813C108.813 99.5247 110.612 100.969 112.38 100.783C113.446 100.674 114.386 100.301 115.15 99.5091C115.325 99.3227 115.644 99.214 115.898 99.1829C116.535 99.1363 117.172 99.1829 117.841 99.1829C117.395 101.529 114.227 103.408 111.122 102.911C107.921 102.414 105.645 99.4004 106.138 96.2781C106.743 92.3947 109.88 90.8568 112.491 91.1209C116.297 91.5093 118.398 94.2121 117.937 97.8781M115.341 95.8587C115.055 94.1966 113.717 93.2646 111.838 93.3733C110.198 93.4665 108.988 94.5073 108.893 95.8587H115.341Z" fill="#003B43"/>
<path d="M98.145 97.1635C98.145 100.472 95.4382 102.989 91.9194 102.973C88.6553 102.973 85.9167 100.348 85.9485 97.1325C85.9804 93.6218 88.4324 91.183 92.0149 91.1054C95.5337 91.0277 98.1609 93.715 98.145 97.1635ZM92.1423 93.4044C89.8336 93.2801 88.6553 94.8956 88.5439 96.9771C88.4324 99.0742 90.0405 100.767 92.0627 100.798C93.9893 100.829 95.5178 99.214 95.5656 97.148C95.6133 94.8645 93.9097 93.218 92.1582 93.4044" fill="#003B43"/>
<path d="M84.9614 98.8257C84.4678 101.218 82.2546 102.895 79.723 102.989C75.9494 103.129 73.5451 100.301 73.577 97.0548C73.5929 94.1034 75.424 91.9442 77.6212 91.3695C80.5828 90.5772 83.4329 91.5869 84.7544 94.4607C84.8659 94.7247 84.9296 95.0044 85.041 95.3772C84.5474 95.3772 84.1812 95.3461 83.815 95.3772C82.987 95.4548 82.4616 95.2529 81.9362 94.4917C80.7738 92.7675 77.7805 93.016 76.7296 94.8956C75.9335 96.3247 75.9176 97.8626 76.7774 99.2761C78.0352 101.342 80.6942 101.233 81.9362 99.6955C82.6527 98.7946 83.3692 98.7791 84.2767 98.7946C84.4837 98.7946 84.6907 98.8257 84.9614 98.8412" fill="#003B43"/>
<path d="M101.839 93.6218V102.756C101.09 102.756 100.39 102.787 99.7052 102.725C99.546 102.725 99.2912 102.383 99.2753 102.196C99.2434 98.6237 99.2594 95.0665 99.2594 91.416H101.791C101.823 91.8665 101.839 92.2859 101.871 92.9073C103.065 91.385 104.577 91.1986 106.361 91.4626C106.265 92.0529 106.233 92.6743 106.058 93.249C106.01 93.4199 105.596 93.5908 105.358 93.6063C104.227 93.6374 103.097 93.6218 101.839 93.6218Z" fill="#003B43"/>
<path d="M29.3927 93.6218V102.771C28.6762 102.771 28.087 102.833 27.5298 102.74C27.2909 102.694 26.9088 102.336 26.9088 102.119C26.877 98.5771 26.877 95.0354 26.877 91.416H29.2812C29.2971 91.851 29.329 92.317 29.3608 93.0471C30.5709 91.4161 32.1313 91.2141 34.0101 91.4316C33.8828 92.0219 33.7872 92.6898 33.5802 93.3112C33.5325 93.4665 33.1663 93.6063 32.9274 93.6063C31.8288 93.6374 30.7142 93.6063 29.3927 93.6063" fill="#003B43"/>
<path d="M24.616 91.4316H22.3232V102.74H24.616V91.4316Z" fill="#003B43"/>
<path d="M22.0525 88.3404C22.0525 87.5016 22.6098 86.9113 23.4378 86.8957C24.2657 86.8802 24.9504 87.5171 24.9822 88.3248C25.0141 89.086 24.2498 89.8005 23.4378 89.785C22.6098 89.7539 22.0366 89.1792 22.0366 88.3404" fill="#003B43"/>
<path d="M58.9922 76.2707C80.4077 76.2707 97.7789 59.3234 97.7789 38.4305C97.7789 17.5376 80.4236 0.590286 58.9922 0.590286C37.5609 0.590286 20.2056 17.5221 20.2056 38.4149C20.2056 59.3078 37.5768 76.2551 58.9922 76.2551V76.2707Z" stroke="#003B43" stroke-width="0.75" stroke-miterlimit="10"/>
<path d="M24.9979 125C23.963 125 23.0872 124.783 22.3389 124.348C21.6065 123.913 21.0333 123.291 20.6511 122.499C20.2531 121.707 20.062 120.79 20.062 119.765C20.062 118.74 20.2531 117.808 20.6511 117.031C21.0492 116.239 21.6065 115.633 22.3389 115.183C23.0713 114.748 23.963 114.515 24.9979 114.515C26.1921 114.515 27.1793 114.81 27.9754 115.385C28.7715 115.959 29.3288 116.752 29.6472 117.73L27.9117 118.196C27.7047 117.544 27.3703 117.031 26.8927 116.658C26.415 116.286 25.7781 116.099 25.0138 116.099C24.3133 116.099 23.7401 116.255 23.2783 116.55C22.8166 116.86 22.4663 117.28 22.2434 117.823C22.0205 118.367 21.8931 119.02 21.8931 119.75C21.8931 120.48 22.0045 121.132 22.2434 121.676C22.4822 122.219 22.8166 122.654 23.2783 122.95C23.7401 123.245 24.3133 123.4 25.0138 123.4C25.7781 123.4 26.415 123.214 26.8927 122.841C27.3703 122.468 27.7206 121.955 27.9117 121.303L29.6472 121.769C29.3288 122.748 28.7715 123.54 27.9754 124.115C27.1793 124.689 26.1921 124.984 24.9979 124.984V125Z" fill="#003B43"/>
<path d="M32.1309 124.798V114.732H38.7864V116.317H33.8505V118.802H37.9266V120.386H33.8505V123.229H38.7864V124.814H32.1309V124.798Z" fill="#003B43"/>
<path d="M41.4458 124.798V114.732H45.713C45.8085 114.732 45.9359 114.732 46.0951 114.732C46.2543 114.732 46.3976 114.748 46.525 114.779C47.1301 114.872 47.6077 115.058 48.0058 115.354C48.3879 115.649 48.6904 116.021 48.8656 116.488C49.0566 116.938 49.1522 117.451 49.1522 117.994C49.1522 118.818 48.9452 119.517 48.5153 120.107C48.0854 120.697 47.4326 121.054 46.5569 121.194L45.8244 121.256H43.1654V124.767H41.4458V124.798ZM43.1654 119.703H45.6334C45.7289 119.703 45.8403 119.703 45.9518 119.703C46.0792 119.703 46.1747 119.672 46.2862 119.641C46.5728 119.579 46.7957 119.454 46.9708 119.268C47.146 119.082 47.2574 118.895 47.3211 118.662C47.3848 118.445 47.4167 118.212 47.4167 118.01C47.4167 117.808 47.3848 117.575 47.3211 117.342C47.2574 117.109 47.1301 116.907 46.9708 116.736C46.8116 116.565 46.5728 116.441 46.2862 116.363C46.1906 116.332 46.0792 116.317 45.9518 116.317C45.8403 116.317 45.7289 116.317 45.6334 116.317H43.1654V119.719V119.703ZM47.3689 124.798L45.3308 120.697L47.0823 120.324L49.3114 124.798H47.353H47.3689Z" fill="#003B43"/>
<path d="M54.4223 124.798V116.317H51.0786V114.732H59.4856V116.317H56.1419V124.798H54.4223Z" fill="#003B43"/>
<path d="M61.7305 124.798V114.732H63.4501V124.798H61.7305Z" fill="#003B43"/>
<path d="M66.5869 124.798V114.732H72.7966V116.41H68.3065V118.926H71.9368V120.604H68.3065V124.798H66.5869Z" fill="#003B43"/>
<path d="M75.1211 124.798V114.732H76.8407V124.798H75.1211Z" fill="#003B43"/>
<path d="M79.9614 124.798V114.732H86.6169V116.317H81.681V118.802H85.7571V120.386H81.681V123.229H86.6169V124.814H79.9614V124.798Z" fill="#003B43"/>
<path d="M89.2764 124.798V114.732H92.5564C92.636 114.732 92.8111 114.732 93.0659 114.732C93.3206 114.732 93.5754 114.748 93.8142 114.779C94.6262 114.888 95.3268 115.167 95.8841 115.633C96.4573 116.099 96.8713 116.689 97.1738 117.404C97.4604 118.119 97.6196 118.911 97.6196 119.765C97.6196 120.619 97.4763 121.396 97.1738 122.126C96.8872 122.841 96.4573 123.431 95.8841 123.897C95.3109 124.363 94.6262 124.643 93.8142 124.751C93.5754 124.783 93.3365 124.798 93.0818 124.798C92.827 124.798 92.6519 124.798 92.5723 124.798H89.2923H89.2764ZM91.0278 123.214H92.5564C92.6997 123.214 92.8907 123.214 93.0977 123.214C93.3047 123.214 93.5117 123.183 93.6868 123.151C94.1645 123.058 94.5626 122.856 94.881 122.515C95.1835 122.173 95.4064 121.769 95.5657 121.287C95.709 120.806 95.7886 120.309 95.7886 119.781C95.7886 119.253 95.709 118.724 95.5657 118.243C95.4224 117.761 95.1835 117.357 94.881 117.031C94.5785 116.705 94.1804 116.503 93.7028 116.41C93.5276 116.379 93.3365 116.348 93.1136 116.348C92.8907 116.348 92.7156 116.348 92.5723 116.348H91.0437V123.245L91.0278 123.214Z" fill="#003B43"/>
</g>
<defs>
<clipPath id="clip0_298_2880">
<rect width="118" height="125" fill="white"/>
</clipPath>
</defs>
</svg>
