<svg width="86" height="97" viewBox="0 0 86 97" fill="none" xmlns="http://www.w3.org/2000/svg">
<g clip-path="url(#clip0_298_3011)">
<path d="M0 96.8013V86.8981H6.39468V88.4569H1.64827V90.9022H5.55528V92.461H1.64827V95.2578H6.37942V96.8166H0V96.8013Z" fill="#003B43"/>
<path d="M8.92822 96.8013V86.8981H13.0184C13.1099 86.8981 13.232 86.8981 13.3847 86.8981C13.5373 86.8981 13.6746 86.9133 13.7967 86.9439C14.3767 87.0356 14.8345 87.219 15.2161 87.5094C15.5823 87.7997 15.8723 88.1665 16.0402 88.625C16.2233 89.0682 16.3149 89.5726 16.3149 90.1074C16.3149 90.6423 16.2233 91.1467 16.0402 91.5899C15.8571 92.0331 15.5823 92.3999 15.2008 92.7055C14.8345 92.9959 14.3614 93.1946 13.7967 93.271C13.6746 93.2863 13.522 93.3016 13.3694 93.3168C13.2168 93.3321 13.0947 93.3168 13.0031 93.3168H10.5765V96.7708H8.92822V96.8013ZM10.5765 91.7886H12.9421C13.0336 91.7886 13.1405 91.7886 13.2473 91.7886C13.3694 91.7886 13.461 91.758 13.5678 91.7274C13.8425 91.6663 14.0562 91.544 14.2241 91.3606C14.3919 91.1772 14.4988 90.9939 14.5598 90.7646C14.6209 90.5507 14.6514 90.3214 14.6514 90.1227C14.6514 89.9241 14.6209 89.6948 14.5598 89.4656C14.4988 89.2363 14.3767 89.0377 14.2241 88.8695C14.0714 88.7014 13.8425 88.5792 13.5678 88.5028C13.4762 88.4722 13.3694 88.4569 13.2473 88.4569C13.1405 88.4569 13.0336 88.4569 12.9421 88.4569H10.5765V91.8038V91.7886Z" fill="#003B43"/>
<path d="M22.9538 97C21.9618 97 21.1224 96.786 20.4051 96.3581C19.703 95.9302 19.1536 95.3189 18.7873 94.5395C18.4058 93.76 18.2227 92.8584 18.2227 91.8497C18.2227 90.841 18.4058 89.9241 18.7873 89.1599C19.1689 88.3958 19.703 87.7845 20.4051 87.3413C21.1071 86.9133 21.9618 86.6841 22.9538 86.6841C24.0984 86.6841 25.0447 86.9745 25.8078 87.5399C26.5708 88.1054 27.105 88.8848 27.4102 89.8476L25.7467 90.3061C25.5483 89.6642 25.2278 89.1599 24.7699 88.7931C24.3121 88.4263 23.7016 88.243 22.9691 88.243C22.2975 88.243 21.7481 88.3958 21.3055 88.6861C20.8629 88.9765 20.5272 89.4044 20.3135 89.9393C20.0999 90.4742 19.9778 91.1161 19.9778 91.8344C19.9778 92.5527 20.0846 93.1946 20.3135 93.7295C20.5424 94.2644 20.8629 94.6923 21.3055 94.9827C21.7481 95.273 22.2975 95.4259 22.9691 95.4259C23.7016 95.4259 24.3121 95.2425 24.7699 94.8757C25.2278 94.5089 25.5636 94.0046 25.7467 93.3627L27.4102 93.8212C27.105 94.784 26.5708 95.5634 25.8078 96.1289C25.0447 96.6943 24.0984 96.9847 22.9538 96.9847V97Z" fill="#003B43"/>
<path d="M32.8892 96.8013V86.8981H36.9793C37.0709 86.8981 37.193 86.8981 37.3456 86.8981C37.4982 86.8981 37.6356 86.9133 37.7729 86.9439C38.3529 87.0356 38.8107 87.219 39.1923 87.5094C39.5585 87.7997 39.8485 88.1665 40.0164 88.625C40.1843 89.0835 40.2911 89.5726 40.2911 90.1074C40.2911 90.9174 40.0927 91.6052 39.6806 92.1859C39.2686 92.7667 38.6428 93.1182 37.8034 93.2557L37.1014 93.3168H34.5527V96.7708H32.9044L32.8892 96.8013ZM34.5374 91.7886H36.903C36.9946 91.7886 37.1014 91.7886 37.2082 91.7886C37.3151 91.7886 37.4219 91.758 37.5287 91.7274C37.8034 91.6663 38.0171 91.544 38.1697 91.3606C38.3223 91.1772 38.4444 90.9939 38.5055 90.7646C38.5665 90.5507 38.6123 90.3214 38.6123 90.1227C38.6123 89.9241 38.5818 89.6948 38.5055 89.4656C38.4444 89.2363 38.3223 89.0377 38.1697 88.8695C38.0171 88.7014 37.8034 88.5792 37.5287 88.5028C37.4372 88.4722 37.3303 88.4569 37.2082 88.4569C37.0861 88.4569 36.9946 88.4569 36.903 88.4569H34.5374V91.8038V91.7886ZM38.5665 96.8013L36.613 92.7667L38.2918 92.3999L40.4285 96.8013H38.5513H38.5665Z" fill="#003B43"/>
<path d="M42.382 96.8013L45.4954 86.8981H47.922L51.0354 96.8013H49.3261L46.5026 87.922H46.8689L44.076 96.8013H42.3667H42.382ZM44.1218 94.6617V93.1182H49.3108V94.6617H44.1218Z" fill="#003B43"/>
<path d="M54.7592 96.8013V88.4569H51.5542V86.8981H59.6124V88.4569H56.4074V96.8013H54.7592Z" fill="#003B43"/>
<path d="M61.7642 96.8013V86.8981H63.4124V96.8013H61.7642Z" fill="#003B43"/>
<path d="M66.4189 96.8013V86.8981H68.0977L72.6915 93.8823V86.8981H74.3703V96.8013H72.6915L68.0977 89.8171V96.8013H66.4189Z" fill="#003B43"/>
<path d="M81.406 97C80.7651 97 80.1698 96.893 79.6052 96.6638C79.0405 96.4345 78.5521 96.0983 78.1248 95.6704C77.6974 95.2425 77.3769 94.6923 77.1328 94.0504C76.8886 93.4085 76.7817 92.675 76.7817 91.8497C76.7817 90.7646 76.9801 89.8476 77.3922 89.0682C77.789 88.3041 78.3384 87.708 79.0405 87.2954C79.7425 86.8828 80.5361 86.6841 81.406 86.6841C82.627 86.6841 83.5885 86.9745 84.3058 87.5399C85.0231 88.1054 85.4962 88.9001 85.7556 89.9241L84.0616 90.1991C83.8785 89.6184 83.5732 89.1446 83.1459 88.7931C82.7186 88.4416 82.1844 88.2735 81.5129 88.2735C80.8566 88.2735 80.2919 88.4111 79.8646 88.7014C79.422 89.0071 79.1015 89.4197 78.8726 89.9546C78.6589 90.4895 78.5368 91.1314 78.5368 91.8497C78.5368 92.568 78.6437 93.2099 78.8726 93.7448C79.1015 94.2797 79.422 94.6923 79.8646 94.9979C80.3072 95.3036 80.8566 95.4564 81.5281 95.4564C82.0318 95.4564 82.4591 95.3647 82.8407 95.1813C83.2222 94.9979 83.5274 94.7076 83.7564 94.3408C84.0005 93.9587 84.1532 93.485 84.2447 92.9195H82.5049V91.6205H85.9998C85.9998 91.6205 86.0151 91.8038 86.0151 91.9414C86.0151 92.0789 86.0151 92.1706 86.0151 92.2012C86.0151 93.1334 85.832 93.974 85.4657 94.6923C85.0994 95.4259 84.5652 95.9913 83.8785 96.404C83.1917 96.8166 82.3675 97.0153 81.406 97.0153V97Z" fill="#003B43"/>
<path d="M13.7661 67.5959L35.6973 0H49.8144L71.7455 67.5959H61.5812L41.3746 5.91445H43.9081L23.9457 67.5959H13.7661ZM25.1514 52.3436V43.1434H60.406V52.3436H25.1514Z" fill="#003B43"/>
</g>
<defs>
<clipPath id="clip0_298_3011">
<rect width="86" height="97" fill="white"/>
</clipPath>
</defs>
</svg>
