<svg width="120" height="119" viewBox="0 0 120 119" fill="none" xmlns="http://www.w3.org/2000/svg">
<g clip-path="url(#clip0_298_2923)">
<path d="M7.24514 41.4202L2.65514 40.0597L2.52014 40.5132L5.82014 41.4958C6.06014 41.5563 6.45014 41.6319 6.45014 41.6319C6.45014 41.6319 5.98514 41.7528 5.71514 41.8435L1.72514 43.204L1.59014 43.6424L6.18014 45.0029L6.31514 44.5494L3.01514 43.5668C2.77514 43.4912 2.38514 43.4156 2.38514 43.4156C2.38514 43.4156 2.83514 43.2947 3.12014 43.204L7.12514 41.8435L7.26014 41.4051L7.24514 41.4202ZM39.3451 101.963C45.8101 105.032 52.7551 106.604 59.9701 106.604C86.3251 106.604 107.775 85.2743 107.775 59.0465C107.775 47.5577 103.605 36.477 96.0301 27.815L92.5801 30.8082C99.4351 38.6236 103.2 48.6612 103.2 59.0465C103.2 82.7649 83.8051 102.054 59.9551 102.054C53.4301 102.054 47.1451 100.648 41.3101 97.8666L39.3301 101.978L39.3451 101.963ZM50.4901 110.792L50.1451 106.997L49.6651 106.922L50.1601 111.819L50.7151 111.91L52.1251 108.736C52.2451 108.448 52.3951 108.055 52.3951 108.055C52.3951 108.055 52.3951 108.464 52.4401 108.781L52.8301 112.228L53.3851 112.318L55.3801 107.814L54.9001 107.738L53.3851 111.245C53.2951 111.472 53.2051 111.729 53.2051 111.729C53.2051 111.729 53.2051 111.457 53.1751 111.2L52.7401 107.39L52.2901 107.315L50.7301 110.822C50.6251 111.049 50.5501 111.306 50.5501 111.306C50.5501 111.306 50.5501 111.033 50.5201 110.792M60.1951 112.303L57.8401 112.243L57.8851 110.474L59.7001 110.519V110.096L57.8851 110.051L57.9301 108.312L60.1501 108.373V107.95L57.4651 107.874L57.3451 112.636L60.1651 112.711V112.288L60.1951 112.303ZM63.3451 112.182L63.0301 107.859L62.5651 107.889L62.9251 112.636L65.6101 112.439L65.5801 112.031L63.3601 112.197L63.3451 112.182ZM68.4451 111.608L67.7101 107.33L67.2451 107.405L68.0551 112.092L70.7101 111.638L70.6351 111.215L68.4451 111.593V111.608ZM78.4351 108.04C78.6301 108.584 78.4051 109.038 77.8501 109.234L76.6951 109.628L76.0801 107.859L77.2351 107.466C77.7601 107.284 78.2551 107.511 78.4351 108.04ZM77.5351 106.045C77.7001 106.513 77.5051 106.937 77.0401 107.103L75.9451 107.481L75.4051 105.924L76.5001 105.546C76.9801 105.38 77.3851 105.576 77.5351 106.045ZM77.7601 107.043C78.0451 106.74 78.1501 106.317 77.9851 105.848C77.7451 105.153 77.0851 104.896 76.3651 105.138L74.8201 105.682L76.3951 110.187L77.9851 109.628C78.7501 109.355 79.1851 108.69 78.9001 107.889C78.7051 107.345 78.2551 107.012 77.7451 107.043M84.0451 105.198C84.4051 105.954 84.1501 106.619 83.4001 106.982C82.6651 107.345 81.9601 107.133 81.6001 106.393L80.2351 103.611L79.8001 103.808L81.1651 106.604C81.6301 107.557 82.6051 107.844 83.5801 107.375C84.5551 106.906 84.9301 105.969 84.4651 105.017L83.1001 102.22L82.6801 102.417L84.0301 105.198H84.0451ZM99.4951 90.3989C99.3001 90.2477 98.9551 90.0512 98.9551 90.0512C98.9551 90.0512 99.4201 90.0965 99.7051 90.1116L103.935 90.2326L104.205 89.8698L100.395 86.9976L100.11 87.3755L102.855 89.4465C103.05 89.5977 103.395 89.7942 103.395 89.7942C103.395 89.7942 102.93 89.7488 102.645 89.7337L98.4151 89.6128L98.1451 89.9756L101.97 92.8478L102.255 92.4699L99.5101 90.3989H99.4951ZM107.22 83.8986C107.22 83.8986 107.31 83.944 107.385 83.9893L107.7 84.1707L107.925 83.7928L105.93 82.6741L105.3 83.7626L105.66 83.9742L106.065 83.2637L106.77 83.6567C106.77 83.6567 107.1 84.5033 106.635 85.3045C106.095 86.2417 104.94 86.5138 103.92 85.9394C102.93 85.3801 102.54 84.2614 103.11 83.2637C103.545 82.5079 104.235 82.266 104.235 82.266L104.055 81.873C104.055 81.873 103.275 82.1148 102.72 83.0672C102.03 84.2614 102.48 85.6824 103.68 86.3627C104.91 87.058 106.35 86.6952 106.995 85.5615C107.49 84.6847 107.205 83.8986 107.205 83.8986M108.36 73.5587C108.12 73.4831 107.73 73.4226 107.73 73.4226C107.73 73.4226 108.18 73.3017 108.465 73.1959L112.44 71.7598L112.56 71.3214L107.94 70.0667L107.82 70.5202L111.15 71.4272C111.39 71.4877 111.78 71.5633 111.78 71.5633C111.78 71.5633 111.33 71.6842 111.045 71.79L107.07 73.2261L106.95 73.6645L111.57 74.9192L111.69 74.4657L108.36 73.5587ZM107.535 34.4665L108.555 36.5677L106.95 37.3387L106.155 35.706L105.78 35.8874L106.56 37.5201L105 38.2759L104.025 36.2805L103.65 36.4619L104.82 38.8806L109.14 36.8096L107.91 34.2851L107.535 34.4665ZM110.685 40.6039L106.575 42.0702L105.99 40.4679L105.6 40.6039L106.92 44.2622L107.31 44.111L106.725 42.4935L110.835 41.0272L110.67 40.5888L110.685 40.6039ZM110.475 45.3053L107.445 46.0157L107.55 46.4692L110.565 45.7588C111.375 45.5622 111.99 45.9704 112.185 46.7716C112.38 47.5728 112.005 48.1926 111.21 48.3891L108.18 49.0996L108.285 49.5682L111.315 48.8577C112.35 48.6158 112.845 47.7391 112.59 46.6809C112.335 45.6378 111.51 45.0634 110.46 45.3204M113.55 52.516L109.215 53.03L109.02 51.3369L108.6 51.3822L109.065 55.2521L109.485 55.2068L109.29 53.4986L113.625 52.9997L113.565 52.5311L113.55 52.516ZM113.91 57.0208L109.125 57.172V57.6406L113.925 57.4894V57.0208H113.91ZM113.895 61.5257L109.53 61.2989L109.62 59.5907L109.2 59.5605L109.005 63.4455L109.425 63.4757L109.515 61.7524L113.88 61.9792L113.91 61.5105L113.895 61.5257ZM113.4 67.1794C113.535 66.3026 113.055 65.6677 112.335 65.5619C110.775 65.32 110.745 67.7236 109.62 67.5422C109.2 67.4817 108.87 67.0282 108.96 66.4235C109.05 65.8037 109.53 65.456 109.53 65.456L109.17 65.1688C109.17 65.1688 108.645 65.5467 108.51 66.3479C108.375 67.2247 108.87 67.905 109.545 68.0108C111.015 68.2375 111.075 65.8491 112.275 66.0305C112.785 66.1061 113.025 66.5747 112.95 67.1038C112.83 67.8445 112.23 68.2527 112.23 68.2527L112.545 68.5852C112.545 68.5852 113.235 68.1468 113.385 67.1945M110.37 78.1844L110.535 77.746L106.05 76.0681L105.885 76.5065L110.37 78.1844ZM99.6001 95.4479L99.9151 95.1002L96.3901 91.8803L96.0751 92.228L99.6001 95.4479ZM95.6251 98.7434L94.8601 99.4236L92.2201 96.5061L92.9851 95.8258C93.8551 95.0397 94.9051 95.0397 95.7601 95.977C96.6151 96.9142 96.4951 97.9573 95.6251 98.7434ZM95.9401 99.0155C97.0051 98.0631 97.1401 96.7631 96.1201 95.6444C95.1001 94.5258 93.8101 94.5258 92.7301 95.4781L91.5901 96.5061L94.8001 100.043L95.9401 99.0155ZM90.6301 103.173L92.8201 101.616L92.5801 101.268L90.7801 102.553L88.2301 99.0306L87.8401 99.3027L90.6301 103.173ZM87.7201 105.032L88.1251 104.79L85.6501 100.724L85.2451 100.966L87.7201 105.047V105.032ZM75.2551 85.9092C70.6201 88.5244 65.3251 89.9151 59.9551 89.9151C49.0351 89.9151 38.7901 84.0951 33.2251 74.7378L29.2951 77.0507C35.6851 87.7837 47.4301 94.4502 59.9551 94.4502C66.1201 94.4502 72.1801 92.8629 77.5201 89.8547L75.2551 85.894V85.9092ZM85.0201 25.8801L82.2751 29.5081C91.6951 36.5677 97.0951 47.3309 97.0951 59.0314C97.0951 79.4089 80.4301 95.977 59.9551 95.977C50.1001 95.977 40.8151 92.1827 33.8251 85.2743L30.6001 88.5093C38.4601 96.2642 48.8851 100.527 59.9551 100.527C82.9501 100.527 101.67 81.9183 101.67 59.0314C101.67 45.8797 95.6101 33.7862 85.0201 25.865M86.3101 42.7203C89.3701 47.603 90.9751 53.2416 90.9751 59.0163C90.9751 63.0525 90.2101 66.9828 88.6801 70.7016L92.9101 72.4249C94.6651 68.162 95.5501 63.6571 95.5501 59.0163C95.5501 52.3799 93.6901 45.9099 90.1951 40.3167L86.3101 42.7203ZM46.3351 110.928L47.4901 106.529C25.7701 100.905 10.6051 81.3741 10.6051 59.0314C10.6051 56.9301 10.7401 54.8289 10.9951 52.7579L6.46514 52.1834C6.18014 54.4358 6.03014 56.7487 6.03014 59.0314C6.03014 83.4451 22.6051 104.79 46.3351 110.928ZM4.71014 35.8874L5.37014 34.3153L4.98014 34.149L3.48014 37.7468L3.87014 37.9131L4.53014 36.3258L8.56514 37.9887L8.74514 37.5503L4.71014 35.8874ZM8.19014 32.5617L6.64514 31.7454L7.69514 29.7802L7.32014 29.5837L6.06014 31.9571L10.2901 34.1944L11.6101 31.7152L11.2351 31.5187L10.1401 33.5746L8.56514 32.7431L9.42014 31.1407L9.04514 30.9442L8.19014 32.5466V32.5617ZM11.6551 27.0592L11.0251 28.0116L9.42014 26.9534L9.96014 26.1522C10.1701 25.8498 10.2901 25.7289 10.4401 25.6533C10.7251 25.5022 11.0551 25.5324 11.3851 25.744C11.8801 26.0766 11.9851 26.5906 11.6701 27.0592M12.4501 26.8022C12.3001 26.8022 12.2251 26.8022 12.2251 26.8022C12.3901 26.2731 12.1801 25.6836 11.6401 25.3359C11.1601 25.0184 10.6201 24.9882 10.2151 25.2603C10.0351 25.3661 9.88514 25.5324 9.61514 25.9405L8.83514 27.1197L12.8251 29.75L13.0801 29.357L11.4001 28.2534L12.0601 27.2557L14.3401 27.4673L14.6401 27.0138L12.4651 26.8173L12.4501 26.8022ZM18.3451 22.3578L14.6551 19.3194L14.3551 19.6822L17.0101 21.8741C17.2051 22.0253 17.5351 22.252 17.5351 22.252C17.5351 22.252 17.0701 22.1764 16.7851 22.1462L12.5701 21.8288L12.2851 22.1764L15.9751 25.2149L16.2751 24.8521L13.6201 22.6602C13.4251 22.509 13.0951 22.2823 13.0951 22.2823C13.0951 22.2823 13.5601 22.3578 13.8451 22.373L18.0601 22.6904L18.3451 22.3427V22.3578ZM20.3851 17.5356L19.2001 18.6844L18.4501 17.0065C18.3451 16.7948 18.1501 16.432 18.1501 16.432C18.1501 16.432 18.4951 16.6286 18.7201 16.7344L20.3851 17.5356ZM22.5901 18.0798L17.9851 15.8878L17.6251 16.2355L19.7101 20.8613L20.0701 20.5136L19.3951 19.0473L20.7751 17.717L22.2301 18.4275L22.5901 18.0798ZM25.1101 15.9936L22.3501 12.6226L23.6851 11.5493L23.4151 11.2167L20.3851 13.6656L20.6551 13.9831L21.9901 12.9098L24.7351 16.2809L25.0951 15.9785L25.1101 15.9936ZM28.0951 13.7715L28.4851 13.4994L25.7551 9.58409L25.3651 9.85619L28.0951 13.7715ZM32.3401 10.6876C31.3951 11.2167 30.2101 10.869 29.6251 9.85619C29.0551 8.8736 29.3851 7.69448 30.3301 7.16539C31.2601 6.6363 32.4451 6.95376 33.0151 7.95147C33.6001 8.9643 33.2851 10.1736 32.3401 10.7027M33.4351 7.7096C32.7601 6.51537 31.2901 6.12233 30.1051 6.78747C28.9201 7.45261 28.5151 8.91895 29.1901 10.0981C29.8801 11.3074 31.3651 11.7307 32.5501 11.0655C33.7351 10.4004 34.1251 8.91895 33.4351 7.69448M39.7351 7.54331L40.1551 7.36191L38.2951 2.97802L37.8601 3.15942L39.1951 6.31885C39.3001 6.5456 39.4801 6.89329 39.4801 6.89329C39.4801 6.89329 39.1051 6.62118 38.8651 6.4549L35.2801 4.24784L34.8601 4.42924L36.7201 8.81313L37.1551 8.63173L35.8201 5.4723C35.7301 5.24555 35.5351 4.89786 35.5351 4.89786C35.5351 4.89786 35.9101 5.18508 36.1501 5.33625L39.7351 7.54331ZM44.2051 4.02108L42.6301 4.48971L42.7351 2.66056C42.7351 2.41869 42.7351 2.02566 42.7351 2.02566C42.7351 2.02566 42.9451 2.37334 43.0951 2.55475L44.1901 4.0362L44.2051 4.02108ZM45.4201 5.66882L45.9001 5.51765L42.8401 1.46633L42.3601 1.60238L42.0601 6.66653L42.5401 6.53048L42.6301 4.92809L44.4751 4.36877L45.4351 5.66882H45.4201ZM47.8951 5.06415L50.5351 4.53506L50.4451 4.1269L48.2701 4.56529L47.4001 0.302333L46.9351 0.393034L47.8801 5.06415H47.8951ZM60.0001 5.41183C57.3901 5.41183 54.7801 5.59324 52.2301 5.97116L52.8901 10.476C55.2301 10.1434 57.6151 9.96201 60.0151 9.96201C77.7601 9.96201 94.2151 19.5159 102.975 34.8746L106.95 32.6373C97.3801 15.8425 79.3951 5.41183 60.0151 5.41183M108.3 9.43292H110.145V8.97942H105.945V9.43292H107.79V14.0889H108.3V9.43292ZM115.335 14.0889H115.83L115.425 8.97942H114.915L113.565 11.9726C113.445 12.2447 113.31 12.6075 113.31 12.6075C113.31 12.6075 113.175 12.2447 113.055 11.9726L111.705 8.97942H111.18L110.775 14.0889H111.285L111.57 10.5062C111.585 10.2341 111.57 9.78061 111.57 9.78061H111.585C111.585 9.78061 111.75 10.2492 111.855 10.5062L113.055 13.1366H113.535L114.735 10.5062C114.855 10.2492 115.005 9.79573 115.005 9.79573C115.005 9.79573 115.005 10.2341 115.005 10.5062L115.29 14.0889H115.335ZM120.03 59.2884C120.03 28.9488 97.2001 3.44664 66.9451 -0.0151215L66.4201 4.50482C94.3801 7.69448 115.455 31.2466 115.455 59.2884C115.455 89.7035 90.5851 114.435 60.0151 114.435C45.5251 114.435 31.8151 108.917 21.4051 98.8794C11.0251 88.8721 5.05514 75.4483 4.59014 61.1024L0.0151367 61.2384C0.510137 76.7786 6.97514 91.2908 18.2101 102.145C29.4751 112.999 44.3101 118.985 60.0001 118.985C93.0901 118.985 120.015 92.1978 120.015 59.2884" fill="#003B43"/>
<path d="M61.47 46.8925H58.86V65.3351H69.75V63.0827H61.455V46.8925H61.47ZM46.425 63.0827V57.1569H53.07V54.9045H46.425V49.1298H54.585V46.8774H43.815V65.32H55.035V63.0676H46.425V63.0827ZM75.36 46.8925H72.765V65.3351H83.67V63.0827H75.375V46.8925H75.36ZM35.595 65.3351L40.455 46.8925H37.77L34.35 60.4221C34.095 61.4198 34.02 62.3873 34.02 62.3873H33.96C33.96 62.3873 33.825 61.4501 33.57 60.4221L29.94 46.8925H27.63L24 60.4221C23.73 61.4501 23.61 62.3873 23.61 62.3873H23.55C23.55 62.3873 23.445 61.4198 23.205 60.4221L19.92 46.8925H17.25L21.975 65.3351H24.99L28.2 53.3777C28.515 52.1986 28.755 50.7624 28.755 50.7624H28.8C28.8 50.7624 29.04 52.1986 29.355 53.3777L32.565 65.3351H35.58H35.595Z" fill="#003B43"/>
</g>
<defs>
<clipPath id="clip0_298_2923">
<rect width="120" height="119" fill="white"/>
</clipPath>
</defs>
</svg>
