<svg width="208" height="70" viewBox="0 0 208 70" fill="none" xmlns="http://www.w3.org/2000/svg">
<path d="M25.6304 10.7619V0.243744H27.4159L32.3016 7.66166V0.243744H34.0871V10.7619H32.3016L27.4159 3.34401V10.7619H25.6304Z" fill="#003B43"/>
<path d="M36.3756 10.7617L39.6869 0.243469H42.2677L45.579 10.7617H43.761L40.7582 1.33099H41.1477L38.1773 10.7617H36.3594H36.3756ZM38.226 8.4892V6.8498H43.7448V8.4892H38.226Z" fill="#003B43"/>
<path d="M47.8838 10.7617V0.243469H52.0553C52.7695 0.243469 53.3539 0.389571 53.8084 0.66551C54.2629 0.957682 54.6037 1.31478 54.831 1.75303C55.0582 2.19129 55.1556 2.64576 55.1556 3.13272C55.1556 3.71706 55.0257 4.20402 54.7498 4.60981C54.4738 5.0156 54.1005 5.29154 53.6298 5.4214V5.0643C54.2953 5.21038 54.7985 5.53502 55.1394 6.00574C55.4802 6.47646 55.6588 7.02834 55.6588 7.62892C55.6588 8.22949 55.5451 8.79759 55.3017 9.26831C55.0582 9.73903 54.7011 10.0962 54.2466 10.3559C53.7921 10.6156 53.1915 10.7454 52.5098 10.7454H47.9162L47.8838 10.7617ZM49.6692 4.44751H52.0391C52.2988 4.44751 52.526 4.39879 52.7208 4.3014C52.9156 4.20401 53.0779 4.05795 53.1915 3.86317C53.3052 3.66838 53.3701 3.44113 53.3701 3.16519C53.3701 2.79186 53.2565 2.49969 53.013 2.25621C52.7857 2.01274 52.4449 1.88289 52.0391 1.88289H49.6692V4.44751ZM49.6692 9.10601H52.2663C52.5747 9.10601 52.8507 9.04109 53.0942 8.91124C53.3376 8.78138 53.5324 8.61905 53.6623 8.39181C53.8084 8.16457 53.8733 7.88863 53.8733 7.58022C53.8733 7.30428 53.8084 7.04457 53.6947 6.81733C53.5649 6.59009 53.4026 6.41153 53.1591 6.28168C52.9319 6.15182 52.6397 6.08691 52.315 6.08691H49.6692V9.10601Z" fill="#003B43"/>
<path d="M58.2075 10.7617V0.243469H65.0086V1.89911H59.9768V4.4962H64.1321V6.15182H59.9768V9.12223H65.0086V10.7779H58.2075V10.7617Z" fill="#003B43"/>
<path d="M67.7026 10.7617V0.243469H72.0527C72.1501 0.243469 72.28 0.243469 72.4423 0.243469C72.6046 0.243469 72.7507 0.259699 72.8806 0.292162C73.4974 0.389553 73.9843 0.584351 74.3901 0.892754C74.7797 1.20116 75.0881 1.59071 75.2666 2.07766C75.4614 2.54838 75.5588 3.08403 75.5588 3.65214C75.5588 4.51243 75.3478 5.24286 74.9095 5.85966C74.4713 6.47647 73.8058 6.84979 72.913 6.99588L72.1664 7.06082H69.4556V10.7292H67.7026V10.7617ZM69.4556 5.43765H71.9716C72.069 5.43765 72.1826 5.43765 72.2962 5.43765C72.4261 5.43765 72.5235 5.40517 72.6371 5.37271C72.9293 5.30778 73.1565 5.17792 73.3351 4.98313C73.5136 4.78835 73.6272 4.59357 73.6922 4.3501C73.7571 4.12285 73.7895 3.87938 73.7895 3.66837C73.7895 3.45735 73.7571 3.21389 73.6922 2.97041C73.6272 2.72694 73.4974 2.51593 73.3351 2.33738C73.1727 2.15883 72.9293 2.02897 72.6371 1.94781C72.5397 1.91534 72.4261 1.89911 72.2962 1.89911C72.1826 1.89911 72.069 1.89911 71.9716 1.89911H69.4556V5.45387V5.43765ZM73.7408 10.7617L71.6632 6.47648L73.4487 6.08691L75.7211 10.7617H73.7246H73.7408Z" fill="#003B43"/>
<path d="M82.0514 10.9726C81.2885 10.9726 80.5905 10.8428 79.9737 10.5669C79.3569 10.2909 78.8537 9.9176 78.448 9.41441C78.0584 8.91123 77.7987 8.32688 77.6851 7.62891L79.503 7.35298C79.6653 7.96978 79.9737 8.45673 80.4607 8.7976C80.9476 9.13847 81.4995 9.31703 82.1325 9.31703C82.5059 9.31703 82.863 9.2521 83.1876 9.13848C83.5123 9.02486 83.7882 8.84629 83.9992 8.63527C84.2102 8.40803 84.3076 8.1321 84.3076 7.80746C84.3076 7.66138 84.2752 7.53152 84.2427 7.40167C84.194 7.27182 84.1291 7.17443 84.0317 7.07704C83.9343 6.97965 83.8206 6.88226 83.6583 6.8011C83.5122 6.71994 83.3337 6.65501 83.1389 6.59008L80.4282 5.7785C80.201 5.71357 79.9413 5.61618 79.6653 5.50256C79.3894 5.38894 79.1459 5.22663 78.9024 5.03185C78.659 4.83707 78.4642 4.57734 78.3181 4.25271C78.172 3.94431 78.0909 3.55474 78.0909 3.08402C78.0909 2.40229 78.2694 1.8342 78.6103 1.37971C78.9511 0.925219 79.4219 0.568097 79.99 0.340853C80.5743 0.113608 81.2236 0 81.9216 0C82.6358 0 83.285 0.129847 83.8531 0.373323C84.4212 0.616799 84.892 0.957681 85.2653 1.4284C85.6386 1.88289 85.9146 2.43475 86.0769 3.08402L84.1778 3.40868C84.0966 3.03535 83.9505 2.72694 83.7233 2.46723C83.496 2.20752 83.2363 2.01273 82.9117 1.86664C82.587 1.73679 82.2462 1.65564 81.8891 1.65564C81.532 1.65564 81.2073 1.70432 80.9152 1.81795C80.623 1.93157 80.3795 2.0939 80.1848 2.28868C79.99 2.48346 79.9088 2.72694 79.9088 3.00288C79.9088 3.26259 79.99 3.4736 80.1361 3.63592C80.2984 3.79824 80.4931 3.92807 80.7204 4.02546C80.9476 4.12286 81.1911 4.20403 81.4183 4.26896L83.3012 4.78836C83.5609 4.85329 83.8531 4.95067 84.1778 5.0643C84.5024 5.17792 84.8108 5.34024 85.103 5.55125C85.3951 5.76227 85.6386 6.0382 85.8334 6.37906C86.0282 6.71993 86.1256 7.15819 86.1256 7.67761C86.1256 8.19702 86.0119 8.70021 85.7847 9.10601C85.5574 9.5118 85.249 9.85268 84.8757 10.1286C84.4861 10.4046 84.0479 10.5993 83.5609 10.7454C83.074 10.8753 82.5546 10.9564 82.0027 10.9564L82.0514 10.9726Z" fill="#003B43"/>
<path d="M92.0024 10.7617V0.243469H95.3624C95.4436 0.243469 95.6221 0.243469 95.8818 0.243469C96.1415 0.243469 96.4012 0.259699 96.6447 0.292162C97.4725 0.405785 98.1867 0.697961 98.7549 1.18491C99.3392 1.67187 99.7612 2.28867 100.07 3.03533C100.362 3.78199 100.508 4.60982 100.508 5.50256C100.508 6.39531 100.362 7.2069 100.07 7.96979C99.7774 8.71645 99.3392 9.33326 98.7549 9.82021C98.1705 10.3072 97.4725 10.5993 96.6447 10.713C96.4012 10.7454 96.1578 10.7617 95.898 10.7617C95.6383 10.7617 95.4598 10.7617 95.3786 10.7617H92.0186H92.0024ZM93.7879 9.10601H95.3462C95.4923 9.10601 95.687 9.10601 95.898 9.10601C96.1253 9.10601 96.3201 9.07353 96.4986 9.04107C97.0018 8.94368 97.3914 8.73269 97.716 8.37559C98.0244 8.01849 98.2517 7.59645 98.3978 7.09327C98.5438 6.59008 98.625 6.07066 98.625 5.51878C98.625 4.96691 98.5438 4.41504 98.3978 3.91186C98.2517 3.40867 98.0082 2.98665 97.6997 2.64578C97.3913 2.30492 96.9856 2.09389 96.4986 1.9965C96.3201 1.96404 96.1253 1.93158 95.898 1.93158C95.6708 1.93158 95.4923 1.93158 95.3462 1.93158H93.7879V9.13848V9.10601Z" fill="#003B43"/>
<path d="M103.218 10.7617V0.243469H110.019V1.89911H104.987V4.4962H109.142V6.15182H104.987V9.12223H110.019V10.7779H103.218V10.7617Z" fill="#003B43"/>
<path d="M116.463 10.9726C115.7 10.9726 115.002 10.8428 114.385 10.5669C113.769 10.2909 113.265 9.9176 112.86 9.41441C112.47 8.91123 112.21 8.32688 112.097 7.62891L113.915 7.35298C114.077 7.96978 114.385 8.45673 114.872 8.7976C115.359 9.13847 115.911 9.31703 116.544 9.31703C116.917 9.31703 117.275 9.2521 117.599 9.13848C117.924 9.02486 118.2 8.84629 118.411 8.63527C118.622 8.40803 118.719 8.1321 118.719 7.80746C118.719 7.66138 118.687 7.53152 118.654 7.40167C118.606 7.27182 118.541 7.17443 118.443 7.07704C118.346 6.97965 118.232 6.88226 118.07 6.8011C117.924 6.71994 117.745 6.65501 117.551 6.59008L114.84 5.7785C114.613 5.71357 114.353 5.61618 114.077 5.50256C113.801 5.38894 113.558 5.22663 113.314 5.03185C113.071 4.83707 112.876 4.57734 112.73 4.25271C112.584 3.94431 112.502 3.55474 112.502 3.08402C112.502 2.40229 112.681 1.8342 113.022 1.37971C113.363 0.925219 113.833 0.568097 114.402 0.340853C114.986 0.113608 115.635 0 116.333 0C117.047 0 117.697 0.129847 118.265 0.373323C118.833 0.616799 119.304 0.957681 119.677 1.4284C120.05 1.88289 120.326 2.43475 120.488 3.08402L118.589 3.40868C118.508 3.03535 118.362 2.72694 118.135 2.46723C117.908 2.20752 117.648 2.01273 117.323 1.86664C116.999 1.73679 116.658 1.65564 116.301 1.65564C115.944 1.65564 115.619 1.70432 115.327 1.81795C115.035 1.93157 114.791 2.0939 114.596 2.28868C114.402 2.48346 114.32 2.72694 114.32 3.00288C114.32 3.26259 114.402 3.4736 114.548 3.63592C114.71 3.79824 114.905 3.92807 115.132 4.02546C115.359 4.12286 115.603 4.20403 115.83 4.26896L117.713 4.78836C117.973 4.85329 118.265 4.95067 118.589 5.0643C118.914 5.17792 119.222 5.34024 119.515 5.55125C119.807 5.76227 120.05 6.0382 120.245 6.37906C120.44 6.71993 120.537 7.15819 120.537 7.67761C120.537 8.19702 120.424 8.70021 120.196 9.10601C119.969 9.5118 119.661 9.85268 119.287 10.1286C118.898 10.4046 118.46 10.5993 117.973 10.7454C117.486 10.8753 116.966 10.9564 116.414 10.9564L116.463 10.9726Z" fill="#003B43"/>
<path d="M123.329 10.7617V0.243469H125.082V10.7617H123.329Z" fill="#003B43"/>
<path d="M132.678 10.9726C131.997 10.9726 131.364 10.859 130.763 10.6155C130.163 10.3721 129.643 10.015 129.189 9.56049C128.734 9.106 128.393 8.52166 128.134 7.83993C127.874 7.1582 127.76 6.37907 127.76 5.50256C127.76 4.3501 127.971 3.37619 128.41 2.54837C128.832 1.73678 129.432 1.10376 130.163 0.665505C130.893 0.227248 131.753 0.0162201 132.678 0.0162201C133.977 0.0162201 135 0.324619 135.762 0.925194C136.525 1.52577 137.029 2.36984 137.305 3.45737L135.503 3.74953C135.308 3.13272 134.983 2.62954 134.529 2.25621C134.074 1.88288 133.506 1.70433 132.792 1.70433C132.078 1.70433 131.494 1.85042 131.039 2.15882C130.568 2.48346 130.227 2.9217 129.984 3.48981C129.741 4.05792 129.627 4.73966 129.627 5.50256C129.627 6.26545 129.741 6.94719 129.984 7.5153C130.227 8.08341 130.568 8.52166 131.039 8.84629C131.51 9.17093 132.094 9.33325 132.808 9.33325C133.344 9.33325 133.798 9.23584 134.204 9.04106C134.61 8.84628 134.935 8.5379 135.178 8.14834C135.438 7.74254 135.6 7.23935 135.681 6.63877H133.831V5.25909H137.548C137.548 5.25909 137.564 5.45386 137.564 5.59994C137.564 5.74603 137.564 5.84342 137.564 5.87588C137.564 6.86602 137.369 7.75877 136.98 8.52166C136.59 9.30079 136.022 9.90135 135.292 10.3396C134.561 10.7779 133.685 10.9889 132.662 10.9889L132.678 10.9726Z" fill="#003B43"/>
<path d="M140.112 10.7617V0.243469H141.897L146.783 7.66139V0.243469H148.569V10.7617H146.783L141.897 3.34374V10.7617H140.112Z" fill="#003B43"/>
<path d="M154.835 10.7617V0.243469H161.166V1.9965H156.589V4.62606H160.289V6.37907H156.589V10.7617H154.835Z" fill="#003B43"/>
<path d="M167.804 10.9726C166.749 10.9726 165.856 10.7454 165.094 10.2909C164.347 9.83643 163.763 9.18715 163.373 8.35933C162.967 7.53152 162.772 6.57385 162.772 5.50256C162.772 4.43126 162.967 3.45737 163.373 2.64578C163.779 1.83419 164.347 1.18492 165.094 0.714198C165.84 0.259709 166.749 0.0162201 167.804 0.0162201C168.859 0.0162201 169.752 0.243477 170.515 0.714198C171.262 1.16869 171.846 1.81796 172.252 2.64578C172.658 3.4736 172.852 4.41503 172.852 5.50256C172.852 6.59008 172.658 7.54775 172.252 8.35933C171.846 9.18715 171.278 9.82019 170.515 10.2909C169.768 10.7454 168.859 10.9726 167.804 10.9726ZM167.804 9.31703C168.518 9.31703 169.103 9.17093 169.574 8.84629C170.044 8.53789 170.401 8.08341 170.629 7.5153C170.872 6.94719 170.986 6.26545 170.986 5.50256C170.986 4.73966 170.872 4.05792 170.629 3.48981C170.385 2.9217 170.044 2.48346 169.574 2.15882C169.103 1.83419 168.518 1.67186 167.804 1.67186C167.09 1.67186 166.506 1.81794 166.051 2.14257C165.581 2.46721 165.24 2.90548 164.996 3.47359C164.753 4.0417 164.639 4.72344 164.639 5.48633C164.639 6.24923 164.753 6.93094 164.996 7.49905C165.24 8.06716 165.581 8.50543 166.051 8.83007C166.522 9.1547 167.106 9.31703 167.821 9.31703H167.804Z" fill="#003B43"/>
<path d="M175.416 10.7617V0.243469H179.766C179.864 0.243469 179.993 0.243469 180.156 0.243469C180.318 0.243469 180.464 0.259699 180.594 0.292162C181.211 0.389553 181.698 0.584351 182.103 0.892754C182.493 1.20116 182.801 1.59071 182.98 2.07766C183.175 2.54838 183.272 3.08403 183.272 3.65214C183.272 4.51243 183.061 5.24286 182.623 5.85966C182.185 6.47647 181.519 6.84979 180.626 6.99588L179.88 7.06082H177.169V10.7292H175.416V10.7617ZM177.169 5.43765H179.685C179.782 5.43765 179.896 5.43765 180.01 5.43765C180.139 5.43765 180.237 5.40517 180.35 5.37271C180.643 5.30778 180.87 5.17792 181.048 4.98313C181.227 4.78835 181.341 4.59357 181.406 4.3501C181.47 4.12285 181.503 3.87938 181.503 3.66837C181.503 3.45735 181.47 3.21389 181.406 2.97041C181.341 2.72694 181.211 2.51593 181.048 2.33738C180.886 2.15883 180.643 2.02897 180.35 1.94781C180.253 1.91534 180.139 1.89911 180.01 1.89911C179.896 1.89911 179.782 1.89911 179.685 1.89911H177.169V5.45387V5.43765ZM181.454 10.7617L179.377 6.47648L181.162 6.08691L183.434 10.7617H181.438H181.454Z" fill="#003B43"/>
<path d="M14.0073 30.2237V19.7056H18.3574C18.4548 19.7056 18.5847 19.7056 18.747 19.7056C18.9093 19.7056 19.0554 19.7218 19.1853 19.7543C19.8021 19.8517 20.289 20.0464 20.6948 20.3548C21.0844 20.6632 21.3928 21.0528 21.5713 21.5398C21.7661 22.0105 21.8635 22.5461 21.8635 23.1142C21.8635 23.6824 21.7661 24.218 21.5713 24.6887C21.3765 25.1594 21.0844 25.549 20.6786 25.8736C20.289 26.182 19.7858 26.393 19.1853 26.4742C19.0554 26.4904 18.8931 26.5067 18.7308 26.5229C18.5684 26.5391 18.4386 26.5229 18.3412 26.5229H15.7604V30.1913H14.0073V30.2237ZM15.7604 24.8997H18.2763C18.3736 24.8997 18.4873 24.8997 18.6009 24.8997C18.7308 24.8997 18.8281 24.8673 18.9418 24.8348C19.2339 24.7699 19.4612 24.64 19.6397 24.4452C19.8183 24.2505 19.9319 24.0557 19.9968 23.8122C20.0618 23.585 20.0942 23.3415 20.0942 23.1305C20.0942 22.9195 20.0618 22.676 19.9968 22.4325C19.9319 22.189 19.8021 21.978 19.6397 21.7995C19.4774 21.6209 19.2339 21.4911 18.9418 21.4099C18.8444 21.3774 18.7308 21.3612 18.6009 21.3612C18.4873 21.3612 18.3736 21.3612 18.2763 21.3612H15.7604V24.916V24.8997Z" fill="#003B43"/>
<path d="M24.2334 30.2235V19.7053H31.0345V21.361H26.0027V23.958H30.158V25.6137H26.0027V28.5841H31.0345V30.2397H24.2334V30.2235Z" fill="#003B43"/>
<path d="M33.7285 30.2235V19.7053H38.0786C38.176 19.7053 38.3058 19.7053 38.4682 19.7053C38.6305 19.7053 38.7766 19.7216 38.9064 19.754C39.5233 19.8514 40.0102 20.0462 40.416 20.3546C40.8055 20.663 41.1139 21.0526 41.2925 21.5395C41.4872 22.0102 41.5847 22.5459 41.5847 23.114C41.5847 23.9743 41.3737 24.7047 40.9354 25.3215C40.4972 25.9383 39.8316 26.3117 38.9389 26.4577L38.1922 26.5227H35.4815V30.191H33.7285V30.2235ZM35.4815 24.8995H37.9974C38.0948 24.8995 38.2085 24.8995 38.3221 24.8995C38.4519 24.8995 38.5493 24.867 38.6629 24.8346C38.9551 24.7696 39.1824 24.6398 39.3609 24.445C39.5395 24.2502 39.6531 24.0554 39.718 23.812C39.783 23.5847 39.8154 23.3412 39.8154 23.1302C39.8154 22.9192 39.783 22.6757 39.718 22.4323C39.6531 22.1888 39.5232 21.9778 39.3609 21.7992C39.1986 21.6207 38.9551 21.4908 38.6629 21.4097C38.5655 21.3772 38.4519 21.361 38.3221 21.361C38.2085 21.361 38.0948 21.361 37.9974 21.361H35.4815V24.9157V24.8995ZM39.7667 30.2235L37.6891 25.9383L39.4745 25.5488L41.747 30.2235H39.7505H39.7667Z" fill="#003B43"/>
<path d="M44.3608 30.2235V19.7053H50.6912V21.4584H46.1138V24.0879H49.8147V25.8409H46.1138V30.2235H44.3608Z" fill="#003B43"/>
<path d="M57.3463 30.4507C56.2912 30.4507 55.3985 30.2235 54.6356 29.769C53.8889 29.3145 53.3046 28.6652 52.915 27.8374C52.5092 27.0096 52.3145 26.0519 52.3145 24.9806C52.3145 23.9093 52.5092 22.9355 52.915 22.1239C53.3208 21.3123 53.8889 20.663 54.6356 20.1923C55.3822 19.7378 56.2912 19.4943 57.3463 19.4943C58.4014 19.4943 59.2941 19.7216 60.057 20.1923C60.8037 20.6468 61.388 21.296 61.7938 22.1239C62.1996 22.9517 62.3944 23.8931 62.3944 24.9806C62.3944 26.0682 62.1996 27.0258 61.7938 27.8374C61.388 28.6652 60.8199 29.2983 60.057 29.769C59.3104 30.2235 58.4014 30.4507 57.3463 30.4507ZM57.3463 28.7951C58.0605 28.7951 58.6448 28.649 59.1156 28.3244C59.5863 28.016 59.9434 27.5615 60.1706 26.9934C60.4141 26.4253 60.5277 25.7435 60.5277 24.9806C60.5277 24.2178 60.4141 23.536 60.1706 22.9679C59.9271 22.3998 59.5863 21.9615 59.1156 21.6369C58.6448 21.3123 58.0605 21.15 57.3463 21.15C56.6321 21.15 56.0478 21.296 55.5933 21.6207C55.1226 21.9453 54.7817 22.3836 54.5382 22.9517C54.2947 23.5198 54.1811 24.2015 54.1811 24.9644C54.1811 25.7273 54.2947 26.409 54.5382 26.9771C54.7817 27.5453 55.1226 27.9835 55.5933 28.3082C56.064 28.6328 56.6484 28.7951 57.3626 28.7951H57.3463Z" fill="#003B43"/>
<path d="M64.959 30.2235V19.7053H69.3091C69.4065 19.7053 69.5363 19.7053 69.6986 19.7053C69.8609 19.7053 70.0071 19.7216 70.1369 19.754C70.7537 19.8514 71.2407 20.0462 71.6465 20.3546C72.036 20.663 72.3444 21.0526 72.523 21.5395C72.7178 22.0102 72.8151 22.5459 72.8151 23.114C72.8151 23.9743 72.6041 24.7047 72.1659 25.3215C71.7276 25.9383 71.0621 26.3117 70.1694 26.4577L69.4227 26.5227H66.712V30.191H64.959V30.2235ZM66.712 24.8995H69.2279C69.3253 24.8995 69.4389 24.8995 69.5525 24.8995C69.6824 24.8995 69.7798 24.867 69.8934 24.8346C70.1856 24.7696 70.4129 24.6398 70.5914 24.445C70.7699 24.2502 70.8836 24.0554 70.9485 23.812C71.0134 23.5847 71.0459 23.3412 71.0459 23.1302C71.0459 22.9192 71.0134 22.6757 70.9485 22.4323C70.8836 22.1888 70.7537 21.9778 70.5914 21.7992C70.4291 21.6207 70.1856 21.4908 69.8934 21.4097C69.7961 21.3772 69.6824 21.361 69.5525 21.361C69.4389 21.361 69.3253 21.361 69.2279 21.361H66.712V24.9157V24.8995ZM70.9972 30.2235L68.9195 25.9383L70.705 25.5488L72.9775 30.2235H70.9809H70.9972Z" fill="#003B43"/>
<path d="M75.5908 30.2235V19.7053H77.1815L80.8174 27.1557L84.4534 19.7053H86.0441V30.2235H84.4047V23.4873L81.1745 30.2235H80.4766L77.2627 23.4873V30.2235H75.6071H75.5908Z" fill="#003B43"/>
<path d="M88.3327 30.2235L91.6439 19.7053H94.2248L97.5361 30.2235H95.7181L92.7152 20.7929H93.1048L90.1344 30.2235H88.3164H88.3327ZM90.1831 27.9511V26.3116H95.7019V27.9511H90.1831Z" fill="#003B43"/>
<path d="M99.8252 30.2235V19.7053H101.611L106.496 27.1232V19.7053H108.282V30.2235H106.496L101.611 22.8056V30.2235H99.8252Z" fill="#003B43"/>
<path d="M115.878 30.4507C114.823 30.4507 113.93 30.2235 113.167 29.769C112.421 29.3145 111.836 28.6652 111.447 27.8374C111.041 27.0096 110.846 26.0519 110.846 24.9806C110.846 23.9093 111.041 22.9355 111.447 22.1239C111.853 21.3123 112.421 20.663 113.167 20.1923C113.914 19.7378 114.823 19.4943 115.878 19.4943C117.095 19.4943 118.102 19.8027 118.913 20.4033C119.725 21.0039 120.293 21.8317 120.618 22.8543L118.848 23.3412C118.637 22.6595 118.297 22.1239 117.81 21.7343C117.323 21.3447 116.673 21.15 115.894 21.15C115.18 21.15 114.596 21.3123 114.125 21.6207C113.654 21.9291 113.297 22.3836 113.07 22.9517C112.843 23.5198 112.713 24.2015 112.713 24.9644C112.713 25.7273 112.826 26.409 113.07 26.9771C113.313 27.5453 113.654 27.9998 114.125 28.3082C114.596 28.6166 115.18 28.7789 115.894 28.7789C116.673 28.7789 117.323 28.5841 117.81 28.1945C118.297 27.805 118.654 27.2693 118.848 26.5876L120.618 27.0745C120.293 28.0971 119.725 28.925 118.913 29.5255C118.102 30.1261 117.095 30.4345 115.878 30.4345V30.4507Z" fill="#003B43"/>
<path d="M123.15 30.2235V19.7053H129.951V21.361H124.919V23.958H129.074V25.6137H124.919V28.5841H129.951V30.2397H123.15V30.2235Z" fill="#003B43"/>
<path d="M138.457 30.2235V21.361H135.048V19.7053H143.618V21.361H140.21V30.2235H138.457Z" fill="#003B43"/>
<path d="M144.17 30.2235L147.482 19.7053H150.063L153.374 30.2235H151.556L148.553 20.7929H148.943L145.972 30.2235H144.154H144.17ZM146.021 27.9511V26.3116H151.54V27.9511H146.021Z" fill="#003B43"/>
<path d="M155.677 30.2235V19.7053H160.027C160.125 19.7053 160.255 19.7053 160.417 19.7053C160.579 19.7053 160.725 19.7216 160.855 19.754C161.472 19.8514 161.959 20.0462 162.365 20.3546C162.754 20.663 163.063 21.0526 163.241 21.5395C163.436 22.0102 163.533 22.5459 163.533 23.114C163.533 23.9743 163.322 24.7047 162.884 25.3215C162.446 25.9383 161.78 26.3117 160.888 26.4577L160.141 26.5227H157.43V30.191H155.677V30.2235ZM157.43 24.8995H159.946C160.044 24.8995 160.157 24.8995 160.271 24.8995C160.401 24.8995 160.498 24.867 160.612 24.8346C160.904 24.7696 161.131 24.6398 161.31 24.445C161.488 24.2502 161.602 24.0554 161.667 23.812C161.732 23.5847 161.764 23.3412 161.764 23.1302C161.764 22.9192 161.732 22.6757 161.667 22.4323C161.602 22.1888 161.472 21.9778 161.31 21.7992C161.147 21.6207 160.904 21.4908 160.612 21.4097C160.514 21.3772 160.401 21.361 160.271 21.361C160.157 21.361 160.044 21.361 159.946 21.361H157.43V24.9157V24.8995ZM161.715 30.2235L159.638 25.9383L161.423 25.5488L163.696 30.2235H161.699H161.715Z" fill="#003B43"/>
<path d="M170.644 30.4507C169.962 30.4507 169.329 30.3371 168.728 30.0936C168.128 29.8502 167.608 29.4931 167.154 29.0386C166.699 28.5841 166.359 27.9998 166.099 27.318C165.839 26.6363 165.726 25.8572 165.726 24.9806C165.726 23.8282 165.937 22.8543 166.375 22.0265C166.797 21.2149 167.397 20.5818 168.128 20.1436C168.858 19.7053 169.719 19.4943 170.644 19.4943C171.942 19.4943 172.965 19.8027 173.728 20.4033C174.491 21.0039 174.994 21.8479 175.27 22.9355L173.468 23.2276C173.273 22.6108 172.949 22.1076 172.494 21.7343C172.04 21.361 171.472 21.1824 170.757 21.1824C170.043 21.1824 169.459 21.3285 169.004 21.6369C168.534 21.9615 168.193 22.3998 167.949 22.9679C167.706 23.536 167.592 24.2178 167.592 24.9806C167.592 25.7435 167.706 26.4253 167.949 26.9934C168.193 27.5615 168.534 27.9997 169.004 28.3244C169.475 28.649 170.059 28.8113 170.774 28.8113C171.309 28.8113 171.764 28.7139 172.17 28.5192C172.575 28.3244 172.9 28.016 173.144 27.6264C173.403 27.2206 173.566 26.7174 173.647 26.1169H171.796V24.7372H175.513C175.513 24.7372 175.53 24.9319 175.53 25.078C175.53 25.2241 175.53 25.3215 175.53 25.354C175.53 26.3441 175.335 27.2369 174.945 27.9997C174.556 28.7789 173.988 29.3794 173.257 29.8177C172.527 30.256 171.65 30.467 170.628 30.467L170.644 30.4507Z" fill="#003B43"/>
<path d="M178.078 30.2235V19.7053H184.879V21.361H179.847V23.958H184.003V25.6137H179.847V28.5841H184.879V30.2397H178.078V30.2235Z" fill="#003B43"/>
<path d="M190.333 30.2235V21.361H186.924V19.7053H195.494V21.361H192.086V30.2235H190.333Z" fill="#003B43"/>
<path d="M15.7456 49.7018V39.1837H20.0957C20.1931 39.1837 20.323 39.1837 20.4853 39.1837C20.6476 39.1837 20.7937 39.1999 20.9235 39.2323C21.5403 39.3297 22.0273 39.5245 22.4331 39.8329C22.8227 40.1413 23.1311 40.5309 23.3096 41.0178C23.5044 41.4886 23.6018 42.0242 23.6018 42.5923C23.6018 43.4526 23.3908 44.183 22.9525 44.7998C22.5142 45.4167 21.8488 45.79 20.956 45.9361L20.2093 46.001H17.4986V49.6694H15.7456V49.7018ZM17.4986 44.3778H20.0146C20.112 44.3778 20.2256 44.3778 20.3392 44.3778C20.469 44.3778 20.5664 44.3454 20.6801 44.3129C20.9722 44.248 21.1995 44.1181 21.378 43.9233C21.5566 43.7285 21.6702 43.5338 21.7351 43.2903C21.8 43.063 21.8325 42.8196 21.8325 42.6086C21.8325 42.3975 21.8 42.1541 21.7351 41.9106C21.6702 41.6671 21.5403 41.4561 21.378 41.2775C21.2157 41.099 20.9722 40.9692 20.6801 40.888C20.5827 40.8555 20.469 40.8393 20.3392 40.8393C20.2256 40.8393 20.112 40.8393 20.0146 40.8393H17.4986V44.3941V44.3778ZM21.7838 49.7018L19.7062 45.4166L21.4917 45.0271L23.7641 49.7018H21.7676H21.7838Z" fill="#003B43"/>
<path d="M25.841 49.7016L29.1522 39.1834H31.7331L35.0444 49.7016H33.2264L30.2235 40.2709H30.6131L27.6427 49.7016H25.8247H25.841ZM27.6914 47.4291V45.7897H33.2102V47.4291H27.6914Z" fill="#003B43"/>
<path d="M38.9897 49.7016V40.8391H35.5811V39.1834H44.1514V40.8391H40.7427V49.7016H38.9897Z" fill="#003B43"/>
<path d="M46.4556 49.7016V39.1834H48.2086V49.7016H46.4556Z" fill="#003B43"/>
<path d="M51.3901 49.7016V39.1834H53.1756L58.0614 46.6013V39.1834H59.8469V49.7016H58.0614L53.1756 42.2837V49.7016H51.3901Z" fill="#003B43"/>
<path d="M67.3303 49.9288C66.6486 49.9288 66.0156 49.8152 65.415 49.5717C64.8144 49.3282 64.295 48.9712 63.8405 48.5167C63.386 48.0622 63.0452 47.4778 62.7855 46.7961C62.5257 46.1144 62.4121 45.3352 62.4121 44.4587C62.4121 43.3063 62.6231 42.3324 63.0614 41.5045C63.4834 40.693 64.084 40.0599 64.8144 39.6217C65.5449 39.1834 66.4051 38.9724 67.3303 38.9724C68.6289 38.9724 69.6515 39.2808 70.4143 39.8814C71.1772 40.4819 71.6804 41.326 71.9564 42.4135L70.1547 42.7057C69.9599 42.0889 69.6353 41.5857 69.1808 41.2124C68.7263 40.8391 68.1582 40.6605 67.444 40.6605C66.7298 40.6605 66.1454 40.8066 65.691 41.115C65.2202 41.4396 64.8793 41.8779 64.6358 42.446C64.3924 43.0141 64.2787 43.6958 64.2787 44.4587C64.2787 45.2216 64.3924 45.9034 64.6358 46.4715C64.8793 47.0396 65.2202 47.4778 65.691 47.8025C66.1617 48.1271 66.746 48.2894 67.4602 48.2894C67.9959 48.2894 68.4503 48.192 68.8561 47.9972C69.2619 47.8025 69.5866 47.4941 69.83 47.1045C70.0897 46.6987 70.252 46.1955 70.3332 45.595H68.4828V44.2153H72.1998C72.1998 44.2153 72.2161 44.41 72.2161 44.5561C72.2161 44.7022 72.2161 44.7996 72.2161 44.8321C72.2161 45.8222 72.0213 46.7149 71.6317 47.4778C71.2422 48.257 70.6741 48.8575 69.9437 49.2958C69.2132 49.734 68.3367 49.9451 67.3141 49.9451L67.3303 49.9288Z" fill="#003B43"/>
<path d="M74.9756 48.7601V46.9584H76.7773V48.7601H74.9756ZM74.9756 44.5723V42.7706H76.7773V44.5723H74.9756Z" fill="#003B43"/>
<path d="M82.8805 49.7016L86.1917 39.1834H88.7726L92.0839 49.7016H90.2659L87.263 40.2709H87.6526L84.6822 49.7016H82.8643H82.8805ZM84.7309 47.4291V45.7897H90.2497V47.4291H84.7309Z" fill="#003B43"/>
<path d="M94.4692 49.7016V39.1834H96.2223V49.7016H94.4692Z" fill="#003B43"/>
<path d="M99.4038 49.7016V39.1834H100.995L104.63 46.6338L108.266 39.1834H109.857V49.7016H108.218V42.9654L104.988 49.7016H104.29L101.076 42.9654V49.7016H99.4201H99.4038Z" fill="#003B43"/>
<path d="M113.022 49.7016V39.1834H114.776V49.7016H113.022Z" fill="#003B43"/>
<path d="M117.973 49.7016V39.1834H119.759L124.644 46.6013V39.1834H126.43V49.7016H124.644L119.759 42.2837V49.7016H117.973Z" fill="#003B43"/>
<path d="M133.912 49.9288C133.231 49.9288 132.598 49.8152 131.997 49.5717C131.396 49.3282 130.877 48.9712 130.422 48.5167C129.968 48.0622 129.627 47.4778 129.367 46.7961C129.108 46.1144 128.994 45.3352 128.994 44.4587C128.994 43.3063 129.205 42.3324 129.643 41.5045C130.065 40.693 130.666 40.0599 131.396 39.6217C132.127 39.1834 132.987 38.9724 133.912 38.9724C135.211 38.9724 136.233 39.2808 136.996 39.8814C137.759 40.4819 138.262 41.326 138.538 42.4135L136.737 42.7057C136.542 42.0889 136.217 41.5857 135.763 41.2124C135.308 40.8391 134.74 40.6605 134.026 40.6605C133.312 40.6605 132.727 40.8066 132.273 41.115C131.802 41.4396 131.461 41.8779 131.218 42.446C130.974 43.0141 130.861 43.6958 130.861 44.4587C130.861 45.2216 130.974 45.9034 131.218 46.4715C131.461 47.0396 131.802 47.4778 132.273 47.8025C132.744 48.1271 133.328 48.2894 134.042 48.2894C134.578 48.2894 135.032 48.192 135.438 47.9972C135.844 47.8025 136.169 47.4941 136.412 47.1045C136.672 46.6987 136.834 46.1955 136.915 45.595H135.065V44.2153H138.782C138.782 44.2153 138.798 44.41 138.798 44.5561C138.798 44.7022 138.798 44.7996 138.798 44.8321C138.798 45.8222 138.603 46.7149 138.214 47.4778C137.824 48.257 137.256 48.8575 136.526 49.2958C135.795 49.734 134.919 49.9451 133.896 49.9451L133.912 49.9288Z" fill="#003B43"/>
<path d="M144.495 49.7016V39.1834H150.825V40.9364H146.248V43.566H149.949V45.319H146.248V49.7016H144.495Z" fill="#003B43"/>
<path d="M157.464 49.9288C156.409 49.9288 155.517 49.7016 154.754 49.2471C154.007 48.7926 153.423 48.1433 153.033 47.3155C152.627 46.4877 152.433 45.53 152.433 44.4587C152.433 43.3874 152.627 42.4135 153.033 41.602C153.439 40.7904 154.007 40.1411 154.754 39.6704C155.5 39.2159 156.409 38.9724 157.464 38.9724C158.52 38.9724 159.412 39.1997 160.175 39.6704C160.922 40.1249 161.506 40.7741 161.912 41.602C162.318 42.4298 162.513 43.3712 162.513 44.4587C162.513 45.5463 162.318 46.5039 161.912 47.3155C161.506 48.1433 160.938 48.7764 160.175 49.2471C159.429 49.7016 158.52 49.9288 157.464 49.9288ZM157.464 48.2732C158.179 48.2732 158.763 48.1271 159.234 47.8025C159.704 47.4941 160.062 47.0396 160.289 46.4715C160.532 45.9034 160.646 45.2216 160.646 44.4587C160.646 43.6958 160.532 43.0141 160.289 42.446C160.045 41.8779 159.704 41.4396 159.234 41.115C158.763 40.7904 158.179 40.628 157.464 40.628C156.75 40.628 156.166 40.7741 155.711 41.0988C155.241 41.4234 154.9 41.8617 154.656 42.4298C154.413 42.9979 154.299 43.6796 154.299 44.4425C154.299 45.2054 154.413 45.8871 154.656 46.4552C154.9 47.0233 155.241 47.4616 155.711 47.7862C156.182 48.1109 156.767 48.2732 157.481 48.2732H157.464Z" fill="#003B43"/>
<path d="M165.077 49.7016V39.1834H169.427C169.525 39.1834 169.655 39.1834 169.817 39.1834C169.979 39.1834 170.125 39.1996 170.255 39.2321C170.872 39.3295 171.359 39.5243 171.765 39.8327C172.154 40.1411 172.463 40.5307 172.641 41.0176C172.836 41.4883 172.933 42.024 172.933 42.5921C172.933 43.4524 172.722 44.1828 172.284 44.7996C171.846 45.4164 171.18 45.7897 170.288 45.9358L169.541 46.0007H166.83V49.6691H165.077V49.7016ZM166.83 44.3776H169.346C169.443 44.3776 169.557 44.3776 169.671 44.3776C169.801 44.3776 169.898 44.3451 170.012 44.3127C170.304 44.2477 170.531 44.1179 170.71 43.9231C170.888 43.7283 171.002 43.5335 171.067 43.29C171.132 43.0628 171.164 42.8193 171.164 42.6083C171.164 42.3973 171.132 42.1538 171.067 41.9103C171.002 41.6669 170.872 41.4559 170.71 41.2773C170.547 41.0988 170.304 40.9689 170.012 40.8878C169.914 40.8553 169.801 40.8391 169.671 40.8391C169.557 40.8391 169.443 40.8391 169.346 40.8391H166.83V44.3938V44.3776ZM171.115 49.7016L169.038 45.4164L170.823 45.0269L173.096 49.7016H171.099H171.115Z" fill="#003B43"/>
<path d="M182.072 49.9288C181.537 49.9288 181.033 49.8152 180.579 49.6042C180.108 49.3769 179.719 49.0686 179.378 48.679C179.037 48.2894 178.81 47.8349 178.664 47.3155L180.352 46.861C180.417 47.137 180.546 47.3804 180.725 47.5914C180.904 47.8025 181.115 47.9486 181.374 48.0622C181.618 48.1758 181.877 48.2245 182.137 48.2245C182.478 48.2245 182.786 48.1433 183.079 47.981C183.355 47.8187 183.582 47.5915 183.744 47.3155C183.906 47.0396 183.988 46.7312 183.988 46.3903C183.988 46.0494 183.906 45.741 183.728 45.4651C183.566 45.1892 183.338 44.9619 183.046 44.7996C182.77 44.6373 182.462 44.5561 182.121 44.5561C181.715 44.5561 181.374 44.6211 181.115 44.7671C180.855 44.9132 180.644 45.0755 180.498 45.2379L178.988 44.7509L179.313 39.1834H185.026V40.8391H180.254L180.904 40.2222L180.676 44.0854L180.352 43.6958C180.628 43.4524 180.936 43.2576 181.293 43.144C181.65 43.0303 182.007 42.9654 182.332 42.9654C182.981 42.9654 183.566 43.1115 184.085 43.4199C184.604 43.7283 184.994 44.1341 185.286 44.6373C185.578 45.1567 185.724 45.741 185.724 46.3903C185.724 47.0396 185.546 47.6401 185.205 48.1758C184.864 48.7114 184.41 49.1335 183.858 49.4581C183.306 49.7665 182.689 49.9288 182.024 49.9288H182.072Z" fill="#003B43"/>
<path d="M189.359 44.3938L188.093 43.4848L189.197 42.1863L187.542 41.748L188.028 40.2709L189.619 40.9202L189.506 39.1996H191.064L190.95 40.9202L192.525 40.2709L193.012 41.748L191.356 42.1863L192.444 43.4848L191.177 44.3938L190.268 42.9654L189.343 44.3938H189.359Z" fill="#003B43"/>
<path d="M3.0678 69.1799L0 58.6618H1.85042L3.94433 66.2582L6.03821 58.678H7.88863L9.98253 66.2582L12.0764 58.6618H13.9268L10.859 69.1799H9.12223L6.96343 61.6971L4.82083 69.1799H3.08405H3.0678Z" fill="#003B43"/>
<path d="M16.2158 69.1797V58.6615H17.9689V69.1797H16.2158Z" fill="#003B43"/>
<path d="M23.6821 69.1797V60.3172H20.2734V58.6615H28.8438V60.3172H25.4351V69.1797H23.6821Z" fill="#003B43"/>
<path d="M31.0679 69.1797V58.6615H32.8209V63.0928H37.804V58.6615H39.5571V69.1797H37.804V64.7322H32.8209V69.1797H31.0679Z" fill="#003B43"/>
<path d="M45.0919 69.1797L48.4032 58.6615H50.984L54.2953 69.1797H52.4774L49.4745 59.749H49.8641L46.8936 69.1797H45.0757H45.0919ZM46.9423 66.9072V65.2678H52.4611V66.9072H46.9423Z" fill="#003B43"/>
<path d="M60.3175 69.3907C59.5546 69.3907 58.8566 69.2608 58.2398 68.9849C57.623 68.709 57.1198 68.3356 56.714 67.8324C56.3245 67.3292 56.0648 66.7449 55.9512 66.047L57.7691 65.771C57.9314 66.3878 58.2398 66.8748 58.7268 67.2156C59.2137 67.5565 59.7656 67.735 60.3987 67.735C60.772 67.735 61.1291 67.6701 61.4537 67.5565C61.7783 67.4429 62.0543 67.2643 62.2653 67.0533C62.4763 66.8261 62.5737 66.5501 62.5737 66.2255C62.5737 66.0794 62.5412 65.9496 62.5088 65.8197C62.4601 65.6899 62.3951 65.5925 62.2977 65.4951C62.2003 65.3977 62.0868 65.3003 61.9244 65.2191C61.7784 65.138 61.5998 65.073 61.405 65.0081L58.6943 64.1965C58.467 64.1316 58.2073 64.0342 57.9314 63.9206C57.6555 63.807 57.412 63.6446 57.1686 63.4499C56.9251 63.2551 56.7303 62.9954 56.5842 62.6707C56.4381 62.3623 56.357 61.9728 56.357 61.5021C56.357 60.8203 56.5355 60.2522 56.8763 59.7977C57.2172 59.3432 57.6879 58.9861 58.2561 58.7589C58.8404 58.5316 59.4897 58.418 60.1876 58.418C60.9018 58.418 61.5511 58.5479 62.1192 58.7914C62.6873 59.0348 63.158 59.3757 63.5314 59.8464C63.9047 60.3009 64.1806 60.8528 64.343 61.5021L62.4439 61.8267C62.3627 61.4534 62.2166 61.145 61.9893 60.8852C61.7621 60.6255 61.5024 60.4308 61.1777 60.2847C60.8531 60.1548 60.5123 60.0737 60.1552 60.0737C59.7981 60.0737 59.4734 60.1224 59.1813 60.236C58.8891 60.3496 58.6456 60.5119 58.4508 60.7067C58.256 60.9015 58.1749 61.145 58.1749 61.4209C58.1749 61.6806 58.256 61.8916 58.4021 62.0539C58.5644 62.2162 58.7593 62.3461 58.9865 62.4435C59.2137 62.5409 59.4572 62.622 59.6845 62.687L61.5673 63.2064C61.827 63.2713 62.1192 63.3687 62.4439 63.4823C62.7685 63.596 63.0769 63.7583 63.369 63.9693C63.6612 64.1803 63.9047 64.4562 64.0995 64.7971C64.2943 65.138 64.3916 65.5762 64.3916 66.0956C64.3916 66.6151 64.278 67.1183 64.0508 67.524C63.8235 67.9298 63.5152 68.2707 63.1418 68.5466C62.7523 68.8226 62.314 69.0174 61.8271 69.1634C61.3401 69.2933 60.8206 69.3745 60.2688 69.3745L60.3175 69.3907Z" fill="#003B43"/>
<path d="M67.0859 69.1797V58.6615H71.436C71.5334 58.6615 71.6633 58.6615 71.8256 58.6615C71.9879 58.6615 72.134 58.6777 72.2639 58.7102C72.8807 58.8076 73.3676 59.0024 73.7734 59.3108C74.163 59.6192 74.4714 60.0087 74.6499 60.4957C74.8447 60.9664 74.9421 61.5021 74.9421 62.0702C74.9421 62.6383 74.8447 63.1739 74.6499 63.6446C74.4552 64.1154 74.163 64.5049 73.7572 64.8296C73.3676 65.138 72.8644 65.349 72.2639 65.4301C72.134 65.4464 71.9717 65.4626 71.8094 65.4788C71.6471 65.4951 71.5172 65.4788 71.4198 65.4788H68.8389V69.1472H67.0859V69.1797ZM68.8389 63.8557H71.3549C71.4523 63.8557 71.5659 63.8557 71.6795 63.8557C71.8094 63.8557 71.9068 63.8232 72.0204 63.7907C72.3126 63.7258 72.5398 63.596 72.7184 63.4012C72.8969 63.2064 73.0105 63.0116 73.0755 62.7681C73.1404 62.5409 73.1728 62.2974 73.1728 62.0864C73.1728 61.8754 73.1404 61.6319 73.0755 61.3884C73.0105 61.145 72.8807 60.9339 72.7184 60.7554C72.556 60.5768 72.3126 60.447 72.0204 60.3658C71.923 60.3334 71.8094 60.3172 71.6795 60.3172C71.5659 60.3172 71.4523 60.3172 71.3549 60.3172H68.8389V63.8719V63.8557Z" fill="#003B43"/>
<path d="M77.3931 69.1797V58.6615H79.1461V69.1797H77.3931Z" fill="#003B43"/>
<path d="M82.3276 69.1797V58.6615H86.6777C86.7751 58.6615 86.905 58.6615 87.0673 58.6615C87.2296 58.6615 87.3757 58.6777 87.5055 58.7102C88.1223 58.8076 88.6093 59.0024 89.0151 59.3108C89.4047 59.6192 89.713 60.0087 89.8916 60.4957C90.0864 60.9664 90.1838 61.5021 90.1838 62.0702C90.1838 62.9305 89.9727 63.6609 89.5345 64.2777C89.0962 64.8945 88.4308 65.2678 87.538 65.4139L86.7914 65.4788H84.0806V69.1472H82.3276V69.1797ZM84.0806 63.8557H86.5965C86.6939 63.8557 86.8076 63.8557 86.9212 63.8557C87.0511 63.8557 87.1484 63.8232 87.262 63.7907C87.5542 63.7258 87.7815 63.596 87.96 63.4012C88.1386 63.2064 88.2522 63.0116 88.3171 62.7681C88.382 62.5409 88.4145 62.2974 88.4145 62.0864C88.4145 61.8754 88.382 61.6319 88.3171 61.3884C88.2522 61.145 88.1223 60.9339 87.96 60.7554C87.7977 60.5768 87.5542 60.447 87.262 60.3658C87.1647 60.3334 87.0511 60.3172 86.9212 60.3172C86.8076 60.3172 86.6939 60.3172 86.5965 60.3172H84.0806V63.8719V63.8557ZM88.3658 69.1797L86.2881 64.8945L88.0736 64.5049L90.3461 69.1797H88.3496H88.3658Z" fill="#003B43"/>
<path d="M92.4239 69.1797L95.7352 58.6615H98.316L101.627 69.1797H99.8094L96.8065 59.749H97.196L94.2257 69.1797H92.4077H92.4239ZM94.2744 66.9072V65.2678H99.7931V66.9072H94.2744Z" fill="#003B43"/>
<path d="M105.571 69.1797V60.3172H102.162V58.6615H110.733V60.3172H107.324V69.1797H105.571Z" fill="#003B43"/>
<path d="M113.038 69.1797V58.6615H114.791V69.1797H113.038Z" fill="#003B43"/>
<path d="M122.502 69.3907C121.447 69.3907 120.554 69.1634 119.791 68.709C119.044 68.2545 118.46 67.6052 118.07 66.7774C117.664 65.9496 117.47 64.9919 117.47 63.9206C117.47 62.8493 117.664 61.8754 118.07 61.0638C118.476 60.2522 119.044 59.6029 119.791 59.1322C120.538 58.6777 121.447 58.4343 122.502 58.4343C123.557 58.4343 124.449 58.6615 125.212 59.1322C125.959 59.5867 126.543 60.236 126.949 61.0638C127.355 61.8916 127.55 62.8331 127.55 63.9206C127.55 65.0081 127.355 65.9658 126.949 66.7774C126.543 67.6052 125.975 68.2382 125.212 68.709C124.466 69.1634 123.557 69.3907 122.502 69.3907ZM122.502 67.735C123.216 67.735 123.8 67.589 124.271 67.2643C124.742 66.9559 125.099 66.5014 125.326 65.9333C125.569 65.3652 125.683 64.6835 125.683 63.9206C125.683 63.1577 125.569 62.476 125.326 61.9079C125.082 61.3397 124.742 60.9015 124.271 60.5768C123.8 60.2522 123.216 60.0899 122.502 60.0899C121.787 60.0899 121.203 60.236 120.749 60.5606C120.278 60.8853 119.937 61.3235 119.693 61.8916C119.45 62.4597 119.336 63.1415 119.336 63.9043C119.336 64.6672 119.45 65.349 119.693 65.9171C119.937 66.4852 120.278 66.9234 120.749 67.2481C121.219 67.5727 121.804 67.735 122.518 67.735H122.502Z" fill="#003B43"/>
<path d="M130.114 69.1797V58.6615H131.9L136.786 66.0794V58.6615H138.571V69.1797H136.786L131.9 61.7618V69.1797H130.114Z" fill="#003B43"/>
<path d="M144.836 69.1797V58.6615H151.166V60.4145H146.589V63.0441H150.29V64.7971H146.589V69.1797H144.836Z" fill="#003B43"/>
<path d="M157.805 69.3907C156.75 69.3907 155.857 69.1634 155.094 68.709C154.347 68.2545 153.763 67.6052 153.374 66.7774C152.968 65.9496 152.773 64.9919 152.773 63.9206C152.773 62.8493 152.968 61.8754 153.374 61.0638C153.779 60.2522 154.347 59.6029 155.094 59.1322C155.841 58.6777 156.75 58.4343 157.805 58.4343C158.86 58.4343 159.753 58.6615 160.515 59.1322C161.262 59.5867 161.846 60.236 162.252 61.0638C162.658 61.8916 162.853 62.8331 162.853 63.9206C162.853 65.0081 162.658 65.9658 162.252 66.7774C161.846 67.6052 161.278 68.2382 160.515 68.709C159.769 69.1634 158.86 69.3907 157.805 69.3907ZM157.805 67.735C158.519 67.735 159.103 67.589 159.574 67.2643C160.045 66.9559 160.402 66.5014 160.629 65.9333C160.873 65.3652 160.986 64.6835 160.986 63.9206C160.986 63.1577 160.873 62.476 160.629 61.9079C160.386 61.3397 160.045 60.9015 159.574 60.5768C159.103 60.2522 158.519 60.0899 157.805 60.0899C157.091 60.0899 156.506 60.236 156.052 60.5606C155.581 60.8853 155.24 61.3235 154.997 61.8916C154.753 62.4597 154.64 63.1415 154.64 63.9043C154.64 64.6672 154.753 65.349 154.997 65.9171C155.24 66.4852 155.581 66.9234 156.052 67.2481C156.522 67.5727 157.107 67.735 157.821 67.735H157.805Z" fill="#003B43"/>
<path d="M165.418 69.1797V58.6615H169.769C169.866 58.6615 169.996 58.6615 170.158 58.6615C170.32 58.6615 170.467 58.6777 170.596 58.7102C171.213 58.8076 171.7 59.0024 172.106 59.3108C172.496 59.6192 172.804 60.0087 172.982 60.4957C173.177 60.9664 173.275 61.5021 173.275 62.0702C173.275 62.9305 173.064 63.6609 172.625 64.2777C172.187 64.8945 171.522 65.2678 170.629 65.4139L169.882 65.4788H167.172V69.1472H165.418V69.1797ZM167.172 63.8557H169.687C169.785 63.8557 169.898 63.8557 170.012 63.8557C170.142 63.8557 170.239 63.8232 170.353 63.7907C170.645 63.7258 170.872 63.596 171.051 63.4012C171.229 63.2064 171.343 63.0116 171.408 62.7681C171.473 62.5409 171.505 62.2974 171.505 62.0864C171.505 61.8754 171.473 61.6319 171.408 61.3884C171.343 61.145 171.213 60.9339 171.051 60.7554C170.889 60.5768 170.645 60.447 170.353 60.3658C170.256 60.3334 170.142 60.3172 170.012 60.3172C169.898 60.3172 169.785 60.3172 169.687 60.3172H167.172V63.8719V63.8557ZM171.457 69.1797L169.379 64.8945L171.165 64.5049L173.437 69.1797H171.44H171.457Z" fill="#003B43"/>
<path d="M182.396 69.3907C181.86 69.3907 181.357 69.2771 180.903 69.0661C180.432 68.8388 180.042 68.5304 179.702 68.1408C179.361 67.7513 179.133 67.2968 178.987 66.7774L180.675 66.3229C180.74 66.5988 180.87 66.8423 181.049 67.0533C181.227 67.2643 181.438 67.4104 181.698 67.524C181.941 67.6377 182.201 67.6863 182.461 67.6863C182.802 67.6863 183.11 67.6052 183.402 67.4429C183.678 67.2806 183.906 67.0533 184.068 66.7774C184.23 66.5014 184.311 66.193 184.311 65.8522C184.311 65.5113 184.23 65.2029 184.052 64.927C183.889 64.651 183.662 64.4238 183.37 64.2615C183.094 64.0991 182.786 64.018 182.445 64.018C182.039 64.018 181.698 64.0829 181.438 64.229C181.179 64.3751 180.968 64.5374 180.821 64.6997L179.312 64.2128L179.637 58.6453H185.35V60.3009H180.578L181.227 59.6841L181 63.5473L180.675 63.1577C180.951 62.9142 181.26 62.7194 181.617 62.6058C181.974 62.4922 182.331 62.4273 182.656 62.4273C183.305 62.4273 183.889 62.5734 184.409 62.8818C184.928 63.1902 185.318 63.596 185.61 64.0991C185.902 64.6186 186.048 65.2029 186.048 65.8522C186.048 66.5014 185.87 67.102 185.529 67.6377C185.188 68.1733 184.733 68.5953 184.181 68.92C183.63 69.2284 183.013 69.3907 182.347 69.3907H182.396Z" fill="#003B43"/>
<path d="M188.889 69.1797V67.3779H190.69V69.1797H188.889Z" fill="#003B43"/>
<path d="M196.94 69.3907C196.404 69.3907 195.901 69.2771 195.447 69.0661C194.976 68.8388 194.586 68.5304 194.245 68.1408C193.905 67.7513 193.677 67.2968 193.531 66.7774L195.219 66.3229C195.284 66.5988 195.414 66.8423 195.593 67.0533C195.771 67.2643 195.982 67.4104 196.242 67.524C196.485 67.6377 196.745 67.6863 197.005 67.6863C197.346 67.6863 197.654 67.6052 197.946 67.4429C198.222 67.2806 198.449 67.0533 198.612 66.7774C198.774 66.5014 198.855 66.193 198.855 65.8522C198.855 65.5113 198.774 65.2029 198.596 64.927C198.433 64.651 198.206 64.4238 197.914 64.2615C197.638 64.0991 197.329 64.018 196.989 64.018C196.583 64.018 196.242 64.0829 195.982 64.229C195.723 64.3751 195.512 64.5374 195.365 64.6997L193.856 64.2128L194.181 58.6453H199.894V60.3009H195.122L195.771 59.6841L195.544 63.5473L195.219 63.1577C195.495 62.9142 195.804 62.7194 196.161 62.6058C196.518 62.4922 196.875 62.4273 197.2 62.4273C197.849 62.4273 198.433 62.5734 198.953 62.8818C199.472 63.1902 199.862 63.596 200.154 64.0991C200.446 64.6186 200.592 65.2029 200.592 65.8522C200.592 66.5014 200.414 67.102 200.073 67.6377C199.732 68.1733 199.277 68.5953 198.725 68.92C198.174 69.2284 197.557 69.3907 196.891 69.3907H196.94Z" fill="#003B43"/>
<path d="M204.244 63.8719L202.978 62.9629L204.081 61.6644L202.426 61.2261L202.913 59.749L204.503 60.3983L204.39 58.6777H205.948L205.834 60.3983L207.409 59.749L207.896 61.2261L206.24 61.6644L207.328 62.9629L206.062 63.8719L205.153 62.4435L204.227 63.8719H204.244Z" fill="#003B43"/>
</svg>
