<svg width="143" height="144" viewBox="0 0 143 144" fill="none" xmlns="http://www.w3.org/2000/svg">
<path d="M141.5 72C141.5 110.946 110.15 142.5 71.5 142.5C32.8499 142.5 1.5 110.946 1.5 72C1.5 33.0541 32.8499 1.5 71.5 1.5C110.15 1.5 141.5 33.0541 141.5 72Z" stroke="#FF3A9E" stroke-width="3"/>
<g clip-path="url(#clip0_496_8)">
<path d="M43 63.5481H50.5379V91.4395H62.5427V88.81H53.1436V58.7117L71.9884 43.3338L90.8564 58.7117V66.8584H93.4388V63.5481H101L71.9884 40L43 63.5481Z" fill="#FF3A9E"/>
<path d="M50.5379 91.4395V63.5481H43L71.9884 40L101 63.5481H93.4388V66.8584H90.8564V58.7117L71.9884 43.3338L53.1436 58.7117V88.81H62.5427V91.4395H50.5379Z" fill="#FF3A9E"/>
<path d="M84.4119 92.0969C85.3193 92.0969 86.087 91.7917 86.7152 91.1578C87.3433 90.5239 87.669 89.7491 87.669 88.8335C87.669 87.9178 87.3433 87.1431 86.7152 86.5092C86.087 85.8753 85.3193 85.5466 84.4119 85.5466C83.5046 85.5466 82.7368 85.8518 82.1087 86.4857C81.4805 87.1196 81.1781 87.8944 81.1781 88.81C81.1781 89.7256 81.4805 90.5004 82.1087 91.1343C82.7368 91.7682 83.5046 92.0734 84.4119 92.0734M95.0208 91.2986L92.136 88.7396L95.2069 86.0866C95.7653 85.5936 96.1841 85.0066 96.4633 84.3492C96.7424 83.6919 96.882 82.9406 96.882 82.0954C96.882 80.4285 96.3237 79.0198 95.2069 77.8929C94.0902 76.766 92.6943 76.2025 91.0425 76.2025C90.1817 76.2025 89.4139 76.3434 88.7625 76.6251C88.1111 76.9068 87.5527 77.3294 87.0874 77.8929L84.4119 80.9919L81.783 77.8929C81.3177 77.3294 80.7593 76.9068 80.1079 76.6251C79.4564 76.3434 78.6887 76.2025 77.8046 76.2025C76.1993 76.2025 74.8267 76.7895 73.6634 77.9633C72.5234 79.1372 71.9418 80.5459 71.9418 82.1893C71.9418 83.011 72.1047 83.7623 72.4071 84.4432C72.7328 85.124 73.2214 85.7344 73.8728 86.2744L76.7112 88.7396L73.6402 91.3691C73.0818 91.8386 72.663 92.4256 72.3606 93.0829C72.0581 93.7638 71.9185 94.5151 71.9185 95.3603C71.9185 97.0272 72.5002 98.4358 73.6402 99.6097C74.7802 100.784 76.1528 101.371 77.7581 101.371C78.6189 101.371 79.4099 101.206 80.1079 100.854C80.8058 100.502 81.434 99.9853 81.9923 99.328L84.4119 96.5811L87.0641 99.6801C87.5295 100.22 88.0878 100.643 88.7392 100.924C89.3907 101.23 90.1584 101.371 91.0192 101.371C92.671 101.371 94.067 100.784 95.1837 99.6097C96.3004 98.4358 96.8588 97.0037 96.8588 95.3603C96.8588 94.5385 96.6959 93.7873 96.3935 93.1299C96.091 92.449 95.6257 91.8386 94.9976 91.2751M84.3887 100.502C83.5046 101.535 82.5042 102.38 81.3875 102.99C80.2475 103.624 79.0144 103.93 77.665 103.93C75.4316 103.93 73.4773 103.108 71.8487 101.464C70.2202 99.821 69.3826 97.8724 69.3826 95.595C69.3826 94.2099 69.6851 92.9421 70.3132 91.8151C70.9414 90.6882 71.7557 89.6787 72.7794 88.7865C71.779 87.8239 70.9647 86.744 70.3132 85.5701C69.6618 84.3962 69.3594 83.1284 69.3594 81.7198C69.3594 79.4894 70.1737 77.5642 71.8255 75.9677C73.454 74.3713 75.4083 73.5965 77.6418 73.5965C78.9911 73.5965 80.2242 73.8782 81.3642 74.4652C82.5042 75.0521 83.5046 75.8738 84.3654 76.9068C85.2262 75.8738 86.2033 75.0521 87.3201 74.4652C88.4368 73.8782 89.6698 73.5965 91.0192 73.5965C93.3225 73.5965 95.3 74.3947 96.9518 75.9912C98.6037 77.5877 99.4179 79.5598 99.4179 81.8606C99.4179 83.2223 99.0922 84.4666 98.4641 85.5936C97.8359 86.7205 96.9751 87.73 95.9049 88.6457C96.9751 89.5613 97.8359 90.5708 98.4641 91.6977C99.0922 92.8247 99.4179 94.069 99.4179 95.4307C99.4179 97.755 98.6037 99.7506 96.9751 101.417C95.3465 103.084 93.4155 103.906 91.1588 103.906C89.7862 103.906 88.5299 103.601 87.3666 102.99C86.2266 102.38 85.2262 101.535 84.3654 100.455" fill="#FF3A9E"/>
<path d="M84.4121 92.0968C85.3194 92.0968 86.0872 91.7916 86.7153 91.1577C87.3435 90.5238 87.6692 89.7491 87.6692 88.8335C87.6692 87.9178 87.3435 87.1431 86.7153 86.5092C86.0872 85.8753 85.3194 85.5466 84.4121 85.5466C83.5048 85.5466 82.737 85.8518 82.1088 86.4857C81.4807 87.1196 81.1782 87.8944 81.1782 88.81C81.1782 89.7256 81.4807 90.5004 82.1088 91.1343C82.737 91.7682 83.5048 92.0734 84.4121 92.0734V92.0968ZM95.021 91.3221L92.1361 88.763L95.2071 86.11C95.7655 85.617 96.1843 85.0301 96.4634 84.3727C96.7426 83.7153 96.8822 82.964 96.8822 82.1189C96.8822 80.4519 96.3238 79.0433 95.2071 77.9164C94.0904 76.7894 92.6945 76.226 91.0427 76.226C90.1818 76.226 89.4141 76.3668 88.7627 76.6486C88.1113 76.9303 87.5529 77.3529 87.0876 77.9164L84.4121 81.0154L81.7831 77.9164C81.3178 77.3529 80.7595 76.9303 80.108 76.6486C79.4566 76.3668 78.6889 76.226 77.8048 76.226C76.1995 76.226 74.8269 76.8129 73.6636 77.9868C72.5236 79.1607 71.942 80.5693 71.942 82.2128C71.942 83.0345 72.1048 83.7858 72.4073 84.4666C72.733 85.1475 73.2216 85.7579 73.873 86.2979L76.7113 88.763L73.6403 91.3925C73.082 91.8621 72.6632 92.449 72.3608 93.1064C72.0583 93.7872 71.9187 94.5385 71.9187 95.3837C71.9187 97.0506 72.5003 98.4593 73.6403 99.6332C74.7803 100.807 76.153 101.394 77.7583 101.394C78.6191 101.394 79.4101 101.23 80.108 100.877C80.806 100.525 81.4342 100.009 81.9925 99.3514L84.4121 96.6045L87.0643 99.7036C87.5296 100.244 88.088 100.666 88.7394 100.948C89.3908 101.253 90.1586 101.394 91.0194 101.394C92.6712 101.394 94.0671 100.807 95.1839 99.6332C96.3006 98.4593 96.8589 97.0271 96.8589 95.3837C96.8589 94.562 96.6961 93.8107 96.3936 93.1533C96.0912 92.4725 95.6259 91.8621 94.9977 91.2986L95.021 91.3221ZM84.4121 100.549C83.528 101.582 82.5276 102.427 81.4109 103.037C80.2709 103.671 79.0378 103.977 77.6885 103.977C75.455 103.977 73.5007 103.155 71.8722 101.511C70.2436 99.8679 69.4061 97.9193 69.4061 95.642C69.4061 94.2568 69.7085 92.989 70.3367 91.8621C70.9648 90.7351 71.7791 89.7256 72.8028 88.8335C71.8024 87.8709 70.9881 86.7909 70.3367 85.617C69.6853 84.4431 69.3828 83.1753 69.3828 81.7667C69.3828 79.5363 70.1971 77.6112 71.8489 76.0147C73.4775 74.4182 75.4317 73.6434 77.6652 73.6434C79.0146 73.6434 80.2476 73.9252 81.3876 74.5121C82.5276 75.099 83.528 75.9208 84.3888 76.9538C85.2496 75.9208 86.2268 75.099 87.3435 74.5121C88.4602 73.9252 89.6933 73.6434 91.0427 73.6434C93.3459 73.6434 95.3234 74.4417 96.9753 76.0382C98.6271 77.6346 99.4414 79.6067 99.4414 81.9076C99.4414 83.2693 99.1157 84.5136 98.4875 85.6405C97.8593 86.7674 96.9985 87.777 95.9283 88.6926C96.9985 89.6082 97.8593 90.6178 98.4875 91.7447C99.1157 92.8716 99.4414 94.1159 99.4414 95.4776C99.4414 97.8019 98.6271 99.7975 96.9985 101.464C95.37 103.131 93.439 103.953 91.1822 103.953C89.8096 103.953 88.5533 103.648 87.39 103.037C86.25 102.427 85.2496 101.582 84.3888 100.502L84.4121 100.549Z" fill="#FF3A9E"/>
</g>
<defs>
<clipPath id="clip0_496_8">
<rect width="58" height="64" fill="white" transform="translate(43 40)"/>
</clipPath>
</defs>
</svg>
