<svg width="143" height="144" viewBox="0 0 143 144" fill="none" xmlns="http://www.w3.org/2000/svg">
<path d="M141.5 72C141.5 110.946 110.15 142.5 71.5 142.5C32.8499 142.5 1.5 110.946 1.5 72C1.5 33.0541 32.8499 1.5 71.5 1.5C110.15 1.5 141.5 33.0541 141.5 72Z" stroke="#FF3A9E" stroke-width="3"/>
<g clip-path="url(#clip0_496_13)">
<path d="M71.4984 91.3265C72.2998 91.3265 73.007 91.0412 73.5727 90.4707C74.1384 89.9002 74.4213 89.2108 74.4213 88.4025C74.4213 87.5943 74.1384 86.8811 73.5727 86.3106C73.007 85.7401 72.3234 85.4548 71.4984 85.4548C70.6734 85.4548 69.9899 85.7401 69.4241 86.3106C68.8584 86.8811 68.5991 87.5705 68.5991 88.4025C68.5991 89.2345 68.882 89.9239 69.4477 90.4944C70.0134 91.065 70.697 91.3265 71.4984 91.3265ZM81.0448 90.6371L78.452 88.355L81.2098 85.9778C81.7048 85.5261 82.0819 85.0032 82.3412 84.4089C82.6005 83.8146 82.7184 83.1252 82.7184 82.3883C82.7184 80.8906 82.2234 79.6307 81.2098 78.6086C80.1962 77.5864 78.9705 77.0872 77.462 77.0872C76.6841 77.0872 76.0005 77.206 75.4113 77.4675C74.822 77.729 74.327 78.1093 73.9027 78.6086L71.4984 81.3899L69.1177 78.6086C68.6934 78.1093 68.1984 77.729 67.6091 77.4675C67.0199 77.206 66.3363 77.0872 65.5349 77.0872C64.097 77.0872 62.8477 77.6101 61.8106 78.6561C60.7735 79.7021 60.2549 80.962 60.2549 82.4596C60.2549 83.1965 60.3963 83.8621 60.6792 84.4802C60.962 85.0983 61.4099 85.645 61.9992 86.1442L64.5449 88.355L61.787 90.7322C61.292 91.1601 60.8913 91.6593 60.632 92.2773C60.3728 92.8954 60.2313 93.561 60.2313 94.3217C60.2313 95.7956 60.7499 97.0792 61.7635 98.149C62.8006 99.2187 64.0263 99.7417 65.4642 99.7417C66.242 99.7417 66.9492 99.5753 67.562 99.2662C68.1984 98.9572 68.7641 98.5055 69.2591 97.8875L71.4277 95.439L73.8084 98.2203C74.2327 98.6957 74.7277 99.0761 75.317 99.3376C75.9063 99.599 76.5898 99.7417 77.3677 99.7417C78.8527 99.7417 80.102 99.2187 81.1155 98.149C82.1291 97.0792 82.6241 95.8193 82.6241 94.3217C82.6241 93.5848 82.4827 92.9192 82.1998 92.3011C81.9169 91.7068 81.4927 91.1363 80.9505 90.6371M71.4041 98.9334C70.6263 99.8605 69.707 100.597 68.6934 101.168C67.6799 101.739 66.572 102.024 65.3463 102.024C63.3192 102.024 61.5749 101.287 60.1135 99.813C58.6285 98.3391 57.8978 96.58 57.8978 94.5357C57.8978 93.2995 58.1806 92.1585 58.7228 91.1363C59.2885 90.1141 60.0192 89.2108 60.9385 88.4263C60.0428 87.5467 59.312 86.5959 58.7228 85.5499C58.157 84.504 57.8742 83.3391 57.8742 82.103C57.8742 80.0824 58.6049 78.3708 60.0899 76.9445C61.5513 75.5182 63.2956 74.8051 65.3227 74.8051C66.5249 74.8051 67.6563 75.0666 68.6699 75.5895C69.6834 76.1125 70.5791 76.8494 71.357 77.7765C72.1348 76.8494 73.007 76.1125 74.0205 75.5895C75.0105 75.0666 76.1184 74.8051 77.3441 74.8051C79.4184 74.8051 81.1862 75.5182 82.6712 76.9683C84.1562 78.4184 84.8869 80.1775 84.8869 82.2456C84.8869 83.458 84.6041 84.5753 84.0384 85.5975C83.4726 86.6196 82.6948 87.523 81.7284 88.3312C82.6948 89.1395 83.4491 90.0666 84.0384 91.0887C84.6041 92.1109 84.8869 93.2282 84.8869 94.4406C84.8869 96.5325 84.1562 98.3154 82.6948 99.813C81.2334 101.311 79.4891 102.048 77.462 102.048C76.2363 102.048 75.1048 101.786 74.0677 101.239C73.0306 100.693 72.1348 99.9318 71.357 98.981M71.357 91.374C72.1584 91.374 72.8656 91.0887 73.4313 90.5182C73.997 89.9477 74.2798 89.2583 74.2798 88.4501C74.2798 87.6418 73.997 86.9287 73.4313 86.3582C72.8656 85.7876 72.182 85.5024 71.357 85.5024C70.532 85.5024 69.8484 85.7876 69.2827 86.3582C68.717 86.9287 68.4577 87.6181 68.4577 88.4501C68.4577 89.2821 68.7406 89.9715 69.3063 90.542C69.872 91.1125 70.5556 91.374 71.357 91.374ZM80.9034 90.6846L78.3105 88.4025L81.0684 86.0254C81.5634 85.5737 81.9405 85.0507 82.1998 84.4564C82.4591 83.8621 82.5769 83.1727 82.5769 82.4358C82.5769 80.9382 82.0819 79.6783 81.0684 78.6561C80.0548 77.6339 78.8291 77.1347 77.3205 77.1347C76.5427 77.1347 75.8591 77.2536 75.2698 77.5151C74.6805 77.7765 74.1856 78.1569 73.7613 78.6561L71.357 81.4374L68.9763 78.6561C68.552 78.1569 68.057 77.7765 67.4677 77.5151C66.8784 77.2536 66.1949 77.1347 65.3934 77.1347C63.9556 77.1347 62.7063 77.6577 61.6692 78.7036C60.632 79.7496 60.1135 81.0095 60.1135 82.5071C60.1135 83.2441 60.2549 83.9097 60.5378 84.5277C60.8206 85.1458 61.2685 85.6925 61.8577 86.1918L64.4035 88.4025L61.6456 90.7797C61.1506 91.2076 60.7499 91.7068 60.4906 92.3249C60.2313 92.9429 60.0899 93.6086 60.0899 94.3693C60.0899 95.8431 60.6085 97.1268 61.622 98.1965C62.6592 99.2662 63.8849 99.7892 65.3227 99.7892C66.1006 99.7892 66.8077 99.6228 67.4206 99.3138C68.057 99.0048 68.6227 98.5531 69.1177 97.935L71.2863 95.4865L73.667 98.2678C74.0913 98.7433 74.5863 99.1236 75.1755 99.3851C75.7648 99.6466 76.4484 99.7892 77.2262 99.7892C78.7112 99.7892 79.9605 99.2662 80.9741 98.1965C81.9877 97.1268 82.4827 95.8669 82.4827 94.3693C82.4827 93.6323 82.3412 92.9667 82.0584 92.3487C81.7755 91.7544 81.3512 91.1838 80.8091 90.6846H80.9034ZM71.357 98.981C70.5791 99.9081 69.6599 100.645 68.6463 101.216C67.6327 101.786 66.5249 102.071 65.2992 102.071C63.272 102.071 61.5277 101.334 60.0663 99.8605C58.5813 98.3867 57.8506 96.6276 57.8506 94.5832C57.8506 93.3471 58.1335 92.206 58.6756 91.1838C59.2413 90.1616 59.972 89.2583 60.8913 88.4738C59.9956 87.5943 59.2649 86.6434 58.6756 85.5975C58.1099 84.5515 57.827 83.3867 57.827 82.1506C57.827 80.1299 58.5578 78.4184 60.0428 76.9921C61.5042 75.5658 63.2485 74.8526 65.2756 74.8526C66.4777 74.8526 67.6091 75.1141 68.6227 75.6371C69.6363 76.1601 70.532 76.897 71.3098 77.8241C72.0877 76.897 72.9598 76.1601 73.9734 75.6371C74.9634 75.1141 76.0713 74.8526 77.297 74.8526C79.3712 74.8526 81.1391 75.5658 82.6241 77.0158C84.1091 78.4659 84.8398 80.225 84.8398 82.2932C84.8398 83.5055 84.5569 84.6228 83.9912 85.645C83.4255 86.6672 82.6477 87.5705 81.6812 88.3788C82.6477 89.187 83.4019 90.1141 83.9912 91.1363C84.5569 92.1585 84.8398 93.2757 84.8398 94.4881C84.8398 96.58 84.1091 98.3629 82.6477 99.8605C81.1862 101.358 79.442 102.095 77.4148 102.095C76.1891 102.095 75.0577 101.834 74.0205 101.287C72.9834 100.74 72.0877 99.9794 71.3098 99.0285L71.357 98.981ZM104.97 75.0903L71.4984 45.9223L37.9093 75.0428L36 72.7845L71.4984 42L106.997 72.7845L105.088 75.0428L104.97 75.0903Z" fill="#FF3A9E"/>
</g>
<defs>
<clipPath id="clip0_496_13">
<rect width="71.0204" height="60" fill="white" transform="translate(36 42)"/>
</clipPath>
</defs>
</svg>
