<svg width="143" height="144" viewBox="0 0 143 144" fill="none" xmlns="http://www.w3.org/2000/svg">
<path d="M141.5 72C141.5 110.946 110.15 142.5 71.5 142.5C32.8499 142.5 1.5 110.946 1.5 72C1.5 33.0541 32.8499 1.5 71.5 1.5C110.15 1.5 141.5 33.0541 141.5 72Z" stroke="#FF3A9E" stroke-width="3"/>
<g clip-path="url(#clip0_496_9)">
<path d="M71.989 84.5018C75.4459 84.5018 78.3963 83.2913 80.8404 80.8481C83.2844 78.405 84.4954 75.4556 84.4954 72C84.4954 68.5444 83.2844 65.573 80.8404 63.1519C78.3963 60.7087 75.4459 59.4982 71.989 59.4982C68.5321 59.4982 65.5817 60.7087 63.1376 63.1519C60.6936 65.595 59.4826 68.5444 59.4826 72C59.4826 75.4556 60.6936 78.405 63.1376 80.8481C65.5817 83.2913 68.5321 84.5018 71.989 84.5018ZM71.989 87.055C67.8055 87.055 64.2606 85.6023 61.3101 82.675C58.3817 79.7476 56.9064 76.204 56.9064 72.022C56.9064 67.8401 58.3596 64.2964 61.2881 61.347C64.2165 58.4197 67.7615 56.945 71.945 56.945C76.1284 56.945 79.6734 58.3977 82.6239 61.325C85.5743 64.2524 87.0275 67.796 87.0275 71.978C87.0275 76.1599 85.5523 79.7036 82.6459 82.653C79.7174 85.5803 76.1725 87.055 71.989 87.055ZM51.6661 94.1864L49.9046 92.2495L56.8404 85.3162L57.7651 86.1966L58.756 87.099L51.6661 94.1864ZM42 73.2766V70.7234H51.9743V73.2766H42ZM92.3119 94.1864L85.3101 86.989L87.0495 85.3162L94.0954 92.2274L92.3119 94.1864ZM57.0606 58.6838L49.8165 51.7506L51.7541 49.9237L58.822 56.945L57.0606 58.6838ZM70.7339 92.0954H73.2881V102H70.7339V92.0954ZM92.0477 70.7234H102V73.2766H92.0477V70.7234ZM87.0495 58.7718L85.2881 57.011L92.2459 49.7916L94.1174 51.6845L87.0495 58.7498V58.7718ZM70.7339 42H73.2881V51.9486H70.7339V42Z" fill="#FF3A9E"/>
</g>
<defs>
<clipPath id="clip0_496_9">
<rect width="60" height="60" fill="white" transform="translate(42 42)"/>
</clipPath>
</defs>
</svg>
