<svg width="143" height="144" viewBox="0 0 143 144" fill="none" xmlns="http://www.w3.org/2000/svg">
<g clip-path="url(#clip0_496_12)">
<path d="M71.8421 97C64.0021 97 57.5795 94.6616 52.5521 89.9847C47.5248 85.3079 45 79.228 45 71.7227C45 70.1192 45.6201 68.8498 46.8603 67.8921C48.1006 66.9345 49.4515 66.7118 50.9354 67.2018C51.7105 67.4467 52.5078 67.714 53.3273 68.048C54.1688 68.3598 55.1433 68.7607 56.2949 69.2507C59.7499 70.676 62.5847 71.6336 64.8437 72.1904C67.1027 72.7249 69.4281 73.0144 71.8421 73.0144C74.2561 73.0144 76.4487 72.7472 78.6634 72.2349C80.8781 71.7227 83.6464 70.7651 86.9463 69.3843C88.3194 68.8275 89.4268 68.3821 90.2905 68.0703C91.1543 67.7362 91.9737 67.4467 92.7488 67.2018C94.2327 66.7341 95.5836 66.979 96.8239 67.959C98.0641 68.9389 98.6842 70.186 98.6842 71.745C98.6842 75.3083 97.9755 78.6266 96.5803 81.6777C95.1628 84.7288 93.2582 87.4013 90.8442 89.6952C88.4302 91.9668 85.5954 93.7708 82.3176 95.0625C79.062 96.3542 75.5628 97.0223 71.8421 97.0223M71.8421 64.4847C74.0125 64.4847 75.8729 63.7052 77.4231 62.1463C78.9734 60.5873 79.7486 58.7166 79.7486 56.5118C79.7486 54.307 78.9734 52.4585 77.4231 50.8996C75.8729 49.3406 74.0125 48.5611 71.82 48.5611C69.6274 48.5611 67.7892 49.3406 66.2389 50.8996C64.6886 52.4585 63.9135 54.3515 63.9135 56.5341C63.9135 58.7166 64.6886 60.5873 66.2389 62.1463C67.7892 63.7052 69.6496 64.4847 71.8421 64.4847ZM71.8421 67.0236C68.9409 67.0236 66.4825 65.9991 64.445 63.9502C62.4075 61.9013 61.3887 59.4293 61.3887 56.5118C61.3887 53.5943 62.4075 51.1223 64.445 49.0734C66.4825 47.0245 68.9409 46 71.8421 46C74.7434 46 77.2017 47.0245 79.2392 49.0734C81.2767 51.1223 82.2955 53.5943 82.2955 56.5118C82.2955 59.4293 81.2767 61.9013 79.2392 63.9502C77.2017 65.9991 74.7434 67.0236 71.8421 67.0236ZM71.8421 94.4834C77.2017 94.4834 81.8968 93.1472 85.9497 90.4969C90.0026 87.8467 92.9039 84.3502 94.6535 80.0297C89.7368 82.2122 85.4846 83.8157 81.919 84.8179C78.3533 85.8201 74.987 86.3101 71.8421 86.3101C68.6972 86.3101 65.3088 85.7756 61.4773 84.7511C57.6681 83.7044 53.5266 82.1677 49.0529 80.0965C50.7361 84.4393 53.5709 87.9358 57.6016 90.5638C61.6102 93.1917 66.3718 94.5057 71.8421 94.5057M71.8421 83.7712C74.7877 83.7712 77.9768 83.2812 81.4096 82.279C84.8424 81.2769 89.5818 79.4729 95.5836 76.845C95.8051 75.9987 95.938 75.1747 96.0266 74.3507C96.1152 73.5266 96.1595 72.6804 96.1595 71.7673C96.1595 71.0546 95.8937 70.4755 95.34 70.0301C94.7863 69.5847 94.1662 69.4734 93.4797 69.6738C92.7931 69.9188 92.018 70.186 91.1542 70.4978C90.2905 70.7873 89.2275 71.2105 87.9429 71.7673C84.5323 73.1703 81.6311 74.1725 79.217 74.7515C76.803 75.3306 74.3669 75.6201 71.8643 75.6201C69.3616 75.6201 66.7483 75.3306 64.29 74.7515C61.8317 74.1725 58.8418 73.148 55.3205 71.7227C54.0138 71.1659 53.0172 70.7651 52.3085 70.4978C51.5998 70.2306 50.9132 69.9633 50.2267 69.7183C49.5623 69.4956 48.9422 69.607 48.3885 70.0524C47.8127 70.4978 47.5469 71.0769 47.5469 71.8341C47.5469 72.7249 47.5912 73.5935 47.6576 74.4397C47.7462 75.286 47.8791 76.1323 48.1006 76.9786C53.1279 79.2948 57.6016 81.0096 61.5438 82.1454C65.4859 83.2812 68.9187 83.8603 71.8643 83.8603" fill="#FF3A9E"/>
</g>
<path d="M141.5 72C141.5 110.946 110.15 142.5 71.5 142.5C32.8499 142.5 1.5 110.946 1.5 72C1.5 33.0541 32.8499 1.5 71.5 1.5C110.15 1.5 141.5 33.0541 141.5 72Z" stroke="#FF3A9E" stroke-width="3"/>
<defs>
<clipPath id="clip0_496_12">
<rect width="53.6842" height="51" fill="white" transform="translate(45 46)"/>
</clipPath>
</defs>
</svg>
