<svg width="143" height="144" viewBox="0 0 143 144" fill="none" xmlns="http://www.w3.org/2000/svg">
<path d="M141.5 72C141.5 110.946 110.15 142.5 71.5 142.5C32.8499 142.5 1.5 110.946 1.5 72C1.5 33.0541 32.8499 1.5 71.5 1.5C110.15 1.5 141.5 33.0541 141.5 72Z" stroke="#FF3A9E" stroke-width="3"/>
<g clip-path="url(#clip0_496_10)">
<path d="M72.8807 99H70.1412V86.7948C58.92 86.0936 50 76.7809 50 65.4084C50 54.0359 59.6432 44 71.5 44C83.3568 44 93 53.5976 93 65.4084C93 77.2191 84.08 86.0717 72.8588 86.7948V99H72.8807ZM70.1412 71.9163H72.8807V84.0339C82.5897 83.3327 90.2824 75.247 90.2824 65.4084C90.2824 55.5697 81.8445 46.739 71.5 46.739C61.1555 46.739 52.7396 55.1096 52.7396 65.4084C52.7396 75.7072 60.4322 83.3327 70.1412 84.0339V71.9163Z" fill="#FF3A9E"/>
</g>
<defs>
<clipPath id="clip0_496_10">
<rect width="43" height="55" fill="white" transform="translate(50 44)"/>
</clipPath>
</defs>
</svg>
