<svg width="144" height="13" viewBox="0 0 144 13" fill="none" xmlns="http://www.w3.org/2000/svg">
<g clip-path="url(#clip0_24_174)">
<path d="M51.2206 0.601209H52.9951V12.4726H51.2206L45.2859 3.64365V12.4733H43.5114V0.601209H45.2859L51.2206 9.42201V0.601209ZM38.1031 12.4726H39.8529V0.601209H38.1031V12.4726ZM17.8823 4.36899C17.8823 3.92951 17.7736 3.52916 17.5554 3.16945C17.3379 2.80973 17.0461 2.52388 16.6809 2.31189C16.3156 2.10064 15.9091 1.99428 15.4628 1.99428C15.0158 1.99428 14.6101 2.10064 14.2448 2.31189C13.8796 2.52388 13.5878 2.80899 13.3703 3.16945C13.1528 3.5299 13.0433 3.92951 13.0433 4.36899V8.68854C13.0433 9.13394 13.1521 9.53649 13.3703 9.89621C13.5878 10.2559 13.8796 10.5418 14.2448 10.7538C14.6101 10.965 15.0166 11.0714 15.4628 11.0714C15.9091 11.0714 16.3149 10.965 16.6809 10.7538C17.0461 10.5418 17.3379 10.2559 17.5554 9.89621C17.7736 9.53649 17.8823 9.13394 17.8823 8.68854V4.36899ZM17.6401 0.885584C18.2701 1.24013 18.7658 1.72763 19.1258 2.34882C19.4858 2.97002 19.6658 3.68428 19.6658 4.49235V8.58144C19.6658 9.38951 19.4858 10.1045 19.1258 10.725C18.7658 11.3462 18.2701 11.8344 17.6401 12.1882C17.0093 12.5427 16.2841 12.72 15.4636 12.72C14.6431 12.72 13.9171 12.5427 13.2871 12.1882C12.6563 11.8337 12.1606 11.3462 11.8006 10.725C11.4406 10.1045 11.2606 9.38951 11.2606 8.58144V4.49235C11.2606 3.68428 11.4406 2.97002 11.8006 2.34882C12.1606 1.72763 12.6556 1.24013 13.2871 0.885584C13.9171 0.531039 14.6431 0.353766 15.4636 0.353766C16.2841 0.353766 17.0093 0.531039 17.6401 0.885584ZM139.838 10.5226C139.85 10.5152 139.859 10.5056 139.869 10.4982L138.763 9.41388L139.884 8.30888L140.916 9.32524C140.987 9.19672 141.056 9.06524 141.115 8.92343C141.4 8.23945 141.542 7.44394 141.542 6.53689C141.542 5.62985 141.4 4.83729 141.115 4.15848C140.83 3.47968 140.405 2.95081 139.838 2.57189C139.272 2.19223 138.562 2.00019 137.708 1.99428C136.854 1.9832 136.144 2.16712 135.578 2.54678C135.011 2.92644 134.586 3.45899 134.301 4.14593C134.017 4.83286 133.871 5.62985 133.866 6.53689C133.86 7.44394 134 8.23649 134.285 8.9153C134.57 9.59411 134.998 10.123 135.57 10.5026C136.142 10.8816 136.855 11.0743 137.708 11.0795C138.562 11.0906 139.272 10.9052 139.838 10.5226ZM142.73 9.76843C142.584 10.0727 142.414 10.3534 142.224 10.6134L143.233 11.6069L142.128 12.7112L141.116 11.7192C141.008 11.796 140.899 11.8706 140.784 11.94C139.933 12.4593 138.908 12.7193 137.708 12.7193C136.502 12.7193 135.476 12.4593 134.627 11.94C133.779 11.4208 133.13 10.6969 132.681 9.76769C132.232 8.83922 132.008 7.76155 132.008 6.53615C132.008 5.31075 132.232 4.23382 132.681 3.30462C133.13 2.37615 133.779 1.65155 134.627 1.13229C135.476 0.613027 136.502 0.353027 137.708 0.353027C138.908 0.353027 139.933 0.613027 140.784 1.13229C141.635 1.65155 142.284 2.37615 142.73 3.30462C143.177 4.23382 143.4 5.31075 143.4 6.53615C143.4 7.76229 143.177 8.83996 142.73 9.76843ZM6.7531 5.52718C6.33985 5.28121 5.87185 5.12757 5.3491 5.06331L8.32735 2.24172V0.601209H1.0771V2.24172H6.1846L2.5006 5.44888L3.3211 6.80945C3.49435 6.72155 3.6796 6.6499 3.8776 6.59524C4.0756 6.54058 4.2691 6.51326 4.4596 6.51326C5.12935 6.51326 5.67235 6.72746 6.08785 7.15587C6.50335 7.58502 6.7111 8.12865 6.7111 8.78826C6.7111 9.22774 6.6166 9.61701 6.42685 9.9553C6.2371 10.2929 5.9746 10.561 5.6401 10.7589C5.3056 10.9569 4.9171 11.0588 4.47685 11.064C3.9856 11.0692 3.53935 10.9362 3.13735 10.6644C2.73535 10.3926 2.45335 10.0011 2.29135 9.48922L0.600098 9.95013C0.772598 10.5108 1.05085 10.9968 1.4326 11.4097C1.8151 11.8218 2.2681 12.1394 2.7931 12.3618C3.31735 12.5841 3.87835 12.6956 4.47535 12.6956C5.2291 12.6956 5.90785 12.528 6.51385 12.1926C7.1191 11.8573 7.6021 11.3956 7.9621 10.8077C8.3221 10.2197 8.5021 9.54684 8.5021 8.78826C8.5021 8.08507 8.34985 7.44911 8.04535 6.87962C7.7416 6.31013 7.31035 5.85956 6.7531 5.52718ZM75.2176 9.97007C75.3991 9.69308 75.4891 9.36144 75.4891 8.97661C75.4891 8.61911 75.4096 8.29632 75.2506 8.00752C75.0916 7.71945 74.8629 7.49121 74.5636 7.32354C74.2651 7.15587 73.9149 7.0724 73.5129 7.0724H70.2564V10.8313H73.4034C73.7994 10.8313 74.1556 10.7575 74.4706 10.609C74.7871 10.4613 75.0361 10.2478 75.2176 9.97007ZM70.2579 5.44888H73.1964C73.5196 5.44888 73.8114 5.38462 74.0709 5.25536C74.3304 5.1261 74.5366 4.93922 74.6904 4.69473C74.8441 4.45024 74.9206 4.15479 74.9206 3.80837C74.9206 3.34672 74.7639 2.96706 74.4519 2.67087C74.1391 2.37394 73.7206 2.22547 73.1964 2.22547H70.2579V5.44888ZM75.4246 6.19712C75.9384 6.40394 76.3509 6.71047 76.6614 7.1182C77.0746 7.65962 77.2809 8.29041 77.2809 9.01058C77.2809 9.7086 77.1399 10.3158 76.8579 10.8321C76.5759 11.3491 76.1656 11.7509 75.6271 12.0397C75.0886 12.3285 74.4369 12.4726 73.6726 12.4726H68.4826V0.601209H73.2204C73.9846 0.601209 74.6266 0.754846 75.1456 1.06286C75.6646 1.37087 76.0554 1.76752 76.3179 2.25428C76.5804 2.7403 76.7116 3.25291 76.7116 3.79138C76.7116 4.44581 76.5481 5.00644 76.2219 5.47325C76.0066 5.78127 75.7381 6.01837 75.4246 6.19712ZM87.9519 8.01269C87.9519 8.51274 87.8664 8.95519 87.6969 9.34002C87.5266 9.72485 87.2964 10.0462 87.0061 10.3047C86.7159 10.5632 86.3911 10.7597 86.0311 10.8941C85.6711 11.0285 85.3014 11.0958 84.9219 11.0958C84.5476 11.0958 84.1809 11.03 83.8216 10.8978C83.4616 10.7663 83.1361 10.5706 82.8466 10.3128C82.5564 10.0543 82.3246 9.73297 82.1521 9.34814C81.9789 8.96331 81.8926 8.51791 81.8926 8.01269V0.601209L80.1181 0.609334V8.1028C80.1181 9.03718 80.3221 9.84894 80.7294 10.5388C81.1366 11.2287 81.7021 11.7642 82.4244 12.1468C83.1474 12.5287 83.9799 12.72 84.9234 12.72C85.8661 12.72 86.6994 12.5294 87.4224 12.1468C88.1454 11.765 88.7101 11.228 89.1174 10.5351C89.5246 9.84229 89.7286 9.032 89.7286 8.1028V0.601209H87.9541V8.01269H87.9519ZM108.73 5.58922L105.809 0.601948H103.766L107.843 7.56803V12.4733H109.617V7.56803L113.693 0.601948H111.651L108.73 5.58922ZM64.2916 6.72672C63.9594 6.49627 63.6166 6.31604 63.2626 6.18678C62.9079 6.05752 62.5914 5.95411 62.3124 5.87803L60.0856 5.25979C59.8014 5.18297 59.5149 5.08547 59.2276 4.96655C58.9404 4.84837 58.6989 4.68808 58.5039 4.48422C58.3081 4.2811 58.2106 4.01445 58.2106 3.68428C58.2106 3.34894 58.3209 3.05274 58.5414 2.79348C58.7619 2.53496 59.0574 2.33479 59.4286 2.19149C59.7999 2.04894 60.2079 1.98246 60.6549 1.99354C61.1184 1.99945 61.5474 2.08882 61.9441 2.26166C62.3401 2.4345 62.6746 2.68195 62.9491 3.00325C63.2221 3.3253 63.4014 3.70865 63.4846 4.15331L65.3596 3.84013C65.1976 3.10962 64.9036 2.48695 64.4769 1.97286C64.0501 1.45877 63.5146 1.06433 62.8696 0.789561C62.2254 0.514789 61.4956 0.372232 60.6811 0.360414C59.8719 0.360414 59.1406 0.491152 58.4881 0.751891C57.8349 1.01337 57.3174 1.3982 56.9349 1.90638C56.5524 2.41456 56.3619 3.03428 56.3619 3.76479C56.3619 4.2486 56.4429 4.65928 56.6041 4.99757C56.7661 5.33587 56.9769 5.61877 57.2364 5.84701C57.4959 6.07524 57.7816 6.25916 58.0944 6.3995C58.4064 6.53985 58.7139 6.6536 59.0154 6.74149L62.1046 7.64041C62.3274 7.70615 62.5329 7.78445 62.7196 7.8753C62.9064 7.96615 63.0654 8.07326 63.1966 8.19661C63.3279 8.31996 63.4314 8.46473 63.5064 8.62945C63.5814 8.79416 63.6196 8.98399 63.6196 9.1982C63.6196 9.59411 63.4959 9.93314 63.2469 10.2168C62.9986 10.4997 62.6701 10.7168 62.2636 10.8675C61.8564 11.0189 61.4101 11.0943 60.9241 11.0943C60.1426 11.0943 59.4594 10.8926 58.8729 10.4886C58.2871 10.0846 57.9024 9.51951 57.7179 8.79416L55.8931 9.06598C56.0274 9.81865 56.3184 10.4687 56.7676 11.016C57.2169 11.5626 57.7891 11.9836 58.4836 12.2776C59.1789 12.5716 59.9581 12.7185 60.8236 12.7185C61.4431 12.7185 62.0319 12.6417 62.5899 12.4881C63.1479 12.3344 63.6399 12.1047 64.0674 11.7997C64.4941 11.4946 64.8309 11.1157 65.0761 10.6622C65.3214 10.2087 65.4444 9.68201 65.4444 9.08297C65.4444 8.5061 65.3356 8.02598 65.1181 7.64411C64.8991 7.26371 64.6239 6.95718 64.2916 6.72672ZM95.0334 6.57825H98.0889C98.2006 6.57825 98.3251 6.57308 98.4616 6.562C98.5981 6.55093 98.7279 6.53172 98.8509 6.50439C99.2079 6.42166 99.4959 6.26951 99.7134 6.04644C99.9309 5.82411 100.087 5.56706 100.182 5.27604C100.277 4.98502 100.325 4.69325 100.325 4.40223C100.325 4.11121 100.277 3.82093 100.182 3.53286C100.087 3.24479 99.9309 2.98848 99.7134 2.76615C99.4959 2.54308 99.2086 2.39093 98.8509 2.30894C98.7279 2.2757 98.5981 2.25354 98.4616 2.24246C98.3251 2.23138 98.2006 2.22621 98.0889 2.22621H95.0334V6.57825ZM101.37 6.84564C101.042 7.30286 100.602 7.64263 100.055 7.87013L102.333 12.4718H100.332L98.2351 8.2099H95.0334V12.4718H93.2836V0.601209H98.1556C98.2726 0.601209 98.4181 0.605641 98.5914 0.613766C98.7639 0.621891 98.9289 0.639618 99.0849 0.667686C99.7546 0.771834 100.314 0.997118 100.763 1.34354C101.213 1.68996 101.549 2.12723 101.772 2.65462C101.995 3.182 102.107 3.76479 102.107 4.40223C102.107 5.34695 101.861 6.16166 101.37 6.84564ZM128.504 6.72672C128.172 6.49627 127.829 6.31604 127.475 6.18678C127.121 6.05752 126.803 5.95411 126.524 5.87803L124.298 5.25979C124.013 5.18297 123.727 5.08547 123.44 4.96655C123.152 4.84837 122.911 4.68808 122.715 4.48422C122.519 4.2811 122.422 4.01445 122.422 3.68428C122.422 3.34894 122.532 3.05274 122.753 2.79348C122.973 2.53496 123.269 2.33479 123.64 2.19149C124.011 2.04894 124.42 1.98246 124.866 1.99354C125.33 1.99945 125.759 2.08882 126.155 2.26166C126.551 2.4345 126.887 2.68195 127.16 3.00325C127.433 3.3253 127.613 3.70865 127.696 4.15331L129.571 3.84013C129.409 3.10962 129.115 2.48695 128.688 1.97286C128.261 1.45877 127.725 1.06433 127.081 0.789561C126.437 0.514789 125.707 0.372232 124.892 0.360414C124.083 0.360414 123.352 0.491152 122.699 0.751891C122.046 1.01337 121.529 1.3982 121.147 1.90638C120.764 2.41456 120.574 3.03428 120.574 3.76479C120.574 4.2486 120.655 4.65928 120.817 4.99757C120.979 5.33587 121.19 5.61877 121.448 5.84701C121.708 6.07524 121.994 6.25916 122.307 6.3995C122.619 6.53985 122.927 6.6536 123.227 6.74149L126.316 7.64041C126.539 7.70615 126.744 7.78445 126.931 7.8753C127.118 7.96615 127.277 8.07326 127.408 8.19661C127.539 8.31996 127.642 8.46473 127.718 8.62945C127.793 8.79416 127.831 8.98399 127.831 9.1982C127.831 9.59411 127.706 9.93314 127.458 10.2168C127.21 10.4997 126.882 10.7168 126.475 10.8675C126.067 11.0189 125.621 11.0943 125.135 11.0943C124.354 11.0943 123.671 10.8926 123.085 10.4886C122.498 10.0846 122.114 9.51951 121.93 8.79416L120.105 9.06598C120.239 9.81865 120.53 10.4687 120.98 11.016C121.428 11.5626 122 11.9836 122.696 12.2776C123.39 12.5716 124.17 12.7185 125.035 12.7185C125.654 12.7185 126.243 12.6417 126.801 12.4881C127.359 12.3344 127.852 12.1047 128.279 11.7997C128.706 11.4946 129.042 11.1157 129.287 10.6622C129.533 10.2087 129.656 9.68201 129.656 9.08297C129.656 8.5061 129.547 8.02598 129.329 7.64411C129.111 7.26371 128.836 6.95718 128.504 6.72672ZM28.2496 12.4726H29.9964V7.40553H28.2496V12.4726ZM34.3824 5.67416H29.9964V7.40553H34.3824V5.67416ZM28.2496 5.67416H29.9964V2.32666H35.3874V0.601209H28.2496V5.67416Z" fill="white"/>
</g>
<defs>
<clipPath id="clip0_24_174">
<rect width="144" height="13" fill="white"/>
</clipPath>
</defs>
</svg>
