<svg width="23" height="15" viewBox="0 0 23 15" fill="none" xmlns="http://www.w3.org/2000/svg">
<g clip-path="url(#clip0_352_820)">
<path d="M21.6364 7.13239C20.736 6.24507 19.6297 5.79718 18.3519 5.79718H17.4172L15.6763 1.10704C15.5477 0.760563 15.3333 0.490141 15.0332 0.287324C14.7416 0.0929577 14.4071 0 14.0555 0H11.7229V1.44507H14.0984C14.1499 1.44507 14.1927 1.45352 14.227 1.47887C14.227 1.47887 14.2613 1.50423 14.2871 1.57183L15.8564 5.78873H10.5738L10.0335 4.31831H11.2427V2.87324H6.80907V4.31831H8.48133L10.4109 9.66761H9.24456C9.07305 8.59437 8.57566 7.69014 7.76097 6.96338C6.8691 6.17746 5.83144 5.78028 4.67372 5.78028C3.38737 5.78028 2.2811 6.23662 1.37208 7.14084C0.463057 8.04507 0.00854492 9.14366 0.00854492 10.4028C0.00854492 11.662 0.463057 12.7859 1.34635 13.6732C2.23822 14.5521 3.34449 15 4.64799 15C5.80571 15 6.85195 14.6028 7.74382 13.8169C8.56708 13.0901 9.07305 12.1859 9.23599 11.1211H13.7468C13.9355 12.1606 14.4414 13.0479 15.2304 13.7746C16.0965 14.569 17.1428 14.9662 18.3434 14.9662C19.6383 14.9662 20.7446 14.5099 21.645 13.6141C22.5369 12.7183 22.9914 11.6282 22.9914 10.3606C22.9914 9.09296 22.5369 8.01972 21.6279 7.13239H21.6364ZM18.3519 13.5549C17.4601 13.5549 16.7054 13.2423 16.088 12.6338C15.4791 12.0254 15.1618 11.2732 15.1618 10.4028C15.1618 9.86197 15.3076 9.32113 15.6077 8.78873C15.8393 8.37465 16.1566 8.02817 16.5511 7.77465L17.5373 10.4113L18.9008 9.90423L17.9232 7.26761C18.0689 7.26761 18.2062 7.26761 18.3519 7.26761C19.2438 7.26761 19.9985 7.57183 20.6159 8.17183C21.2248 8.77183 21.5335 9.52394 21.5335 10.4113C21.5335 11.2986 21.2248 12.0338 20.6074 12.6423C19.9985 13.2507 19.2352 13.5634 18.3519 13.5634V13.5549ZM14.9217 7.2338C14.6558 7.52113 14.4243 7.85916 14.2528 8.24789C14.0041 8.78028 13.8411 9.26197 13.7554 9.67606H11.9974L11.0969 7.2338H14.9217ZM7.74382 11.1211C7.54658 11.8225 7.19497 12.3887 6.68901 12.8197C6.09729 13.3183 5.41123 13.5634 4.64799 13.5634C3.75612 13.5634 3.00146 13.2507 2.39259 12.6423C1.78371 12.0338 1.46641 11.2817 1.46641 10.4113C1.46641 9.54084 1.77514 8.78873 2.39259 8.18028C3.00146 7.58028 3.7647 7.27606 4.66514 7.27606C5.41981 7.27606 6.09729 7.52113 6.68901 8.00282C7.19497 8.4169 7.54658 8.97465 7.74382 9.67606H4.90526V11.1211H7.74382Z" fill="#FF3A9E"/>
</g>
<defs>
<clipPath id="clip0_352_820">
<rect width="23" height="15" fill="white"/>
</clipPath>
</defs>
</svg>
