<svg width="16" height="10" viewBox="0 0 16 10" fill="none" xmlns="http://www.w3.org/2000/svg">
<g clip-path="url(#clip0_352_842)">
<path d="M14.5383 4.75493C13.9333 4.16338 13.1899 3.86479 12.3313 3.86479H11.7032L10.5335 0.738028C10.4471 0.507042 10.303 0.326761 10.1013 0.191549C9.90541 0.0619718 9.68067 0 9.44442 0H7.87707V0.96338H9.47323C9.50781 0.96338 9.53662 0.969014 9.55967 0.985916C9.55967 0.985916 9.58272 1.00282 9.6 1.04789L10.6545 3.85915H7.10492L6.74189 2.87887H7.55438V1.91549H4.57526V2.87887H5.69891L6.99543 6.44507H6.21176C6.09651 5.72958 5.7623 5.12676 5.21488 4.64225C4.61559 4.11831 3.91835 3.85352 3.14044 3.85352C2.27609 3.85352 1.53275 4.15775 0.921946 4.76056C0.31114 5.36338 0.0057373 6.09578 0.0057373 6.93521C0.0057373 7.77465 0.31114 8.52394 0.904659 9.11549C1.50394 9.70141 2.24728 10 3.12315 10C3.90107 10 4.60407 9.73521 5.20335 9.21127C5.75653 8.72676 6.09651 8.12394 6.206 7.41408H9.23698C9.36375 8.10704 9.70372 8.69859 10.2339 9.1831C10.8159 9.71268 11.5189 9.97746 12.3256 9.97746C13.1957 9.97746 13.939 9.67324 14.5441 9.07606C15.1434 8.47887 15.4488 7.75211 15.4488 6.90704C15.4488 6.06197 15.1434 5.34648 14.5325 4.75493H14.5383ZM12.3313 9.03662C11.7321 9.03662 11.225 8.82817 10.8101 8.42253C10.401 8.0169 10.1878 7.51549 10.1878 6.93521C10.1878 6.57465 10.2857 6.21408 10.4874 5.85915C10.643 5.5831 10.8562 5.35211 11.1213 5.1831L11.7839 6.94085L12.7001 6.60282L12.0432 4.84507C12.1412 4.84507 12.2334 4.84507 12.3313 4.84507C12.9306 4.84507 13.4377 5.04789 13.8526 5.44789C14.2617 5.84789 14.4692 6.3493 14.4692 6.94085C14.4692 7.53239 14.2617 8.02254 13.8468 8.42817C13.4377 8.8338 12.9249 9.04225 12.3313 9.04225V9.03662ZM10.0264 4.82254C9.84778 5.01408 9.6922 5.23944 9.57695 5.49859C9.40985 5.85352 9.30036 6.17465 9.24274 6.4507H8.06146L7.45642 4.82254H10.0264ZM5.20335 7.41408C5.07082 7.88169 4.83456 8.25916 4.49459 8.54648C4.09699 8.87887 3.636 9.04225 3.12315 9.04225C2.52387 9.04225 2.01679 8.8338 1.60766 8.42817C1.19854 8.02254 0.985332 7.52113 0.985332 6.94085C0.985332 6.36056 1.19278 5.85916 1.60766 5.45352C2.01679 5.05352 2.52963 4.8507 3.13468 4.8507C3.64176 4.8507 4.09699 5.01408 4.49459 5.33521C4.83456 5.61127 5.07082 5.9831 5.20335 6.4507H3.29602V7.41408H5.20335Z" fill="#521616"/>
</g>
<defs>
<clipPath id="clip0_352_842">
<rect width="15.4545" height="10" fill="white"/>
</clipPath>
</defs>
</svg>
