<svg width="11" height="11" viewBox="0 0 11 11" fill="none" xmlns="http://www.w3.org/2000/svg">
<g clip-path="url(#clip0_352_765)">
<path d="M2.2294 8.76333L0.232739 7.67556L0.685969 7.22333L2.46214 7.49222L5.63474 4.32667L0 1.30778L0.575724 0.721111L7.48441 2.46889L9.72606 0.22C9.87305 0.0733333 10.0445 0 10.2528 0C10.461 0 10.6325 0.0733333 10.7795 0.22C10.9265 0.366667 11 0.55 11 0.757778C11 0.965556 10.9265 1.13667 10.7795 1.28333L8.55011 3.53222L10.2895 10.4133L9.72606 11L6.67595 5.39L3.54009 8.51889L3.79733 10.3033L3.33185 10.7678L2.24165 8.75111L2.2294 8.76333Z" fill="#521616"/>
</g>
<defs>
<clipPath id="clip0_352_765">
<rect width="11" height="11" fill="white"/>
</clipPath>
</defs>
</svg>
