<svg width="14" height="11" viewBox="0 0 14 11" fill="none" xmlns="http://www.w3.org/2000/svg">
<g clip-path="url(#clip0_352_824)">
<path d="M11.33 5.5C11.33 7.96529 9.31118 9.97118 6.82647 9.97118C4.34177 9.97118 2.32294 7.97177 2.32294 5.5C2.32294 3.02824 4.3353 1.02882 6.82647 1.02882C9.31765 1.02882 11.33 3.02824 11.33 5.49353M6.82647 0C3.77235 0 1.28765 2.45882 1.28765 5.5C1.28765 8.54118 3.77235 11 6.82647 11C9.88059 11 12.3718 8.53471 12.3718 5.5C12.3718 2.46529 9.89353 0 6.82647 0ZM0 5.98529H13.64V5.02118H0V5.98529Z" fill="#521616"/>
</g>
<defs>
<clipPath id="clip0_352_824">
<rect width="13.64" height="11" fill="white"/>
</clipPath>
</defs>
</svg>
