<svg width="120" height="120" viewBox="0 0 120 120" fill="none" xmlns="http://www.w3.org/2000/svg">
<path d="M117.667 60C117.667 92.3185 91.652 118.5 59.5833 118.5C27.5146 118.5 1.5 92.3185 1.5 60C1.5 27.6815 27.5146 1.5 59.5833 1.5C91.652 1.5 117.667 27.6815 117.667 60Z" stroke="#FF3A9E" stroke-width="3"/>
<g clip-path="url(#clip0_298_3284)">
<path d="M69.3706 52.8729H49.167L59.2416 36.6667L69.3706 52.8729ZM53.2366 50.612H65.2828L59.2416 40.9353L53.2366 50.612ZM59.2416 82.5L49.167 66.2938H69.3706L59.2416 82.5ZM53.2366 68.5547L59.2416 78.2314L65.2828 68.5547H53.2366Z" fill="#FF3A9E"/>
</g>
<defs>
<clipPath id="clip0_298_3284">
<rect width="20.2036" height="45.8333" fill="white" transform="translate(49.167 36.6667)"/>
</clipPath>
</defs>
</svg>
