<svg width="120" height="120" viewBox="0 0 120 120" fill="none" xmlns="http://www.w3.org/2000/svg">
<g clip-path="url(#clip0_298_3285)">
<path d="M59.8684 80.8333C53.3351 80.8333 47.9829 78.8846 43.7934 74.9872C39.604 71.0899 37.5 66.0233 37.5 59.7689C37.5 58.4327 38.0168 57.3748 39.0503 56.5768C40.0838 55.7787 41.2096 55.5931 42.4462 56.0014C43.0921 56.2056 43.7565 56.4283 44.4394 56.7067C45.1407 56.9665 45.9528 57.3006 46.9125 57.7089C49.7916 58.8966 52.1539 59.6947 54.0364 60.1586C55.9189 60.6041 57.8567 60.8453 59.8684 60.8453C61.8801 60.8453 63.7072 60.6226 65.5528 60.1958C67.3984 59.7689 69.7054 58.9709 72.4553 57.8202C73.5995 57.3562 74.5223 56.9851 75.2421 56.7252C75.9619 56.4468 76.6447 56.2056 77.2907 56.0014C78.5272 55.6117 79.653 55.8158 80.6866 56.6324C81.7201 57.449 82.2368 58.4883 82.2368 59.7875C82.2368 62.7569 81.6463 65.5222 80.4835 68.0648C79.3024 70.6073 77.7152 72.8344 75.7035 74.746C73.6918 76.639 71.3295 78.1423 68.598 79.2187C65.885 80.2951 62.969 80.8519 59.8684 80.8519M59.8684 53.7372C61.6771 53.7372 63.2274 53.0877 64.5193 51.7886C65.8112 50.4894 66.4571 48.9305 66.4571 47.0931C66.4571 45.2558 65.8112 43.7154 64.5193 42.4163C63.2274 41.1172 61.6771 40.4676 59.85 40.4676C58.0228 40.4676 56.491 41.1172 55.1991 42.4163C53.9072 43.7154 53.2612 45.2929 53.2612 47.1117C53.2612 48.9305 53.9072 50.4894 55.1991 51.7886C56.491 53.0877 58.0413 53.7372 59.8684 53.7372ZM59.8684 55.853C57.4507 55.853 55.4021 54.9993 53.7042 53.2918C52.0063 51.5844 51.1573 49.5244 51.1573 47.0931C51.1573 44.6619 52.0063 42.6019 53.7042 40.8944C55.4021 39.187 57.4507 38.3333 59.8684 38.3333C62.2861 38.3333 64.3347 39.187 66.0327 40.8944C67.7306 42.6019 68.5796 44.6619 68.5796 47.0931C68.5796 49.5244 67.7306 51.5844 66.0327 53.2918C64.3347 54.9993 62.2861 55.853 59.8684 55.853ZM59.8684 78.7362C64.3347 78.7362 68.2474 77.6226 71.6248 75.4141C75.0022 73.2056 77.4199 70.2918 78.8779 66.6914C74.7807 68.5102 71.2372 69.8464 68.2658 70.6816C65.2944 71.5167 62.4891 71.925 59.8684 71.925C57.2477 71.925 54.424 71.4796 51.2311 70.6259C48.0567 69.7536 44.6055 68.4731 40.8774 66.7471C42.2801 70.3661 44.6424 73.2798 48.0013 75.4698C51.3418 77.6597 55.3098 78.7547 59.8684 78.7547M59.8684 69.8093C62.323 69.8093 64.9807 69.401 67.8413 68.5658C70.702 67.7307 74.6515 66.2274 79.653 64.0375C79.8376 63.3322 79.9483 62.6455 80.0222 61.9589C80.096 61.2722 80.1329 60.5669 80.1329 59.806C80.1329 59.2121 79.9114 58.7296 79.45 58.3584C78.9886 57.9872 78.4719 57.8944 77.8997 58.0615C77.3276 58.2656 76.6817 58.4883 75.9619 58.7482C75.2421 58.9894 74.3562 59.342 73.2858 59.806C70.4436 60.9752 68.0259 61.8104 66.0142 62.2929C64.0025 62.7755 61.9724 63.0167 59.8869 63.0167C57.8014 63.0167 55.6236 62.7755 53.575 62.2929C51.5264 61.8104 49.0349 60.9567 46.1004 59.7689C45.0115 59.3049 44.181 58.9709 43.5904 58.7482C42.9998 58.5255 42.4277 58.3027 41.8556 58.0986C41.3019 57.913 40.7851 58.0058 40.3237 58.377C39.8439 58.7482 39.6224 59.2307 39.6224 59.8617C39.6224 60.6041 39.6593 61.3279 39.7147 62.0331C39.7885 62.7383 39.8993 63.4436 40.0838 64.1488C44.2733 66.0789 48.0013 67.508 51.2865 68.4545C54.5716 69.401 57.4323 69.8835 59.8869 69.8835" fill="#FF3A9E"/>
</g>
<path d="M117.667 60C117.667 92.3185 91.652 118.5 59.5833 118.5C27.5146 118.5 1.5 92.3185 1.5 60C1.5 27.6815 27.5146 1.5 59.5833 1.5C91.652 1.5 117.667 27.6815 117.667 60Z" stroke="#FF3A9E" stroke-width="3"/>
<defs>
<clipPath id="clip0_298_3285">
<rect width="44.7368" height="42.5" fill="white" transform="translate(37.5 38.3333)"/>
</clipPath>
</defs>
</svg>
