<svg width="120" height="120" viewBox="0 0 120 120" fill="none" xmlns="http://www.w3.org/2000/svg">
<path d="M117.667 60C117.667 92.3185 91.652 118.5 59.5833 118.5C27.5146 118.5 1.5 92.3185 1.5 60C1.5 27.6815 27.5146 1.5 59.5833 1.5C91.652 1.5 117.667 27.6815 117.667 60Z" stroke="#FF3A9E" stroke-width="3"/>
<g clip-path="url(#clip0_298_3282)">
<path d="M59.9908 70.4182C62.8716 70.4182 65.3303 69.4094 67.367 67.3734C69.4037 65.3375 70.4128 62.8797 70.4128 60C70.4128 57.1203 69.4037 54.6442 67.367 52.6266C65.3303 50.5906 62.8716 49.5818 59.9908 49.5818C57.1101 49.5818 54.6514 50.5906 52.6147 52.6266C50.578 54.6625 49.5688 57.1203 49.5688 60C49.5688 62.8797 50.578 65.3375 52.6147 67.3734C54.6514 69.4094 57.1101 70.4182 59.9908 70.4182ZM59.9908 72.5459C56.5046 72.5459 53.5505 71.3353 51.0917 68.8958C48.6514 66.4563 47.422 63.5033 47.422 60.0183C47.422 56.5334 48.633 53.5803 51.0734 51.1225C53.5138 48.6831 56.4679 47.4541 59.9541 47.4541C63.4404 47.4541 66.3945 48.6647 68.8532 51.1042C71.3119 53.5437 72.5229 56.4967 72.5229 59.9817C72.5229 63.4666 71.2936 66.4197 68.8716 68.8775C66.4312 71.3169 63.4771 72.5459 59.9908 72.5459ZM43.055 78.4886L41.5872 76.8745L47.367 71.0968L48.1376 71.8305L48.9633 72.5825L43.055 78.4886ZM35 61.0638V58.9362H43.3119V61.0638H35ZM76.9266 78.4886L71.0917 72.4908L72.5413 71.0968L78.4128 76.8562L76.9266 78.4886ZM47.5505 48.9032L41.5138 43.1255L43.1284 41.6031L49.0183 47.4541L47.5505 48.9032ZM58.945 76.7461H61.0734V85H58.945V76.7461ZM76.7064 58.9362H85V61.0638H76.7064V58.9362ZM72.5413 48.9765L71.0734 47.5092L76.8716 41.493L78.4312 43.0704L72.5413 48.9582V48.9765ZM58.945 35H61.0734V43.2905H58.945V35Z" fill="#FF3A9E"/>
</g>
<defs>
<clipPath id="clip0_298_3282">
<rect width="50" height="50" fill="white" transform="translate(35 35)"/>
</clipPath>
</defs>
</svg>
