<svg width="120" height="120" viewBox="0 0 120 120" fill="none" xmlns="http://www.w3.org/2000/svg">
<path d="M117.667 60C117.667 92.3185 91.652 118.5 59.5833 118.5C27.5146 118.5 1.5 92.3185 1.5 60C1.5 27.6815 27.5146 1.5 59.5833 1.5C91.652 1.5 117.667 27.6815 117.667 60Z" stroke="#FF3A9E" stroke-width="3"/>
<path d="M60.6291 64.6473C63.1819 64.6473 65.6036 64.1891 67.8946 63.2727C70.1855 62.3564 72.1709 61.0255 73.8727 59.2582C75.5964 57.5564 76.9273 55.5491 77.8436 53.2145C78.7818 50.9018 79.24 48.4145 79.24 45.7745C76.6437 45.7745 74.2 46.2545 71.9091 47.1927C69.6182 48.1527 67.6109 49.4836 65.9091 51.2291C64.0764 53.0836 62.7236 55.1345 61.8727 57.4036C61.0218 59.6727 60.6073 62.0727 60.6073 64.6255M58.1418 57.3818C58.1418 54.7855 57.6837 52.3418 56.7455 50.0509C55.8073 47.7382 54.4764 45.7309 52.7527 44.0073C51.0509 42.2618 49.0655 40.9091 46.7746 39.9491C44.4837 38.9891 42.0618 38.5309 39.5091 38.5309C39.5091 41.1709 39.9673 43.6364 40.8619 45.9709C41.7564 48.2836 43.0655 50.3127 44.8109 52.0364C46.6219 53.9127 48.6509 55.2873 50.8982 56.1382C53.1454 56.9891 55.5673 57.4036 58.1637 57.4036M58.0982 83.3891V60H57.64C54.8254 60 52.1854 59.4764 49.6764 58.4291C47.1673 57.3818 44.92 55.8764 42.9564 53.8909C41.0146 51.9273 39.5309 49.6364 38.5273 47.0618C37.5237 44.4873 37 41.7818 37 38.9891V36H39.9455C42.6727 36 45.2909 36.5236 47.8436 37.6145C50.3964 38.7055 52.6437 40.2109 54.6073 42.1745C56.2218 43.8109 57.5309 45.6655 58.5345 47.76C59.5164 49.8545 60.1709 52.0582 60.4764 54.3709C60.9346 53.4545 61.4582 52.6036 62.0691 51.7745C62.68 50.9455 63.3346 50.16 64.0764 49.4182C66.04 47.4545 68.3091 45.9273 70.8619 44.8582C73.4146 43.7891 76.0764 43.2436 78.8691 43.2436H81.8146V46.2327C81.8146 49.0255 81.2909 51.7309 80.2218 54.3055C79.1527 56.88 77.6473 59.1709 75.7054 61.1345C73.7418 63.0982 71.4946 64.6036 68.9855 65.6291C66.4764 66.6545 63.8364 67.1564 61.0655 67.1564H60.6727V83.3673H58.1418L58.0982 83.3891Z" fill="#FF3A9E"/>
</svg>
