<svg width="120" height="120" viewBox="0 0 120 120" fill="none" xmlns="http://www.w3.org/2000/svg">
<path d="M117.667 60C117.667 92.3185 91.652 118.5 59.5833 118.5C27.5146 118.5 1.5 92.3185 1.5 60C1.5 27.6815 27.5146 1.5 59.5833 1.5C91.652 1.5 117.667 27.6815 117.667 60Z" stroke="#FF3A9E" stroke-width="3"/>
<g clip-path="url(#clip0_298_3281)">
<path d="M35.8335 52.9567H42.1151V76.1996H52.1191V74.0083H44.2865V48.9264L59.9905 36.1115L75.7138 48.9264V55.7153H77.8659V52.9567H84.1668L59.9905 33.3333L35.8335 52.9567Z" fill="#FF3A9E"/>
<path d="M42.1151 76.1996V52.9567H35.8335L59.9905 33.3333L84.1668 52.9567H77.8659V55.7153H75.7138V48.9264L59.9905 36.1115L44.2865 48.9264V74.0083H52.1191V76.1996H42.1151Z" fill="#FF3A9E"/>
<path d="M70.3436 76.7474C71.0997 76.7474 71.7395 76.493 72.263 75.9648C72.7864 75.4365 73.0579 74.7909 73.0579 74.0279C73.0579 73.2648 72.7864 72.6192 72.263 72.091C71.7395 71.5627 71.0997 71.2888 70.3436 71.2888C69.5875 71.2888 68.9477 71.5431 68.4242 72.0714C67.9008 72.5996 67.6487 73.2453 67.6487 74.0083C67.6487 74.7713 67.9008 75.417 68.4242 75.9452C68.9477 76.4734 69.5875 76.7278 70.3436 76.7278M79.1843 76.0822L76.7803 73.9496L79.3394 71.7388C79.8048 71.3279 80.1537 70.8388 80.3864 70.291C80.619 69.7432 80.7354 69.1171 80.7354 68.4128C80.7354 67.0237 80.2701 65.8498 79.3394 64.9107C78.4088 63.9716 77.2456 63.5021 75.8691 63.5021C75.1517 63.5021 74.5119 63.6195 73.9691 63.8542C73.4262 64.089 72.9609 64.4412 72.5732 64.9107L70.3436 67.4933L68.1528 64.9107C67.765 64.4412 67.2997 64.089 66.7569 63.8542C66.214 63.6195 65.5742 63.5021 64.8375 63.5021C63.4998 63.5021 62.3559 63.9912 61.3865 64.9694C60.4365 65.9476 59.9518 67.1215 59.9518 68.4911C59.9518 69.1758 60.0875 69.8019 60.3396 70.3693C60.611 70.9366 61.0182 71.4453 61.561 71.8953L63.9263 73.9496L61.3671 76.1408C60.9018 76.5321 60.5528 77.0213 60.3008 77.5691C60.0488 78.1364 59.9324 78.7625 59.9324 79.4668C59.9324 80.8559 60.4171 82.0298 61.3671 83.0081C62.3171 83.9863 63.461 84.4754 64.7987 84.4754C65.5161 84.4754 66.1753 84.3385 66.7569 84.045C67.3385 83.7515 67.862 83.3211 68.3273 82.7733L70.3436 80.4842L72.5538 83.0667C72.9415 83.5167 73.4068 83.8689 73.9497 84.1037C74.4925 84.358 75.1323 84.4754 75.8497 84.4754C77.2262 84.4754 78.3895 83.9863 79.3201 83.0081C80.2507 82.0298 80.716 80.8364 80.716 79.4668C80.716 78.7821 80.5803 78.156 80.3282 77.6082C80.0762 77.0408 79.6884 76.5321 79.165 76.0626M70.3242 83.7515C69.5875 84.6124 68.7538 85.3167 67.8232 85.8254C66.8732 86.3536 65.8457 86.608 64.7212 86.608C62.86 86.608 61.2314 85.9232 59.8743 84.5537C58.5171 83.1841 57.8192 81.5603 57.8192 79.6625C57.8192 78.5082 58.0712 77.4517 58.5947 76.5126C59.1182 75.5735 59.7967 74.7322 60.6498 73.9887C59.8161 73.1866 59.1376 72.2866 58.5947 71.3084C58.0518 70.3301 57.7998 69.2736 57.7998 68.0998C57.7998 66.2411 58.4784 64.6368 59.8549 63.3064C61.212 61.976 62.8406 61.3304 64.7018 61.3304C65.8263 61.3304 66.8538 61.5652 67.8038 62.0543C68.7538 62.5434 69.5875 63.2282 70.3048 64.089C71.0222 63.2282 71.8364 62.5434 72.767 62.0543C73.6976 61.5652 74.7252 61.3304 75.8497 61.3304C77.7691 61.3304 79.417 61.9956 80.7935 63.326C82.17 64.6564 82.8486 66.2998 82.8486 68.2172C82.8486 69.3519 82.5772 70.3888 82.0537 71.3279C81.5303 72.267 80.8129 73.1083 79.9211 73.8713C80.8129 74.6344 81.5303 75.4757 82.0537 76.4148C82.5772 77.3539 82.8486 78.3908 82.8486 79.5255C82.8486 81.4624 82.17 83.1254 80.8129 84.5145C79.4558 85.9036 77.8466 86.5884 75.966 86.5884C74.8221 86.5884 73.7752 86.334 72.8058 85.8254C71.8558 85.3167 71.0222 84.6124 70.3048 83.7124" fill="#FF3A9E"/>
<path d="M70.3432 76.7473C71.0994 76.7473 71.7392 76.493 72.2626 75.9648C72.7861 75.4365 73.0575 74.7909 73.0575 74.0279C73.0575 73.2648 72.7861 72.6192 72.2626 72.091C71.7392 71.5627 71.0994 71.2888 70.3432 71.2888C69.5871 71.2888 68.9473 71.5431 68.4239 72.0714C67.9004 72.5996 67.6484 73.2453 67.6484 74.0083C67.6484 74.7713 67.9004 75.417 68.4239 75.9452C68.9473 76.4734 69.5871 76.7278 70.3432 76.7278V76.7473ZM79.184 76.1017L76.7799 73.9692L79.3391 71.7584C79.8044 71.3475 80.1534 70.8584 80.386 70.3106C80.6187 69.7628 80.735 69.1367 80.735 68.4324C80.735 67.0433 80.2697 65.8694 79.3391 64.9303C78.4085 63.9912 77.2452 63.5216 75.8687 63.5216C75.1514 63.5216 74.5116 63.639 73.9687 63.8738C73.4259 64.1086 72.9606 64.4607 72.5728 64.9303L70.3432 67.5128L68.1524 64.9303C67.7647 64.4607 67.2994 64.1086 66.7565 63.8738C66.2137 63.639 65.5739 63.5216 64.8372 63.5216C63.4994 63.5216 62.3556 64.0107 61.3862 64.989C60.4362 65.9672 59.9515 67.1411 59.9515 68.5106C59.9515 69.1954 60.0872 69.8215 60.3392 70.3888C60.6107 70.9562 61.0178 71.4649 61.5607 71.9149L63.9259 73.9692L61.3668 76.1604C60.9015 76.5517 60.5525 77.0408 60.3005 77.5886C60.0484 78.156 59.9321 78.7821 59.9321 79.4864C59.9321 80.8755 60.4168 82.0494 61.3668 83.0276C62.3168 84.0058 63.4606 84.495 64.7984 84.495C65.5157 84.495 66.1749 84.358 66.7565 84.0645C67.3382 83.7711 67.8616 83.3406 68.3269 82.7928L70.3432 80.5038L72.5534 83.0863C72.9412 83.5363 73.4065 83.8885 73.9493 84.1232C74.4922 84.3776 75.132 84.495 75.8493 84.495C77.2259 84.495 78.3891 84.0058 79.3197 83.0276C80.2503 82.0494 80.7156 80.8559 80.7156 79.4864C80.7156 78.8016 80.5799 78.1756 80.3279 77.6278C80.0758 77.0604 79.6881 76.5517 79.1646 76.0822L79.184 76.1017ZM70.3432 83.7906C69.6065 84.6515 68.7729 85.3558 67.8422 85.8645C66.8923 86.3927 65.8647 86.6471 64.7402 86.6471C62.879 86.6471 61.2505 85.9623 59.8933 84.5928C58.5362 83.2233 57.8382 81.5994 57.8382 79.7016C57.8382 78.5473 58.0903 77.4908 58.6137 76.5517C59.1372 75.6126 59.8158 74.7713 60.6688 74.0279C59.8352 73.2257 59.1566 72.3257 58.6137 71.3475C58.0709 70.3693 57.8188 69.3128 57.8188 68.1389C57.8188 66.2802 58.4974 64.6759 59.8739 63.3455C61.2311 62.0151 62.8596 61.3695 64.7208 61.3695C65.8453 61.3695 66.8729 61.6043 67.8229 62.0934C68.7729 62.5825 69.6065 63.2673 70.3239 64.1281C71.0412 63.2673 71.8555 62.5825 72.7861 62.0934C73.7167 61.6043 74.7442 61.3695 75.8687 61.3695C77.7881 61.3695 79.436 62.0347 80.8126 63.3651C82.1891 64.6955 82.8677 66.3389 82.8677 68.2563C82.8677 69.391 82.5962 70.428 82.0728 71.3671C81.5493 72.3062 80.832 73.1474 79.9401 73.9105C80.832 74.6735 81.5493 75.5148 82.0728 76.4539C82.5962 77.393 82.8677 78.4299 82.8677 79.5647C82.8677 81.5016 82.1891 83.1646 80.8319 84.5537C79.4748 85.9428 77.8656 86.6275 75.985 86.6275C74.8412 86.6275 73.7942 86.3732 72.8249 85.8645C71.8749 85.3558 71.0412 84.6515 70.3239 83.7515L70.3432 83.7906Z" fill="#FF3A9E"/>
</g>
<defs>
<clipPath id="clip0_298_3281">
<rect width="48.3333" height="53.3333" fill="white" transform="translate(35.8335 33.3333)"/>
</clipPath>
</defs>
</svg>
