<svg width="120" height="120" viewBox="0 0 120 120" fill="none" xmlns="http://www.w3.org/2000/svg">
<path d="M117.667 60C117.667 92.3185 91.652 118.5 59.5833 118.5C27.5146 118.5 1.5 92.3185 1.5 60C1.5 27.6815 27.5146 1.5 59.5833 1.5C91.652 1.5 117.667 27.6815 117.667 60Z" stroke="#FF3A9E" stroke-width="3"/>
<g clip-path="url(#clip0_298_3283)">
<path d="M60.7338 82.5H58.4508V72.329C49.0998 71.7447 41.6665 63.9841 41.6665 54.507C41.6665 45.0299 49.7025 36.6667 59.5832 36.6667C69.4638 36.6667 77.4998 44.6647 77.4998 54.507C77.4998 64.3493 70.0665 71.7264 60.7155 72.329V82.5H60.7338ZM58.4508 59.9303H60.7338V70.0282C68.8246 69.4439 75.2351 62.7059 75.2351 54.507C75.2351 46.3081 68.2036 38.9492 59.5832 38.9492C50.9627 38.9492 43.9495 45.9247 43.9495 54.507C43.9495 63.0893 50.36 69.4439 58.4508 70.0282V59.9303Z" fill="#FF3A9E"/>
</g>
<defs>
<clipPath id="clip0_298_3283">
<rect width="35.8333" height="45.8333" fill="white" transform="translate(41.6665 36.6667)"/>
</clipPath>
</defs>
</svg>
