<svg width="120" height="120" viewBox="0 0 120 120" fill="none" xmlns="http://www.w3.org/2000/svg">
<path d="M117.667 60C117.667 92.3185 91.652 118.5 59.5833 118.5C27.5146 118.5 1.5 92.3185 1.5 60C1.5 27.6815 27.5146 1.5 59.5833 1.5C91.652 1.5 117.667 27.6815 117.667 60Z" stroke="#FF3A9E" stroke-width="3"/>
<path d="M43.7636 46.2327H75.2473L59.5164 38.8364L43.7855 46.2327H43.7636ZM37 48.7418V46.6909L59.5164 36L82.0109 46.6909V48.7418H37ZM71.5382 53.9782H74.0473V76.0145H71.5382V53.9782ZM37 81.2509H82.0109V83.76H37V81.2509ZM58.2727 53.9782H60.7818V76.0145H58.2727V53.9782ZM44.9636 53.9782H47.4727V76.0145H44.9636V53.9782Z" fill="#FF3A9E"/>
</svg>
