<svg width="120" height="120" viewBox="0 0 120 120" fill="none" xmlns="http://www.w3.org/2000/svg">
<path d="M117.667 60C117.667 92.3185 91.652 118.5 59.5833 118.5C27.5146 118.5 1.5 92.3185 1.5 60C1.5 27.6815 27.5146 1.5 59.5833 1.5C91.652 1.5 117.667 27.6815 117.667 60Z" stroke="#FF3A9E" stroke-width="3"/>
<path d="M58.0364 87.0691C53.5855 87.0691 49.7891 85.4982 46.6691 82.4C43.5491 79.28 42 75.5055 42 71.0327V68.2836C45.4255 68.8509 48.5455 70.1382 51.3818 72.1236C54.2182 74.1091 56.3564 76.5309 57.8182 79.3455V60.4291C53.8909 60.0582 50.5745 58.3782 47.8909 55.4327C45.2073 52.4873 43.8546 49.0182 43.8546 45.0255V37.8909C43.8546 36.8 44.3346 36.0582 45.3164 35.6218C46.2982 35.1855 47.1927 35.3382 48 36.0582L52.2109 39.68L57.2946 32.96C57.7964 32.3055 58.4727 32 59.28 32C60.0873 32 60.7418 32.3273 61.2437 32.96L66.3491 39.68L70.56 36.0582C71.3455 35.3382 72.24 35.1855 73.2218 35.6218C74.2036 36.0364 74.7055 36.8 74.7055 37.8909V45.0255C74.7055 49.0182 73.3527 52.4873 70.6691 55.4327C67.9855 58.3782 64.6691 60.0364 60.7637 60.4291V79.2364C62.2036 76.4436 64.32 74.0655 67.1564 72.1018C69.9709 70.1164 73.0691 68.8509 76.4509 68.2836V71.0327C76.4509 75.4836 74.9018 79.28 71.7818 82.4C68.6618 85.52 64.8873 87.0691 60.4364 87.0691H58.0146H58.0364ZM59.28 57.44C62.7491 57.44 65.6945 56.24 68.1164 53.84C70.5382 51.44 71.7382 48.4945 71.7382 45.0255V38.9818L65.9782 43.8473L59.28 35.0109L52.6036 43.8473L46.8436 38.9818V45.0255C46.8436 48.4945 48.0437 51.44 50.4437 53.84C52.8437 56.24 55.7891 57.44 59.2582 57.44M61.4182 84.1236C63.0546 84.0145 64.5818 83.6218 66 82.9455C67.4182 82.2909 68.6618 81.4182 69.7527 80.3273C70.8436 79.2582 71.7164 77.9927 72.3927 76.5745C73.0473 75.1564 73.44 73.6073 73.5709 71.9491C72.1091 72.4727 70.7564 73.1055 69.5127 73.8909C68.2691 74.6545 67.1346 75.5491 66.1091 76.5964C65.0618 77.6436 64.1455 78.8 63.36 80.0436C62.5746 81.2873 61.9418 82.64 61.4182 84.1236ZM57.0764 84.1236C56.5527 82.6618 55.92 81.2873 55.1564 80.0436C54.3927 78.8 53.4982 77.6655 52.4509 76.6182C51.4255 75.5709 50.2909 74.6764 49.0473 73.9127C47.8037 73.1491 46.4728 72.4945 44.9891 71.9709C45.12 73.6073 45.5127 75.1345 46.1673 76.5309C46.8218 77.9491 47.6727 79.1927 48.7636 80.2618C49.8327 81.3309 51.0764 82.2255 52.4727 82.88C53.8691 83.5564 55.3964 83.9709 57.0546 84.1236" fill="#FF3A9E"/>
</svg>
