<svg width="120" height="120" viewBox="0 0 120 120" fill="none" xmlns="http://www.w3.org/2000/svg">
<path d="M117.667 60C117.667 92.3185 91.652 118.5 59.5833 118.5C27.5146 118.5 1.5 92.3185 1.5 60C1.5 27.6815 27.5146 1.5 59.5833 1.5C91.652 1.5 117.667 27.6815 117.667 60Z" stroke="#FF3A9E" stroke-width="3"/>
<g clip-path="url(#clip0_298_3400)">
<path d="M35.834 52.9566H42.1156V76.1995H52.1196V74.0082H44.287V48.9263L59.991 36.1114L75.7143 48.9263V55.7153H77.8663V52.9566H84.1673L59.991 33.3333L35.834 52.9566Z" fill="#FF3A9E"/>
<path d="M42.1156 76.1995V52.9566H35.834L59.991 33.3333L84.1673 52.9566H77.8663V55.7153H75.7143V48.9263L59.991 36.1114L44.287 48.9263V74.0082H52.1196V76.1995H42.1156Z" fill="#FF3A9E"/>
<path d="M70.3436 76.7473C71.0997 76.7473 71.7395 76.493 72.263 75.9647C72.7864 75.4365 73.0579 74.7908 73.0579 74.0278C73.0579 73.2648 72.7864 72.6191 72.263 72.0909C71.7395 71.5627 71.0997 71.2887 70.3436 71.2887C69.5875 71.2887 68.9477 71.5431 68.4242 72.0713C67.9008 72.5996 67.6487 73.2452 67.6487 74.0082C67.6487 74.7713 67.9008 75.4169 68.4242 75.9451C68.9477 76.4734 69.5875 76.7277 70.3436 76.7277M79.1843 76.0821L76.7803 73.9495L79.3394 71.7387C79.8048 71.3279 80.1537 70.8388 80.3864 70.2909C80.619 69.7431 80.7354 69.1171 80.7354 68.4127C80.7354 67.0236 80.2701 65.8498 79.3394 64.9107C78.4088 63.9716 77.2456 63.502 75.8691 63.502C75.1517 63.502 74.5119 63.6194 73.9691 63.8542C73.4262 64.0889 72.9609 64.4411 72.5732 64.9107L70.3436 67.4932L68.1528 64.9107C67.765 64.4411 67.2997 64.0889 66.7569 63.8542C66.214 63.6194 65.5742 63.502 64.8375 63.502C63.4998 63.502 62.3559 63.9911 61.3865 64.9694C60.4365 65.9476 59.9518 67.1215 59.9518 68.491C59.9518 69.1758 60.0875 69.8018 60.3396 70.3692C60.611 70.9366 61.0182 71.4453 61.561 71.8952L63.9263 73.9495L61.3671 76.1408C60.9018 76.5321 60.5528 77.0212 60.3008 77.569C60.0488 78.1364 59.9324 78.7625 59.9324 79.4668C59.9324 80.8559 60.4171 82.0298 61.3671 83.008C62.3171 83.9862 63.461 84.4753 64.7987 84.4753C65.5161 84.4753 66.1753 84.3384 66.7569 84.0449C67.3385 83.7514 67.862 83.321 68.3273 82.7732L70.3436 80.4841L72.5538 83.0667C72.9415 83.5167 73.4068 83.8688 73.9497 84.1036C74.4925 84.358 75.1323 84.4753 75.8497 84.4753C77.2262 84.4753 78.3895 83.9862 79.3201 83.008C80.2507 82.0298 80.716 80.8363 80.716 79.4668C80.716 78.782 80.5803 78.1559 80.3282 77.6081C80.0762 77.0408 79.6884 76.5321 79.165 76.0625M70.3242 83.7515C69.5875 84.6123 68.7538 85.3166 67.8232 85.8253C66.8732 86.3536 65.8457 86.6079 64.7212 86.6079C62.86 86.6079 61.2314 85.9231 59.8743 84.5536C58.5171 83.1841 57.8192 81.5602 57.8192 79.6624C57.8192 78.5081 58.0712 77.4516 58.5947 76.5125C59.1182 75.5734 59.7967 74.7321 60.6498 73.9887C59.8161 73.1865 59.1376 72.2865 58.5947 71.3083C58.0518 70.3301 57.7998 69.2736 57.7998 68.0997C57.7998 66.2411 58.4784 64.6368 59.8549 63.3064C61.212 61.976 62.8406 61.3303 64.7018 61.3303C65.8263 61.3303 66.8538 61.5651 67.8038 62.0542C68.7538 62.5433 69.5875 63.2281 70.3048 64.0889C71.0222 63.2281 71.8364 62.5433 72.767 62.0542C73.6976 61.5651 74.7252 61.3303 75.8497 61.3303C77.7691 61.3303 79.417 61.9955 80.7935 63.3259C82.17 64.6563 82.8486 66.2998 82.8486 68.2171C82.8486 69.3518 82.5772 70.3888 82.0537 71.3279C81.5303 72.267 80.8129 73.1083 79.9211 73.8713C80.8129 74.6343 81.5303 75.4756 82.0537 76.4147C82.5772 77.3538 82.8486 78.3907 82.8486 79.5255C82.8486 81.4624 82.17 83.1254 80.8129 84.5145C79.4558 85.9036 77.8466 86.5883 75.966 86.5883C74.8221 86.5883 73.7752 86.334 72.8058 85.8253C71.8558 85.3166 71.0222 84.6123 70.3048 83.7123" fill="#FF3A9E"/>
<path d="M70.3437 76.7472C71.0999 76.7472 71.7396 76.4929 72.2631 75.9646C72.7866 75.4364 73.058 74.7908 73.058 74.0277C73.058 73.2647 72.7866 72.6191 72.2631 72.0908C71.7396 71.5626 71.0999 71.2887 70.3437 71.2887C69.5876 71.2887 68.9478 71.543 68.4244 72.0713C67.9009 72.5995 67.6489 73.2452 67.6489 74.0082C67.6489 74.7712 67.9009 75.4168 68.4244 75.9451C68.9478 76.4733 69.5876 76.7277 70.3437 76.7277V76.7472ZM79.1845 76.1016L76.7804 73.969L79.3396 71.7582C79.8049 71.3474 80.1539 70.8583 80.3865 70.3104C80.6192 69.7626 80.7355 69.1366 80.7355 68.4322C80.7355 67.0431 80.2702 65.8693 79.3396 64.9302C78.409 63.9911 77.2457 63.5215 75.8692 63.5215C75.1519 63.5215 74.5121 63.6389 73.9692 63.8737C73.4264 64.1084 72.9611 64.4606 72.5733 64.9302L70.3437 67.5127L68.1529 64.9302C67.7652 64.4606 67.2999 64.1084 66.757 63.8737C66.2142 63.6389 65.5744 63.5215 64.8377 63.5215C63.4999 63.5215 62.356 64.0106 61.3867 64.9889C60.4367 65.9671 59.952 67.141 59.952 68.5105C59.952 69.1953 60.0877 69.8213 60.3397 70.3887C60.6112 70.9561 61.0183 71.4648 61.5611 71.9147L63.9264 73.969L61.3673 76.1603C60.902 76.5516 60.553 77.0407 60.301 77.5885C60.0489 78.1559 59.9326 78.782 59.9326 79.4863C59.9326 80.8754 60.4173 82.0493 61.3673 83.0275C62.3173 84.0057 63.4611 84.4948 64.7989 84.4948C65.5162 84.4948 66.1754 84.3579 66.757 84.0644C67.3387 83.771 67.8621 83.3405 68.3274 82.7927L70.3437 80.5036L72.5539 83.0862C72.9417 83.5362 73.407 83.8883 73.9498 84.1231C74.4927 84.3775 75.1325 84.4948 75.8498 84.4948C77.2263 84.4948 78.3896 84.0057 79.3202 83.0275C80.2508 82.0493 80.7161 80.8558 80.7161 79.4863C80.7161 78.8015 80.5804 78.1754 80.3284 77.6276C80.0763 77.0603 79.6886 76.5516 79.1651 76.082L79.1845 76.1016ZM70.3437 83.7905C69.607 84.6514 68.7733 85.3557 67.8427 85.8644C66.8927 86.3926 65.8652 86.647 64.7407 86.647C62.8795 86.647 61.2509 85.9622 59.8938 84.5927C58.5367 83.2231 57.8387 81.5993 57.8387 79.7015C57.8387 78.5472 58.0908 77.4907 58.6142 76.5516C59.1377 75.6125 59.8163 74.7712 60.6693 74.0277C59.8356 73.2256 59.1571 72.3256 58.6142 71.3474C58.0714 70.3691 57.8193 69.3126 57.8193 68.1388C57.8193 66.2801 58.4979 64.6758 59.8744 63.3454C61.2316 62.015 62.8601 61.3694 64.7213 61.3694C65.8458 61.3694 66.8734 61.6042 67.8233 62.0933C68.7733 62.5824 69.607 63.2672 70.3244 64.128C71.0417 63.2672 71.856 62.5824 72.7866 62.0933C73.7172 61.6042 74.7447 61.3694 75.8692 61.3694C77.7886 61.3694 79.4365 62.0346 80.8131 63.365C82.1896 64.6954 82.8681 66.3388 82.8681 68.2562C82.8681 69.3909 82.5967 70.4278 82.0732 71.3669C81.5498 72.306 80.8324 73.1473 79.9406 73.9103C80.8324 74.6734 81.5498 75.5147 82.0732 76.4538C82.5967 77.3929 82.8681 78.4298 82.8681 79.5645C82.8681 81.5014 82.1896 83.1644 80.8324 84.5535C79.4753 85.9426 77.8661 86.6274 75.9855 86.6274C74.8417 86.6274 73.7947 86.3731 72.8254 85.8644C71.8754 85.3557 71.0417 84.6514 70.3244 83.7514L70.3437 83.7905Z" fill="#FF3A9E"/>
</g>
<defs>
<clipPath id="clip0_298_3400">
<rect width="48.3333" height="53.3333" fill="white" transform="translate(35.834 33.3333)"/>
</clipPath>
</defs>
</svg>
