<svg width="120" height="120" viewBox="0 0 120 120" fill="none" xmlns="http://www.w3.org/2000/svg">
<path d="M117.667 60C117.667 92.3185 91.652 118.5 59.5833 118.5C27.5146 118.5 1.5 92.3185 1.5 60C1.5 27.6815 27.5146 1.5 59.5833 1.5C91.652 1.5 117.667 27.6815 117.667 60Z" stroke="#FF3A9E" stroke-width="3"/>
<path d="M72.016 81.7012C71.4131 81.7012 70.8996 81.5002 70.4976 81.0983C70.0957 80.6963 69.8947 80.1827 69.8947 79.5798C69.8947 78.9769 70.0957 78.4634 70.4976 78.0614C70.8996 77.6595 71.4131 77.4585 71.9937 77.4585C72.5743 77.4585 73.0878 77.6595 73.5121 78.0614C73.9364 78.4634 74.1374 78.9769 74.1374 79.5798C74.1374 80.1827 73.914 80.6963 73.5121 81.0983C73.0878 81.5002 72.5966 81.7012 72.016 81.7012ZM59.422 81.7012C58.8191 81.7012 58.3056 81.5002 57.9036 81.0983C57.5017 80.6963 57.3007 80.1827 57.3007 79.5798C57.3007 78.9769 57.5017 78.4634 57.9036 78.0614C58.3056 77.6595 58.8191 77.4585 59.422 77.4585C60.0249 77.4585 60.5385 77.6595 60.9404 78.0614C61.3424 78.4634 61.5434 78.9769 61.5434 79.5798C61.5434 80.1827 61.3424 80.6963 60.9404 81.0983C60.5385 81.5002 60.0249 81.7012 59.422 81.7012ZM46.8504 81.7012C46.2475 81.7012 45.7562 81.5002 45.332 81.0983C44.9077 80.6963 44.7067 80.1827 44.7067 79.5798C44.7067 78.9769 44.9077 78.4634 45.332 78.0614C45.7562 77.6595 46.2475 77.4585 46.828 77.4585C47.4086 77.4585 47.9446 77.6595 48.3465 78.0614C48.7484 78.4634 48.9494 78.9769 48.9494 79.5798C48.9494 80.1827 48.7484 80.6963 48.3465 81.0983C47.9446 81.5002 47.431 81.7012 46.8504 81.7012ZM43.5903 57.7637H75.2761C75.2761 53.4094 73.7355 49.6803 70.654 46.5765C67.5724 43.4726 63.8433 41.9319 59.4667 41.9319C55.09 41.9319 51.361 43.4727 48.2572 46.5542C45.1533 49.6357 43.6126 53.3647 43.6126 57.7637M41.0224 60.3539V57.7637C41.0224 52.9181 42.6971 48.7425 46.0242 45.192C49.3736 41.664 53.4153 39.6989 58.1492 39.3193V33H60.7395V39.3193C65.4734 39.6989 69.5151 41.6416 72.8646 45.192C76.214 48.7201 77.8888 52.9181 77.8888 57.7637V60.3539H41H41.0224ZM72.0606 72.1664C71.4577 72.1664 70.9441 71.9654 70.5422 71.5635C70.1403 71.1615 69.9394 70.648 69.9394 70.0451C69.9394 69.4422 70.1403 68.9286 70.5422 68.5266C70.9441 68.1247 71.4578 67.9237 72.0384 67.9237C72.619 67.9237 73.1325 68.1247 73.5568 68.5266C73.9811 68.9286 74.1819 69.4422 74.1819 70.0451C74.1819 70.648 73.9587 71.1615 73.5568 71.5635C73.1325 71.9654 72.6412 72.1664 72.0606 72.1664ZM59.4667 72.1664C58.8638 72.1664 58.3502 71.9654 57.9483 71.5635C57.5463 71.1615 57.3454 70.648 57.3454 70.0451C57.3454 69.4422 57.5463 68.9286 57.9483 68.5266C58.3502 68.1247 58.8638 67.9237 59.4667 67.9237C60.0696 67.9237 60.5832 68.1247 60.9851 68.5266C61.3871 68.9286 61.588 69.4422 61.588 70.0451C61.588 70.648 61.3871 71.1615 60.9851 71.5635C60.5832 71.9654 60.0696 72.1664 59.4667 72.1664ZM46.8951 72.1664C46.2922 72.1664 45.8009 71.9654 45.3766 71.5635C44.9523 71.1615 44.7514 70.648 44.7514 70.0451C44.7514 69.4422 44.9523 68.9286 45.3766 68.5266C45.8009 68.1247 46.2922 67.9237 46.8727 67.9237C47.4533 67.9237 47.9892 68.1247 48.3911 68.5266C48.7931 68.9286 48.994 69.4422 48.994 70.0451C48.994 70.648 48.7931 71.1615 48.3911 71.5635C47.9892 71.9654 47.4757 72.1664 46.8951 72.1664Z" fill="#FF3A9E"/>
</svg>
