<svg width="120" height="120" viewBox="0 0 120 120" fill="none" xmlns="http://www.w3.org/2000/svg">
<path d="M117.667 60C117.667 92.3185 91.652 118.5 59.5833 118.5C27.5146 118.5 1.5 92.3185 1.5 60C1.5 27.6815 27.5146 1.5 59.5833 1.5C91.652 1.5 117.667 27.6815 117.667 60Z" stroke="#FF3A9E" stroke-width="3"/>
<path d="M47.4212 78.9769H45.6349H74.3286H47.3989H47.4212ZM56.6434 39.3863C57.1793 39.2523 57.7376 39.163 58.3182 39.0737C58.8987 39.0067 59.457 38.9844 59.9929 38.9844C60.5288 38.9844 61.0871 39.0067 61.6676 39.0737C62.2482 39.1407 62.8064 39.2523 63.3424 39.3863V38.9844C63.3424 38.0465 63.0298 37.265 62.3822 36.6174C61.7346 35.9698 60.9531 35.6349 60.0152 35.6349C59.0774 35.6349 58.2959 35.9698 57.6483 36.6174C57.0007 37.265 56.6881 38.0465 56.6881 38.9844V39.3863H56.6434ZM68.7462 65.9587C69.1035 65.9587 69.4384 65.8247 69.684 65.6014C69.9519 65.3558 70.0859 65.0432 70.0859 64.6635V57.5627H49.8999V60.2423H67.4064V64.6859C67.4064 65.0655 67.5403 65.4004 67.8083 65.6237C68.0763 65.8694 68.3889 65.981 68.7462 65.981M47.4212 79.0216H72.5645C73.0111 79.0216 73.413 78.8429 73.7927 78.4633C74.1723 78.0837 74.3509 77.6818 74.3509 77.2352V56.0219C74.3509 52.0696 72.9441 48.6978 70.1529 45.8843C67.3393 43.0707 63.9676 41.6863 60.0152 41.6863C56.0629 41.6863 52.6687 43.093 49.8775 45.8843C47.064 48.6755 45.6572 52.0696 45.6572 56.0219V77.2352C45.6572 77.6818 45.8358 78.0837 46.2154 78.4633C46.595 78.8429 46.997 79.0216 47.4436 79.0216M47.4436 81.7011C46.1931 81.7011 45.1436 81.2769 44.2951 80.406C43.4466 79.5352 43 78.4857 43 77.2352V56.0219C43 52.3599 44.0271 49.0997 46.1038 46.2862C48.1805 43.4503 50.8154 41.4406 54.0085 40.2125V39.029C54.0085 37.3543 54.5891 35.9252 55.7725 34.764C56.956 33.6029 58.3628 33 60.0375 33C61.7123 33 63.119 33.5806 64.3025 34.764C65.486 35.9475 66.0666 37.3543 66.0666 39.029V40.2125C69.2821 41.4406 71.917 43.4726 73.9713 46.2862C76.0257 49.1221 77.0751 52.3599 77.0751 56.0219V77.2352C77.0751 78.4857 76.6509 79.5352 75.78 80.406C74.9092 81.2769 73.8597 81.7011 72.6315 81.7011H47.4659H47.4436Z" fill="#FF3A9E"/>
</svg>
