<svg width="120" height="120" viewBox="0 0 120 120" fill="none" xmlns="http://www.w3.org/2000/svg">
<path d="M117.667 60C117.667 92.3185 91.652 118.5 59.5833 118.5C27.5146 118.5 1.5 92.3185 1.5 60C1.5 27.6815 27.5146 1.5 59.5833 1.5C91.652 1.5 117.667 27.6815 117.667 60Z" stroke="#FF3A9E" stroke-width="3"/>
<g clip-path="url(#clip0_298_3399)">
<path d="M58.8201 80.8334C55.4468 80.8334 52.5695 79.6618 50.2048 77.3021C47.8401 74.9423 46.666 72.0875 46.666 68.7047V66.6255C49.2622 67.0545 51.6269 68.0116 53.7766 69.5298C55.9263 71.0314 57.5469 72.8466 58.6548 74.9918V60.6849C55.6783 60.4044 53.1648 59.1337 51.1308 56.906C49.0968 54.6783 48.0881 52.038 48.0881 49.0182V43.6222C48.0881 42.7971 48.4519 42.2361 49.1961 41.906C49.9402 41.576 50.6182 41.6915 51.23 42.2361L54.4215 44.9753L58.2745 39.8928C58.6548 39.3978 59.1674 39.1667 59.7793 39.1667C60.3911 39.1667 60.8872 39.4143 61.2675 39.8928L65.137 44.9753L68.3285 42.2361C68.9238 41.6915 69.6018 41.576 70.3459 41.906C71.09 42.2196 71.4704 42.7971 71.4704 43.6222V49.0182C71.4704 52.038 70.4451 54.6618 68.4112 56.8895C66.3772 59.1172 63.8637 60.3714 60.9037 60.6684V74.8928C61.9951 72.7806 63.6157 70.9819 65.7488 69.4968C67.8985 67.9951 70.2467 67.038 72.7933 66.609V68.6882C72.7933 72.0545 71.6027 74.9258 69.2545 77.2856C66.8898 79.6453 64.0291 80.8169 60.6557 80.8169H58.8201V80.8334ZM59.7627 58.4242C62.392 58.4242 64.6244 57.5166 66.4599 55.7014C68.2954 53.8862 69.2049 51.6585 69.2049 49.0347V44.4638L64.8393 48.1436L59.7627 41.4605L54.7026 48.1436L50.3371 44.4638V49.0347C50.3371 51.6585 51.2466 53.8862 53.0655 55.7014C54.8845 57.5166 57.1169 58.4242 59.7462 58.4242M61.3833 78.6057C62.6235 78.5232 63.781 78.2262 64.8559 77.7146C65.9307 77.2031 66.8733 76.5595 67.7001 75.7344C68.5269 74.9093 69.1884 73.9687 69.6845 72.8961C70.1805 71.8235 70.4782 70.6519 70.5774 69.3978C69.4695 69.7938 68.4442 70.2724 67.5182 70.8664C66.5756 71.444 65.7158 72.1205 64.9386 72.9126C64.1448 73.7047 63.4503 74.5793 62.855 75.5199C62.2597 76.4605 61.7801 77.4836 61.3833 78.6057ZM58.0926 78.6057C57.6957 77.5001 57.2161 76.4605 56.6374 75.5199C56.0586 74.5793 55.3806 73.7212 54.5869 72.9291C53.8097 72.137 52.9498 71.4605 52.0072 70.8829C51.0647 70.3054 50.0559 69.8103 48.9315 69.4143C49.0307 70.6519 49.3283 71.807 49.8244 72.8631C50.3205 73.9357 50.9654 74.8763 51.7922 75.6849C52.6191 76.51 53.5451 77.1701 54.6034 77.6651C55.6617 78.1767 56.8193 78.4902 58.076 78.6057" fill="#FF3A9E"/>
</g>
<defs>
<clipPath id="clip0_298_3399">
<rect width="26.1438" height="41.6667" fill="white" transform="translate(46.666 39.1667)"/>
</clipPath>
</defs>
</svg>
