<svg width="120" height="120" viewBox="0 0 120 120" fill="none" xmlns="http://www.w3.org/2000/svg">
<path d="M117.667 60C117.667 92.3185 91.652 118.5 59.5833 118.5C27.5146 118.5 1.5 92.3185 1.5 60C1.5 27.6815 27.5146 1.5 59.5833 1.5C91.652 1.5 117.667 27.6815 117.667 60Z" stroke="#FF3A9E" stroke-width="3"/>
<g clip-path="url(#clip0_298_3398)">
<path d="M59.582 74.4386C60.2499 74.4386 60.8392 74.2009 61.3106 73.7255C61.782 73.25 62.0177 72.6756 62.0177 72.002C62.0177 71.3285 61.782 70.7342 61.3106 70.2588C60.8392 69.7833 60.2695 69.5456 59.582 69.5456C58.8945 69.5456 58.3249 69.7833 57.8535 70.2588C57.382 70.7342 57.166 71.3087 57.166 72.002C57.166 72.6954 57.4017 73.2699 57.8731 73.7453C58.3445 74.2207 58.9142 74.4386 59.582 74.4386ZM67.5373 73.8642L65.3766 71.9624L67.6748 69.9814C68.0873 69.605 68.4016 69.1692 68.6177 68.674C68.8338 68.1787 68.932 67.6042 68.932 66.9901C68.932 65.7421 68.5195 64.6922 67.6748 63.8404C66.8302 62.9886 65.8088 62.5726 64.5516 62.5726C63.9034 62.5726 63.3338 62.6716 62.8427 62.8895C62.3516 63.1074 61.9391 63.4244 61.5856 63.8404L59.582 66.1581L57.5981 63.8404C57.2445 63.4244 56.832 63.1074 56.341 62.8895C55.8499 62.6716 55.2802 62.5726 54.6124 62.5726C53.4142 62.5726 52.3731 63.0084 51.5088 63.88C50.6446 64.7516 50.2124 65.8016 50.2124 67.0496C50.2124 67.6637 50.3303 68.2184 50.566 68.7334C50.8017 69.2485 51.1749 69.7041 51.666 70.1201L53.7874 71.9624L51.4892 73.9434C51.0767 74.3 50.7428 74.716 50.5267 75.231C50.3106 75.7461 50.1928 76.3008 50.1928 76.9347C50.1928 78.1629 50.6249 79.2326 51.4696 80.1241C52.3338 81.0155 53.3553 81.4513 54.5535 81.4513C55.2017 81.4513 55.791 81.3126 56.3017 81.0551C56.832 80.7976 57.3035 80.4212 57.716 79.9062L59.5231 77.8657L61.507 80.1835C61.8606 80.5797 62.2731 80.8966 62.7641 81.1146C63.2552 81.3325 63.8249 81.4513 64.4731 81.4513C65.7106 81.4513 66.7516 81.0155 67.5963 80.1241C68.4409 79.2326 68.8534 78.1827 68.8534 76.9347C68.8534 76.3206 68.7355 75.7659 68.4998 75.2508C68.2641 74.7556 67.9106 74.2802 67.4588 73.8642M59.5034 80.7778C58.8552 81.5504 58.0892 82.1645 57.2445 82.6399C56.3999 83.1153 55.4767 83.3531 54.4553 83.3531C52.766 83.3531 51.3124 82.739 50.0946 81.5107C48.8571 80.2825 48.2481 78.8166 48.2481 77.113C48.2481 76.0829 48.4839 75.132 48.9356 74.2802C49.4071 73.4283 50.016 72.6756 50.7821 72.0218C50.0356 71.2889 49.4267 70.4965 48.9356 69.6249C48.4642 68.7532 48.2285 67.7825 48.2285 66.7524C48.2285 65.0686 48.8374 63.6423 50.0749 62.4537C51.2928 61.2651 52.7463 60.6708 54.4356 60.6708C55.4374 60.6708 56.3802 60.8887 57.2249 61.3245C58.0695 61.7604 58.8159 62.3745 59.4642 63.147C60.1124 62.3745 60.8392 61.7604 61.6838 61.3245C62.5088 60.8887 63.432 60.6708 64.4534 60.6708C66.182 60.6708 67.6552 61.2651 68.8927 62.4735C70.1302 63.6819 70.7391 65.1478 70.7391 66.8713C70.7391 67.8816 70.5034 68.8126 70.032 69.6645C69.5605 70.5163 68.9123 71.2691 68.107 71.9426C68.9123 72.6161 69.5409 73.3887 70.032 74.2405C70.5034 75.0924 70.7391 76.0234 70.7391 77.0337C70.7391 78.777 70.1302 80.2627 68.9123 81.5107C67.6945 82.7588 66.2409 83.3729 64.5516 83.3729C63.5302 83.3729 62.5874 83.155 61.7231 82.6993C60.8588 82.2437 60.1124 81.6098 59.4642 80.8174M59.4642 74.4783C60.132 74.4783 60.7213 74.2405 61.1927 73.7651C61.6642 73.2897 61.8999 72.7152 61.8999 72.0417C61.8999 71.3681 61.6642 70.7738 61.1927 70.2984C60.7213 69.8229 60.1517 69.5852 59.4642 69.5852C58.7767 69.5852 58.207 69.8229 57.7356 70.2984C57.2642 70.7738 57.0481 71.3483 57.0481 72.0417C57.0481 72.735 57.2838 73.3095 57.7552 73.7849C58.2267 74.2604 58.7963 74.4783 59.4642 74.4783ZM67.4195 73.9038L65.2588 72.002L67.557 70.021C67.9695 69.6447 68.2838 69.2088 68.4998 68.7136C68.7159 68.2184 68.8141 67.6439 68.8141 67.0298C68.8141 65.7817 68.4016 64.7318 67.557 63.88C66.7123 63.0282 65.6909 62.6122 64.4338 62.6122C63.7856 62.6122 63.2159 62.7112 62.7249 62.9291C62.2338 63.147 61.8213 63.464 61.4677 63.88L59.4642 66.1978L57.4802 63.88C57.1267 63.464 56.7142 63.147 56.2231 62.9291C55.732 62.7112 55.1624 62.6122 54.4945 62.6122C53.2963 62.6122 52.2553 63.048 51.391 63.9196C50.5267 64.7913 50.0946 65.8412 50.0946 67.0892C50.0946 67.7033 50.2124 68.258 50.4481 68.773C50.6838 69.2881 51.0571 69.7437 51.5481 70.1597L53.6695 72.002L51.3713 73.983C50.9588 74.3396 50.6249 74.7556 50.4088 75.2707C50.1928 75.7857 50.0749 76.3404 50.0749 76.9743C50.0749 78.2025 50.5071 79.2722 51.3517 80.1637C52.216 81.0551 53.2374 81.4909 54.4356 81.4909C55.0838 81.4909 55.6731 81.3523 56.1838 81.0947C56.7142 80.8372 57.1856 80.4608 57.5981 79.9458L59.4052 77.9054L61.3892 80.2231C61.7427 80.6193 62.1552 80.9363 62.6463 81.1542C63.1374 81.3721 63.707 81.4909 64.3552 81.4909C65.5927 81.4909 66.6338 81.0551 67.4784 80.1637C68.3231 79.2722 68.7355 78.2223 68.7355 76.9743C68.7355 76.3602 68.6177 75.8055 68.382 75.2905C68.1463 74.7952 67.7927 74.3198 67.3409 73.9038H67.4195ZM59.4642 80.8174C58.8159 81.59 58.0499 82.2041 57.2052 82.6795C56.3606 83.155 55.4374 83.3927 54.416 83.3927C52.7267 83.3927 51.2731 82.7786 50.0553 81.5504C48.8178 80.3222 48.2089 78.8562 48.2089 77.1526C48.2089 76.1225 48.4446 75.1716 48.8963 74.3198C49.3678 73.468 49.9767 72.7152 50.7428 72.0615C49.9963 71.3285 49.3874 70.5361 48.8963 69.6645C48.4249 68.7928 48.1892 67.8222 48.1892 66.792C48.1892 65.1082 48.7981 63.6819 50.0356 62.4933C51.2535 61.3047 52.707 60.7104 54.3963 60.7104C55.3981 60.7104 56.341 60.9283 57.1856 61.3642C58.0302 61.8 58.7767 62.4141 59.4249 63.1867C60.0731 62.4141 60.7999 61.8 61.6445 61.3642C62.4695 60.9283 63.3927 60.7104 64.4141 60.7104C66.1427 60.7104 67.6159 61.3047 68.8534 62.5131C70.0909 63.7215 70.6998 65.1875 70.6998 66.9109C70.6998 67.9212 70.4641 68.8523 69.9927 69.7041C69.5213 70.5559 68.873 71.3087 68.0677 71.9822C68.873 72.6558 69.5016 73.4283 69.9927 74.2802C70.4641 75.132 70.6998 76.063 70.6998 77.0733C70.6998 78.8166 70.0909 80.3023 68.8731 81.5504C67.6552 82.7984 66.2016 83.4125 64.5124 83.4125C63.4909 83.4125 62.5481 83.1946 61.6838 82.739C60.8195 82.2833 60.0731 81.6494 59.4249 80.857L59.4642 80.8174ZM87.4748 60.9085L59.582 36.6019L31.5911 60.8689L30 58.987L59.582 33.3333L89.164 58.987L87.573 60.8689L87.4748 60.9085Z" fill="#FF3A9E"/>
</g>
<defs>
<clipPath id="clip0_298_3398">
<rect width="59.1837" height="50" fill="white" transform="translate(30 33.3333)"/>
</clipPath>
</defs>
</svg>
