<svg width="138" height="20" viewBox="0 0 138 20" fill="none" xmlns="http://www.w3.org/2000/svg">
<ellipse cx="74.1176" cy="9.41194" rx="4.70588" ry="4.70588" fill="#6D42B6"/>
<ellipse cx="118.824" cy="9.41194" rx="4.70588" ry="4.70588" fill="#7D214D"/>
<ellipse cx="103.529" cy="9.41194" rx="4.70588" ry="4.70588" fill="#DD9FAD"/>
<ellipse cx="89.4119" cy="9.41194" rx="4.70588" ry="4.70588" fill="#F5CE46"/>
<ellipse cx="132.941" cy="9.41194" rx="4.70588" ry="4.70588" fill="black"/>
<g clip-path="url(#clip0_352_793)">
<path d="M6.99256 1.17651L16.7176 6.60558H0V8.308H16.8144L9.80034 11.7232H0V13.353H10.1016L17.6212 18.8236H20.5474L13.3074 13.353H29.4118V11.7232H13.3289L20.3537 8.308H29.4118V6.60558H19.6222L10.4996 1.17651H6.99256Z" fill="#521616"/>
</g>
<g clip-path="url(#clip1_352_793)">
<path d="M57.0705 10C57.0705 14.4824 53.3999 18.1294 48.8822 18.1294C44.3646 18.1294 40.694 14.4941 40.694 10C40.694 5.50588 44.3528 1.87059 48.8822 1.87059C53.4116 1.87059 57.0705 5.50588 57.0705 9.98824M48.8822 0C43.3293 0 38.8116 4.47059 38.8116 10C38.8116 15.5294 43.3293 20 48.8822 20C54.4352 20 58.9646 15.5176 58.9646 10C58.9646 4.48235 54.4587 0 48.8822 0ZM36.4705 10.8824H61.2705V9.12941H36.4705V10.8824Z" fill="#521616"/>
</g>
<defs>
<clipPath id="clip0_352_793">
<rect width="29.4118" height="17.6471" fill="white" transform="translate(0 1.17651)"/>
</clipPath>
<clipPath id="clip1_352_793">
<rect width="24.8" height="20" fill="white" transform="translate(36.4705)"/>
</clipPath>
</defs>
</svg>
