<svg width="10" height="16" viewBox="0 0 10 16" fill="none" xmlns="http://www.w3.org/2000/svg">
<g clip-path="url(#clip0_352_751)">
<path d="M4.54572 0C5.28925 0 5.88219 0.621176 5.88219 1.38353C5.88219 2.14588 5.27984 2.76706 4.54572 2.76706C3.8116 2.76706 3.20925 2.14588 3.20925 1.38353C3.20925 0.621176 3.8116 0 4.54572 0ZM9.58101 6.39059C9.56219 6.19294 9.46807 6.01412 9.31748 5.89177C9.16689 5.76941 8.97866 5.71294 8.79042 5.73176L7.40689 5.91059L5.40219 3.81176C5.17631 3.52941 4.86572 3.36 4.50807 3.31294C4.35748 3.29412 4.19748 3.31294 4.05631 3.34118C4.05631 3.34118 3.92454 3.37882 3.84925 3.40706L1.08219 4.36706C0.856307 4.44235 0.686895 4.63059 0.621013 4.86588L0.028072 6.95529C-0.0848692 7.35059 0.131601 7.76471 0.517484 7.87765C0.583366 7.89647 0.649248 7.90588 0.724542 7.90588C1.04454 7.90588 1.3269 7.68941 1.4116 7.36941L1.90101 5.63765L2.93631 5.28L2.6069 8.32941C2.6069 8.32941 2.6069 8.33882 2.6069 8.34824L0.733954 14.9082C0.668072 15.1247 0.696307 15.3506 0.799837 15.5482C0.903366 15.7459 1.07278 15.8871 1.28925 15.9529C1.36454 15.9812 1.43984 15.9906 1.51513 15.9906C1.87278 15.9906 2.19278 15.7459 2.29631 15.3882L3.7269 10.3718L5.33631 12.0941L5.63748 15.2376C5.68454 15.6706 6.02337 15.9906 6.4469 15.9906C6.47513 15.9906 6.50337 15.9906 6.5316 15.9906C6.74807 15.9718 6.94572 15.8588 7.07748 15.6894C7.21866 15.52 7.27513 15.2941 7.25631 15.0776L6.91748 11.6424C6.89866 11.4541 6.82337 11.2753 6.6916 11.1435L5.20454 9.56235L5.47748 7.00235L5.58101 6.07059L6.65395 7.22824C6.78572 7.36 6.96454 7.43529 7.15278 7.43529C7.18101 7.43529 7.20925 7.43529 7.22807 7.43529L8.94101 7.21882C9.12925 7.2 9.30807 7.09647 9.42101 6.94588C9.54337 6.79529 9.59984 6.59765 9.5716 6.4L9.58101 6.39059Z" fill="#FF3A9E"/>
</g>
<defs>
<clipPath id="clip0_352_751">
<rect width="9.59059" height="16" fill="white"/>
</clipPath>
</defs>
</svg>
