<svg width="19" height="18" viewBox="0 0 19 18" fill="none" xmlns="http://www.w3.org/2000/svg">
<path d="M4.13502 12.495H1.91503H12.7H4.13502ZM14.23 5.265H16.51C16.615 5.265 16.705 5.235 16.78 5.16C16.855 5.1 16.885 5.01 16.885 4.92V1.86C16.885 1.755 16.855 1.68 16.78 1.62C16.705 1.56 16.615 1.515 16.51 1.515H14.23V5.265ZM4.13502 12.495H10.48C11.08 12.495 11.605 12.285 12.055 11.85C12.49 11.43 12.715 10.92 12.715 10.32V1.515H1.93003V10.32C1.93003 10.92 2.14003 11.43 2.57503 11.85C3.01003 12.27 3.53502 12.48 4.15002 12.48M4.15002 13.995C3.11502 13.995 2.23003 13.635 1.49503 12.93C0.760029 12.21 0.400024 11.34 0.400024 10.32V0H16.51C17.035 0 17.485 0.18 17.845 0.54C18.22 0.9 18.4 1.335 18.4 1.86V4.92C18.4 5.445 18.22 5.88 17.845 6.24C17.47 6.6 17.035 6.78 16.51 6.78H14.23V10.32C14.23 11.34 13.87 12.21 13.135 12.93C12.4 13.65 11.515 14.01 10.495 14.01H4.15002V13.995ZM0.415028 16.47H16.24V17.985H0.415028V16.47Z" fill="#FDE0E6"/>
</svg>
