<svg width="28" height="19" viewBox="0 0 28 19" fill="none" xmlns="http://www.w3.org/2000/svg">
<path d="M7.85004 8.445C8.24004 8.445 8.57005 8.31 8.84005 8.04C9.11005 7.77 9.24506 7.44 9.24506 7.05C9.24506 6.66 9.11005 6.33 8.84005 6.06C8.57005 5.79 8.24004 5.655 7.85004 5.655C7.46004 5.655 7.13006 5.79 6.86006 6.06C6.59006 6.33 6.45505 6.66 6.45505 7.05C6.45505 7.44 6.59006 7.77 6.86006 8.04C7.13006 8.31 7.46004 8.445 7.85004 8.445ZM15.2901 12.24H26.0751V7.05C26.0751 6.33 25.82 5.73 25.31 5.22C24.8 4.71 24.185 4.455 23.465 4.455H15.305V12.24H15.2901ZM7.85004 10.29C6.95004 10.29 6.18505 9.975 5.55505 9.345C4.92505 8.715 4.61006 7.95 4.61006 7.05C4.61006 6.15 4.92505 5.385 5.55505 4.755C6.18505 4.125 6.95004 3.81 7.85004 3.81C8.75004 3.81 9.51504 4.125 10.145 4.755C10.775 5.385 11.09 6.15 11.09 7.05C11.09 7.95 10.775 8.715 10.145 9.345C9.51504 9.975 8.75004 10.29 7.85004 10.29ZM0.800049 18V0H2.64504V12.24H13.4451V2.61H23.465C24.695 2.61 25.7451 3.045 26.6151 3.915C27.4851 4.785 27.92 5.835 27.92 7.065V18.015H26.0751V14.1H2.64504V18.015H0.800049V18Z" fill="#FDE0E6"/>
</svg>
